<svg width="45" height="50" xmlns="http://www.w3.org/2000/svg"><g fill="none" fill-rule="evenodd"><path fill="#FFF" fill-rule="nonzero" d="M5 0h24l6.974 7.044L45 16v34H5z"/><path fill="#E8140F" fill-rule="nonzero" d="M0 26h38v13H0z"/><path fill="#BB1210" fill-rule="nonzero" d="M7 22v4H0z"/><path d="M29.5 0a1.5 1.5 0 010 3h-23a1.5 1.5 0 010-3h23z" fill="#AFAFAF" fill-rule="nonzero"/><path fill="#AFAFAF" fill-rule="nonzero" d="M8 26H5V0h3zm0 24H5v-8h3z"/><path fill="#AFAFAF" fill-rule="nonzero" d="M5 50v-3h40v3z"/><path d="M45 48.5a1.5 1.5 0 01-3 0v-33a1.5 1.5 0 013 0v33zM29 2l13 14H29z" fill="#AFAFAF" fill-rule="nonzero"/><path d="M9.76 36v-6.6h2.52c.8 0 1.433.188 1.9.565.467.377.7.888.7 1.535v.21c0 .647-.232 1.158-.695 1.535-.463.377-1.098.565-1.905.565h-1.01V36H9.76zm2.52-5.37h-1.01v1.95h1.01c.347 0 .615-.077.805-.23.19-.153.285-.377.285-.67v-.15c0-.287-.095-.508-.285-.665-.19-.157-.458-.235-.805-.235zm3.9 5.37v-6.6h2.44c.98 0 1.735.262 2.265.785s.795 1.272.795 2.245v.54c0 .973-.265 1.722-.795 2.245-.53.523-1.285.785-2.265.785h-2.44zm2.44-5.31h-.93v4.02h.93c1.033 0 1.55-.6 1.55-1.8v-.42c0-1.2-.517-1.8-1.55-1.8zm4.6 5.31v-6.6h4.34v1.29h-2.83v1.58h2.53v1.25h-2.53V36h-1.51z" fill="#FFF" fill-rule="nonzero"/><path d="M29.5 1.5l14 14" stroke="#AFAFAF" stroke-width="3" stroke-linecap="round"/></g></svg>