<?xml version="1.0" encoding="utf-8"?>
<!-- Generator: Adobe Illustrator 21.0.0, SVG Export Plug-In . SVG Version: 6.00 Build 0)  -->
<svg version="1.1" id="F1_Logo" xmlns="http://www.w3.org/2000/svg" xmlns:xlink="http://www.w3.org/1999/xlink" x="0px" y="0px"
	 viewBox="0 0 240 144" style="enable-background:new 0 0 240 144;" xml:space="preserve">
<style type="text/css">
	.st0{fill:#666666;}
</style>
<title>F1_Formula_1_Logo_Stacked_CarbonBlk_RGB</title>
<path class="st0" d="M24,93h20.6v3.6H28.2v7.9h16.4v3.6H28.2V120H24V93z M69.5,111c0,6.1-3.3,9.5-9.8,9.5h-2.7
	c-6.7,0-9.8-3.5-9.8-9.5v-3.5c0-6,3-9.5,9.8-9.5h2.7c6.4,0,9.8,3.5,9.8,9.5L69.5,111z M60.3,101.4h-3.7c-3.7,0-5.1,1.7-5.1,5.6v4.6
	c0,3.9,1.4,5.6,5.1,5.6h3.8c3.9,0,5.1-1.7,5.1-5.6v-4.6C65.4,103,64.2,101.3,60.3,101.4L60.3,101.4z M80.1,98.4H86v3.4h-6.1
	c-2.3,0-3.2,0.7-3.2,2.9V120h-4v-14.9C72.8,100.7,75.9,98.4,80.1,98.4L80.1,98.4z M89.6,98.4h25c5.4,0,7.8,3,7.8,7.3V120h-4v-14.5
	c0-2.7-1-3.5-3.6-3.5H108v18h-4v-18H93.6v18h-4L89.6,98.4z M146.4,120h-12.2c-5.4,0-7.8-2.7-7.8-7.7V98.4h4v14.3
	c0,2.8,1,3.7,3.6,3.7h8.5v-18h4L146.4,120z M154.7,93v27h-4V93H154.7z M178.7,120h-13.9c-4.1,0-6.6-1.6-6.6-5.2c0-2.3,1.8-4,4.8-6.2
	l9.6-6.9h-13.2v-3.4h11.1c5.5,0,8.2,3,8.2,7.8L178.7,120z M174.7,116.4v-11.8l-10.2,7.4c-1.4,1-2.2,1.5-2.2,2.7s1,1.7,2.3,1.7
	L174.7,116.4z M187.4,116.4h8.2V97.8c0-0.8-0.4-1.2-1.1-1.2h-6.3V93h6.9c3.2,0,4.6,1.6,4.6,4.8v18.7h7.3v3.6h-19.5L187.4,116.4z
	 M208.9,116.4h2.9v0.5h-1.1v3H210v-3h-1.1V116.4z M212.2,116.4h0.9l1,2.8l0,0l1-2.8h0.9v3.6h-0.6v-2.8l0,0l-1,2.8h-0.5l-1-2.8l0,0
	v2.8h-0.6L212.2,116.4z"/>
<path class="st0" d="M72.4,51.3L51.2,72H24l33.8-33.5C70.3,26,76.4,24,97.8,24h84.6l-18.4,18h-63.8C84.2,42,80.8,43.2,72.4,51.3z
	 M161.3,44.8h-60.7c-16.1,0-18.6,1.2-25.9,8.5L56.1,72h25.2l6-6c4-4,5.7-4.3,13.7-4.3h43.5L161.3,44.8z M167.9,72L216,24h-29.9
	l-48,48H167.9z"/>
</svg>
