<?xml version="1.0" encoding="UTF-8"?>
<svg width="120px" height="52px" viewBox="0 0 120 52" version="1.1" xmlns="http://www.w3.org/2000/svg" xmlns:xlink="http://www.w3.org/1999/xlink">
    <!-- Generator: Sketch 52.6 (67491) - http://www.bohemiancoding.com/sketch -->
    <title>partner_gwo</title>
    <desc>Created with Sketch.</desc>
    <g id="Symbols" stroke="none" stroke-width="1" fill="none" fill-rule="evenodd">
        <g id="Icon-Footer-/-Partner-/-partner_gwo" transform="translate(0.000000, -2.000000)" fill="#666666">
            <g id="partner_gwo" transform="translate(0.000000, 2.000000)">
                <path d="M23.6330692,11.730284 C22.7495899,11.0725111 21.6452409,13.4843451 21.534806,13.7036028 C21.4243711,13.9228604 21.0930664,14.9095198 20.7617617,15.4576639 C20.430457,16.0058081 18.0008891,18.6368998 14.2461024,18.7465286 C10.8226205,18.8561574 10.3808808,14.5806334 10.8226205,13.2650875 C12.5895789,13.7036028 13.8043628,13.593974 14.5774071,13.593974 C15.5713213,13.593974 19.5469778,13.4843451 22.5287201,10.7436246 C25.0687229,8.44141932 24.958288,6.9066158 24.4061135,6.02958523 C23.9643739,5.26218347 22.3078503,3.72737996 17.006975,5.48144111 C16.4548005,5.70069876 15.902626,5.9199564 15.3504515,6.13921405 C14.3565373,5.26218347 12.5895789,4.38515289 9.82870634,4.49478171 C6.07391965,4.71403936 4.96957062,6.9066158 4.96957062,8.11253285 C4.96957062,9.3184499 6.18435455,11.5110263 8.94522711,12.4976857 C9.05566202,12.6073146 9.27653182,12.6073146 9.38696672,12.6073146 C9.27653182,12.8265722 9.27653182,12.936201 9.27653182,13.0458299 C9.05566202,14.0324893 8.2826177,18.9657863 12.9208836,19.4043015 C16.5652354,19.6235592 19.9887174,16.5539522 19.9887174,16.5539522 C19.9887174,16.5539522 19.326108,21.4872492 15.4608864,24.9953715 C13.2521883,27.6264632 11.0434903,28.5034938 7.95131299,28.5034938 C5.30087533,28.5034938 2.31913296,26.8590615 2.09826315,23.6798256 C1.87739334,21.0487339 4.1965263,18.8561574 4.1965263,18.8561574 C4.1965263,18.8561574 4.96957062,18.1983845 4.74870081,17.9791269 C4.52783101,17.7598692 3.9756565,18.1983845 3.75478669,18.4176421 C3.53391688,18.6368998 -0.110434903,22.2546509 1.10434903,25.4338868 C2.31913296,28.6131226 4.74870081,29.4901532 7.95131299,29.4901532 C12.0374044,29.4901532 17.4487146,26.6398038 19.6574127,22.3642797 C21.534806,18.6368998 21.4243711,16.5539522 22.0869805,15.2384063 C22.8600248,13.9228604 24.5165484,12.2784281 23.6330692,11.730284 M23.1913296,7.89327521 C23.3017645,10.7436246 18.2217589,13.0458299 14.798277,13.0458299 C14.798277,13.0458299 13.0313185,13.1554587 11.1539252,12.6073146 C11.4852299,11.5110263 12.479144,8.98956343 14.9087119,7.45475992 C15.2400166,7.23550227 15.4608864,7.12587345 15.7921911,6.9066158 C16.4548005,7.56438874 16.7861052,8.11253285 17.006975,8.33179049 C17.006975,8.33179049 17.4487146,9.09919225 17.4487146,9.20882107 C17.4487146,9.3184499 17.6695844,9.53770754 17.7800193,9.42807872 C17.8904542,9.3184499 18.0008891,9.20882107 17.8904542,8.98956343 C17.7800193,8.77030578 17.2278448,7.89327521 16.6756703,7.23550227 C16.5652354,7.12587345 16.4548005,6.9066158 16.2339307,6.68735816 C19.1052382,5.26218347 23.0808947,4.71403936 23.1913296,7.89327521 M8.94522711,11.8399128 C6.51565926,10.4147381 6.51565926,9.09919225 6.51565926,8.33179049 C6.51565926,7.67401756 7.06783377,5.37181229 10.9330554,5.26218347 C12.8104487,5.15255465 14.2461024,5.81032758 15.2400166,6.57772934 C12.1478393,8.33179049 10.6017507,10.7436246 9.93914124,12.2784281 C9.49740163,12.1687993 9.16609692,11.9495416 8.94522711,11.8399128" id="Shape" fill-rule="nonzero"></path>
                <path d="M30.3695982,17.3213539 C30.7009029,16.9924675 30.8113378,16.663581 30.590468,16.5539522 C30.3695982,16.4443233 29.9278586,17.1020963 29.9278586,17.1020963 C29.5965539,17.4309827 28.6026398,18.8561574 27.0565511,18.9657863 C24.4061135,19.0754151 24.6269833,16.3346945 24.8478531,15.0191487 C26.2835068,14.9095198 28.0504653,14.6902622 29.9278586,13.0458299 C31.805252,11.4013975 31.3635124,10.4147381 31.0322076,10.0858517 C30.590468,9.64733636 29.1548143,9.3184499 26.9461162,10.8532534 C24.5165484,12.4976857 23.4121994,14.799891 23.1913296,16.5539522 C22.9704598,17.7598692 23.4121994,20.1717033 25.9522021,20.1717033 C28.4922049,20.0620745 30.1487284,17.6502404 30.3695982,17.3213539 M27.0565511,11.2917687 C28.1609002,10.5243669 29.1548143,10.6339958 29.3756841,10.9628822 C29.5965539,11.1821399 30.0382935,12.6073146 27.9400304,13.7036028 C25.8417672,14.799891 25.2895927,14.0324893 25.2895927,14.0324893 C25.2895927,14.0324893 26.062637,12.0591705 27.0565511,11.2917687" id="Shape" fill-rule="nonzero"></path>
                <path d="M32.3574265,12.6073146 C32.4678614,12.3880569 33.4617755,11.5110263 33.6826453,11.6206552 C33.9035151,11.730284 33.9035151,12.8265722 33.5722104,14.2517469 C33.2409057,15.6769216 31.3635124,19.6235592 31.3635124,19.6235592 C31.2530774,19.9524457 31.5843822,19.8428168 31.5843822,19.8428168 C31.5843822,19.8428168 32.0261218,19.733188 32.3574265,19.6235592 C32.7991661,19.5139304 32.909601,19.1850439 32.909601,19.1850439 C32.909601,19.1850439 32.909601,18.8561574 33.5722104,17.869498 C34.2348198,16.8828386 37.2165622,14.799891 37.2165622,14.799891 C36.4435179,17.1020963 36.1122132,19.6235592 37.6583018,19.9524457 C39.2043904,20.1717033 41.3026536,18.9657863 43.069612,16.8828386 C44.8365705,14.799891 45.1678752,13.2650875 45.1678752,11.9495416 C45.2783101,10.7436246 44.3948309,9.97622283 43.6217865,9.86659401 C42.9591771,9.86659401 42.2965677,10.7436246 42.1861328,11.0725111 C42.0756979,11.4013975 42.1861328,11.5110263 42.2965677,11.5110263 C42.4070026,11.5110263 43.8426564,11.730284 43.5113516,13.8132316 C43.069612,16.5539522 41.3026536,18.6368998 39.3148253,18.8561574 C37.3269971,18.9657863 38.1000414,15.0191487 38.541781,13.7036028 C40.3087395,12.6073146 40.9713489,10.9628822 41.0817838,10.7436246 C41.0817838,10.5243669 40.860914,9.97622283 40.6400442,9.86659401 C40.4191744,9.86659401 39.2043904,10.9628822 38.8730857,11.5110263 C38.541781,12.0591705 37.7687367,13.7036028 37.5478669,13.8132316 C37.5478669,13.9228604 35.3391688,15.3480351 34.01395,16.3346945 C35.7809085,12.1687993 35.7809085,10.7436246 35.7809085,10.7436246 C35.7809085,10.6339958 35.8913434,9.75696518 35.0078641,9.75696518 C33.9035151,9.75696518 32.2469916,11.730284 32.0261218,11.9495416 C31.805252,12.1687993 31.6948171,12.4976857 31.805252,12.6073146 C31.9156869,12.8265722 32.2469916,12.8265722 32.3574265,12.6073146" id="Path"></path>
                <path d="M46.2722242,19.8428168 C47.2661383,19.8428168 49.5852713,18.0887557 50.4687505,17.1020963 C51.4626646,16.1154369 52.0148391,15.4576639 52.125274,15.4576639 C52.125274,15.6769216 51.7939693,17.1020963 51.6835344,17.5406116 C51.5730995,17.9791269 50.9104901,19.9524457 52.235709,19.9524457 C53.5609278,19.9524457 54.9965815,17.9791269 55.2174513,17.6502404 C55.4383211,17.3213539 55.7696258,16.7732098 55.548756,16.663581 C55.3278862,16.5539522 54.8861466,17.2117251 54.6652768,17.5406116 C54.444407,17.869498 53.8922325,18.3080133 53.6713627,18.1983845 C53.4504929,18.0887557 53.0087533,17.9791269 53.5609278,16.3346945 C54.0026674,14.6902622 55.4383211,11.0725111 55.7696258,10.4147381 C55.9904956,9.97622283 55.9904956,9.86659401 55.7696258,9.86659401 C55.548756,9.86659401 54.5548419,9.64733636 54.0026674,9.75696518 C54.0026674,9.75696518 50.4687505,9.64733636 48.0391827,11.9495416 C45.6096148,14.2517469 44.9470054,16.663581 44.9470054,17.7598692 C44.8365705,19.0754151 45.2783101,19.8428168 46.2722242,19.8428168 M46.6035289,16.663581 C46.6035289,16.1154369 46.6035289,14.1421181 48.812227,12.2784281 C50.9104901,10.4147381 52.8983184,10.6339958 52.8983184,10.6339958 C53.4504929,10.6339958 53.7817976,10.8532534 54.0026674,11.0725111 C54.2235372,11.2917687 53.5609278,12.4976857 52.3461439,14.3613757 C51.1313599,16.2250657 48.5913572,18.1983845 47.7078779,18.1983845 C46.7139638,18.1983845 46.6035289,17.1020963 46.6035289,16.663581" id="Shape" fill-rule="nonzero"></path>
                <path d="M89.4522711,17.869498 C89.4522711,19.0754151 89.8940108,19.8428168 90.8879249,19.8428168 C91.881839,19.8428168 94.200972,18.0887557 95.0844512,17.1020963 C96.0783653,16.1154369 96.6305398,15.4576639 96.7409747,15.4576639 C96.7409747,15.6769216 96.40967,17.1020963 96.2992351,17.5406116 C96.1888002,17.9791269 95.5261908,19.9524457 96.8514096,19.9524457 C98.1766285,19.9524457 99.6122822,17.9791269 99.833152,17.6502404 C100.054022,17.3213539 100.385327,16.7732098 100.164457,16.663581 C99.9435869,16.5539522 99.5018473,17.2117251 99.2809775,17.5406116 C99.0601077,17.869498 98.5079332,18.3080133 98.2870634,18.1983845 C98.0661935,18.0887557 97.6244539,17.9791269 98.1766285,16.3346945 C98.6183681,14.6902622 100.054022,11.0725111 100.385327,10.4147381 C100.606196,9.97622283 100.606196,9.86659401 100.385327,9.86659401 C100.164457,9.86659401 99.1705426,9.64733636 98.6183681,9.75696518 C98.6183681,9.75696518 95.0844512,9.64733636 92.6548833,11.9495416 C90.1148806,14.3613757 89.4522711,16.7732098 89.4522711,17.869498 M93.3174927,12.2784281 C95.4157559,10.4147381 97.4035841,10.6339958 97.4035841,10.6339958 C97.9557586,10.6339958 98.2870634,10.8532534 98.5079332,11.0725111 C98.728803,11.2917687 98.0661935,12.4976857 96.8514096,14.3613757 C95.6366257,16.2250657 93.0966229,18.1983845 92.2131437,18.1983845 C91.3296645,18.1983845 91.2192296,17.2117251 91.2192296,16.663581 C91.2192296,16.1154369 91.2192296,14.1421181 93.3174927,12.2784281" id="Shape" fill-rule="nonzero"></path>
                <path d="M56.8739749,19.6235592 C57.6470192,19.4043015 57.867889,18.8561574 57.9783239,18.0887557 C58.1991937,17.4309827 59.9661521,14.799891 60.8496314,14.0324893 C61.6226757,13.2650875 62.8374596,11.730284 63.8313737,11.6206552 C64.714853,11.6206552 63.8313737,13.9228604 63.3896341,14.9095198 C63.0583294,15.8961792 61.4018059,19.8428168 63.0583294,19.8428168 C64.3835482,19.8428168 65.4878973,18.3080133 65.7087671,18.0887557 C65.819202,17.9791269 66.2609416,17.3213539 66.2609416,17.1020963 C66.2609416,16.9924675 66.1505067,16.7732098 65.819202,17.1020963 C65.2670275,17.7598692 64.9357228,18.0887557 64.3835482,18.0887557 C63.8313737,18.0887557 64.2731133,16.663581 65.0461577,14.5806334 C65.819202,12.4976857 66.3713765,10.5243669 66.3713765,10.5243669 C66.3713765,10.5243669 66.4818114,9.75696518 65.5983322,9.75696518 C64.1626784,9.75696518 61.6226757,12.0591705 60.9600663,12.8265722 C60.2974568,13.593974 59.5244125,14.5806334 59.4139776,14.2517469 C59.3035427,14.0324893 60.5183266,11.9495416 60.5183266,10.6339958 C60.5183266,10.3051093 60.4078917,9.64733636 59.8557172,9.64733636 C58.6409333,9.64733636 57.5365843,10.8532534 56.8739749,11.5110263 C56.2113654,12.2784281 56.3218003,12.3880569 56.3218003,12.6073146 C56.4322353,12.7169434 56.8739749,12.2784281 56.8739749,12.2784281 C56.8739749,12.2784281 57.5365843,11.5110263 57.9783239,11.5110263 C58.4200635,11.5110263 58.4200635,12.0591705 58.1991937,13.2650875 C57.867889,14.5806334 56.1009305,18.8561574 55.9904956,19.2946727 C55.8800607,19.8428168 56.2113654,19.8428168 56.8739749,19.6235592" id="Path"></path>
                <path d="M68.5800745,20.0620745 C70.2365981,20.0620745 72.1139914,18.0887557 72.9974706,17.1020963 C73.9913848,16.1154369 74.4331244,15.4576639 74.5435593,15.4576639 C74.6539942,15.4576639 74.5435593,15.7865504 74.4331244,16.0058081 C74.4331244,16.2250657 74.2122546,16.9924675 73.9913848,17.6502404 C73.8809499,18.3080133 73.3287754,20.0620745 74.5435593,20.0620745 C75.8687781,20.0620745 76.6418224,18.8561574 77.1939969,18.3080133 C77.6357366,17.7598692 77.9670413,17.3213539 77.8566064,17.1020963 C77.7461715,16.8828386 77.5253017,17.2117251 77.3044319,17.3213539 C77.083562,17.5406116 76.7522573,17.9791269 76.2000828,18.0887557 C75.4270385,18.1983845 75.6479083,16.3346945 75.8687781,15.4576639 C75.979213,14.5806334 76.7522573,12.0591705 77.083562,11.0725111 C77.5253017,9.97622283 79.402695,7.67401756 80.507044,5.26218347 C81.2800883,3.61775114 81.3905232,2.52146291 81.0592185,2.19257645 C80.7279138,1.86368998 79.6235648,3.39849349 78.8505205,4.933297 C78.0774762,6.35847169 77.3044319,8.33179049 77.3044319,8.33179049 C77.1939969,8.55104814 76.7522573,9.64733636 76.5313875,9.75696518 C76.4209526,9.86659401 76.2000828,9.75696518 75.0957338,9.75696518 C73.4392103,9.75696518 71.3409471,10.6339958 69.6844236,12.1687993 C68.6905094,13.0458299 67.5861604,14.9095198 67.1444208,16.2250657 C66.923551,17.6502404 67.0339859,20.0620745 68.5800745,20.0620745 M69.7948585,13.4843451 C71.3409471,11.1821399 73.770515,10.5243669 74.6539942,10.5243669 C77.083562,10.5243669 76.0896479,11.6206552 74.6539942,14.0324893 C73.2183405,16.4443233 70.7887726,18.0887557 69.5739887,18.1983845 C68.3592047,18.3080133 68.2487698,15.8961792 69.7948585,13.4843451" id="Shape" fill-rule="nonzero"></path>
                <path d="M78.5192158,19.2946727 C78.4087809,19.8428168 78.6296507,19.8428168 79.2922601,19.6235592 C79.9548695,19.4043015 79.9548695,18.8561574 80.0653044,18.527271 C80.3966091,17.6502404 80.7279138,16.3346945 82.0531327,14.9095198 C83.5992213,13.2650875 85.034875,11.6206552 85.9183543,11.5110263 C86.8018335,11.4013975 86.3600939,13.2650875 86.0287892,14.3613757 C85.5870495,15.4576639 83.4887864,19.9524457 85.4766146,19.9524457 C86.9122684,19.9524457 88.2374872,17.9791269 88.3479221,17.7598692 C88.5687919,17.4309827 88.7896617,17.1020963 88.5687919,16.9924675 C88.5687919,16.9924675 88.2374872,17.1020963 88.2374872,17.2117251 C88.1270523,17.4309827 87.354008,18.1983845 86.9122684,18.1983845 C86.1392241,18.1983845 86.9122684,15.8961792 87.354008,14.4710045 C87.9061825,13.1554587 88.5687919,11.2917687 88.6792268,10.9628822 C88.7896617,10.6339958 88.9000966,9.64733636 87.9061825,9.64733636 C86.249659,9.64733636 82.3844374,13.593974 82.1635676,13.9228604 C81.9426978,14.1421181 81.9426978,14.0324893 81.9426978,13.8132316 C82.4948723,11.730284 83.930526,8.22216167 83.930526,8.22216167 C83.930526,8.22216167 87.6853127,7.67401756 90.1148806,6.35847169 C92.5444484,5.15255465 93.6487974,3.06960702 93.5383625,1.86368998 C93.5383625,0.657772934 92.4340135,1.77635684e-15 90.9983598,1.77635684e-15 C88.9000966,1.77635684e-15 87.1331382,1.31554587 85.3661797,3.50812231 C83.5992213,5.70069876 80.8383487,12.2784281 79.9548695,14.6902622 C79.7339997,15.2384063 78.7400856,18.7465286 78.5192158,19.2946727 M85.4766146,4.60441054 C86.249659,3.39849349 88.1270523,0.548144111 90.4461853,0.548144111 C91.7714041,0.548144111 92.2131437,1.31554587 92.2131437,2.19257645 C92.2131437,3.17923585 91.7714041,4.60441054 89.7835759,5.81032758 C87.7957476,7.01624463 85.5870495,7.34513109 84.0409609,7.67401756 C84.5931354,6.46810052 85.2557448,5.04292583 85.4766146,4.60441054" id="Shape" fill-rule="nonzero"></path>
                <path d="M63.1687643,34.7523367 C62.9478945,35.8486249 63.3896341,38.3700878 65.819202,38.3700878 C68.3592047,38.3700878 69.6844236,36.5063978 69.9052934,36.1775114 C70.1261632,35.8486249 70.347033,35.5197384 70.1261632,35.3004808 C69.9052934,35.190852 69.6844236,35.5197384 69.4635538,35.8486249 C69.242684,36.1775114 68.5800745,37.0545419 67.0339859,37.1641708 C64.3835482,37.2737996 64.604418,34.533079 64.8252879,33.2175332 C66.2609416,33.1079043 68.0279,32.8886467 69.9052934,31.2442144 C71.7826867,29.599782 71.3409471,28.6131226 71.0096424,28.2842362 C70.5679028,27.8457209 69.1322491,27.5168344 66.923551,29.0516379 C64.3835482,30.6960702 63.3896341,32.9982755 63.1687643,34.7523367 M66.923551,29.599782 C68.0279,28.8323803 69.0218142,28.9420091 69.242684,29.2708956 C69.4635538,29.4901532 69.9052934,30.9153279 67.8070302,32.0116161 C65.7087671,33.1079043 65.1565926,32.3405026 65.1565926,32.3405026 C65.1565926,32.3405026 65.9296369,30.3671838 66.923551,29.599782" id="Shape" fill-rule="nonzero"></path>
                <path d="M40.6400442,29.3805244 C41.5235234,28.8323803 42.7383073,28.0649785 42.6278724,29.3805244 C42.5174375,30.6960702 42.5174375,31.1345855 41.7443932,32.8886467 C41.0817838,34.6427078 39.8669999,37.2737996 39.5356951,37.9315725 C39.2043904,38.5893454 40.4191744,38.260459 40.6400442,38.1508302 C40.860914,38.0412013 41.3026536,37.2737996 42.4070026,34.4234502 C43.5113516,31.5731008 44.8365705,30.3671838 45.2783101,29.9286685 C45.7200497,29.4901532 46.7139638,29.0516379 47.1557034,29.3805244 C47.597443,29.7094108 47.9287477,30.0382973 48.2600525,29.4901532 C48.5913572,28.9420091 48.812227,28.6131226 48.7017921,28.1746073 C48.5913572,27.8457209 48.2600525,27.4072056 47.4870081,27.5168344 C46.7139638,27.6264632 45.388745,29.0516379 43.8426564,30.3671838 C44.0635262,29.2708956 44.6157007,27.6264632 43.8426564,27.4072056 C43.1800469,27.1879479 40.5296093,28.7227514 39.3148253,29.4901532 C39.8669999,27.5168344 39.9774348,25.324258 38.8730857,24.0087121 C36.9956924,21.7065068 33.5722104,22.1450221 32.0261218,24.0087121 C31.805252,24.3375985 31.5843822,24.5568562 31.3635124,24.8857427 C31.1426425,24.9953715 30.9217727,25.1050003 30.7009029,25.2146291 C28.0504653,26.530175 25.8417672,30.4768126 25.7313323,33.327162 C25.7313323,35.7389961 27.1669861,38.6989743 30.2591633,38.6989743 C33.4617755,38.6989743 36.1122132,35.8486249 37.6583018,33.2175332 C38.1000414,32.4501314 38.6522159,31.463472 38.9835206,30.3671838 C39.64613,29.9286685 40.3087395,29.599782 40.6400442,29.3805244 M34.5661245,23.3509391 C37.2165622,23.0220527 38.3209112,25.324258 38.541781,26.530175 C38.6522159,27.2975768 38.541781,28.7227514 38.1000414,30.257555 C36.9956924,30.8056991 35.6704736,31.3538432 34.1243849,31.0249567 C32.0261218,30.5864414 31.2530774,28.5034938 31.3635124,27.2975768 C31.3635124,26.7494326 31.4739473,25.9820309 31.805252,25.324258 C32.6887312,24.9953715 33.6826453,24.9953715 34.8974292,25.2146291 C36.1122132,25.4338868 35.6704736,24.666485 35.0078641,24.5568562 C34.5661245,24.4472274 33.5722104,24.2279697 32.2469916,24.5568562 C32.6887312,24.0087121 33.4617755,23.460568 34.5661245,23.3509391 M36.9956924,32.7790179 C35.5600387,34.8619655 33.5722104,37.1641708 31.1426425,37.1641708 C28.7130747,37.1641708 27.4982908,35.5197384 27.3878559,33.4367908 C27.277421,30.5864414 28.4922049,27.6264632 30.0382935,26.4205462 C30.3695982,26.0916597 30.7009029,25.8724021 31.1426425,25.6531444 C30.4800331,27.4072056 30.4800331,29.599782 31.9156869,31.2442144 C33.9035151,33.4367908 36.9956924,31.5731008 36.9956924,31.5731008 C36.9956924,31.5731008 37.3269971,31.3538432 37.8791716,31.0249567 C37.5478669,31.6827296 37.3269971,32.2308738 36.9956924,32.7790179" id="Shape" fill-rule="nonzero"></path>
                <path d="M83.930526,42.6456119 C83.8200911,42.5359831 83.5992213,42.7552407 83.7096562,42.8648695 C84.0409609,43.0841272 85.1453099,44.0707866 85.1453099,45.6055901 C85.1453099,47.9077953 82.0531327,50.8677735 76.7522573,50.8677735 C71.8931216,50.8677735 62.0644153,45.1670748 59.6348474,43.7419001 C59.0826729,43.4130136 58.4200635,43.0841272 57.7574541,42.7552407 C58.8618031,40.8915507 60.2974568,38.1508302 60.9600663,36.6160266 C61.8435455,34.6427078 63.2791992,30.8056991 63.7209388,29.4901532 C64.1626784,28.1746073 63.7209388,27.6264632 62.9478945,27.5168344 C62.1748502,27.4072056 61.6226757,27.9553497 60.6287616,28.6131226 C59.6348474,29.3805244 56.5426702,32.669389 56.5426702,32.669389 C57.5365843,29.2708956 60.6287616,22.4739086 60.9600663,21.8161356 C61.291371,21.1583627 60.7391965,21.0487339 60.4078917,21.2679915 C60.1870219,21.3776203 60.076587,21.7065068 59.1931078,22.4739086 C58.3096286,23.2413103 57.5365843,23.2413103 56.8739749,23.460568 C56.2113654,23.5701968 56.6531051,24.0087121 56.9844098,24.0087121 C57.3157145,24.0087121 58.0887588,24.0087121 58.8618031,23.7894544 C58.1991937,25.2146291 56.2113654,29.9286685 55.8800607,30.6960702 C55.548756,31.463472 54.9965815,32.8886467 53.340058,34.6427078 C50.9104901,37.3834284 49.2539666,37.2737996 49.2539666,37.2737996 C49.2539666,37.2737996 47.3765732,37.2737996 48.1496176,34.3138214 C49.1435317,30.4768126 52.3461439,29.0516379 53.2296231,28.9420091 C53.7817976,28.8323803 54.1131023,29.1612667 54.2235372,29.599782 C54.444407,30.0382973 55.1070164,30.3671838 55.4383211,29.599782 C55.8800607,28.6131226 55.548756,28.2842362 54.6652768,27.8457209 C53.4504929,27.4072056 51.1313599,28.6131226 50.4687505,29.0516379 C49.8061411,29.4901532 47.4870081,31.0249567 46.6035289,34.3138214 C46.2722242,35.3004808 45.9409195,38.5893454 48.812227,38.4797166 C51.5730995,38.3700878 54.1131023,34.7523367 54.7757117,33.8753061 C54.5548419,34.4234502 53.6713627,36.396769 53.2296231,37.602686 C52.6774486,38.6989743 53.0087533,38.4797166 53.7817976,38.4797166 C54.444407,38.4797166 54.3339721,38.5893454 55.2174513,36.7256555 C56.1009305,34.7523367 57.0948447,33.4367908 59.6348474,30.9153279 C62.1748502,28.393865 62.0644153,30.257555 61.7331106,31.6827296 C61.291371,33.1079043 60.7391965,36.6160266 57.0948447,42.4263542 C54.8861466,41.4396948 52.125274,40.4530354 48.9226619,40.4530354 C42.1861328,40.4530354 39.5356951,44.399673 39.5356951,46.4826207 C39.5356951,48.5655683 40.6400442,50.5388871 45.388745,50.5388871 C51.7939693,50.5388871 55.4383211,45.9344765 56.9844098,44.0707866 C57.0948447,43.9611577 57.2052796,43.8515289 57.3157145,43.7419001 C57.5365843,43.8515289 57.7574541,43.9611577 57.867889,44.0707866 C60.076587,45.2767036 69.7948585,51.9640618 76.9731271,51.9640618 C82.826177,51.9640618 85.6974845,48.2366818 85.6974845,45.7152189 C85.5870495,43.6322713 84.1513958,42.7552407 83.930526,42.6456119 M45.7200497,49.4425989 C44.5052658,49.4425989 40.6400442,49.33297 40.6400442,46.3729918 C40.6400442,43.4130136 44.8365705,41.2204372 48.7017921,41.2204372 C51.7939693,41.2204372 54.444407,42.2070966 56.4322353,43.193756 C52.5670137,48.6751971 47.3765732,49.4425989 45.7200497,49.4425989" id="Shape" fill-rule="nonzero"></path>
                <path d="M110.103598,17.5406116 C110.103598,17.5406116 109.440989,18.3080133 108.999249,18.3080133 C108.557509,18.3080133 108.557509,17.7598692 108.778379,16.5539522 C108.888814,16.1154369 109.220119,15.1287775 109.551423,14.2517469 C109.993163,13.3747163 110.987077,10.8532534 111.318382,10.1954805 C111.539252,9.64733636 111.207947,9.64733636 111.207947,9.64733636 C111.097512,9.64733636 110.876642,9.64733636 110.434903,9.64733636 C109.882728,9.64733636 109.882728,9.86659401 109.772293,10.1954805 C109.109684,12.1687993 107.67403,13.9228604 107.563595,14.2517469 C107.342725,14.5806334 104.692288,18.0887557 103.698374,18.0887557 C102.48359,18.0887557 103.477504,15.8961792 104.250548,13.9228604 C105.134027,11.9495416 105.354897,10.9628822 105.354897,10.5243669 C105.354897,10.0858517 105.244462,9.64733636 104.471418,9.64733636 C103.146199,9.64733636 101.60011,11.5110263 101.268806,11.8399128 C100.937501,12.2784281 101.268806,12.3880569 101.489676,12.1687993 C101.710545,11.9495416 102.152285,11.2917687 102.704459,11.1821399 C103.587939,11.0725111 102.814894,13.2650875 102.26272,14.6902622 C101.379241,16.8828386 100.164457,19.9524457 101.82098,19.9524457 C103.477504,19.9524457 106.127941,16.663581 107.011421,15.6769216 C107.8949,14.6902622 107.563595,15.6769216 107.45316,15.8961792 C107.342725,16.3346945 106.569681,17.6502404 106.569681,18.9657863 C106.569681,19.2946727 106.680116,19.9524457 107.23229,19.9524457 C108.447074,19.9524457 109.551423,18.7465286 110.214033,18.0887557 C110.876642,17.4309827 110.766207,17.2117251 110.766207,16.9924675 C110.545338,16.9924675 110.103598,17.5406116 110.103598,17.5406116" id="Path"></path>
                <path d="M102.814894,28.6131226 C102.594025,28.6131226 102.594025,29.1612667 102.594025,29.9286685 C102.594025,30.8056991 102.26272,32.2308738 101.60011,33.7656773 C100.937501,35.3004808 99.3914124,37.1641708 97.2931492,37.2737996 C95.1948861,37.3834284 95.8574955,34.6427078 96.1888002,33.9849349 C96.40967,33.327162 97.514019,31.3538432 97.9557586,30.4768126 C98.3974983,29.4901532 97.8453237,29.2708956 97.7348888,29.1612667 C97.6244539,29.0516379 96.5201049,28.6131226 96.5201049,28.6131226 C96.5201049,26.6398038 95.7470606,26.4205462 95.305321,26.4205462 C94.8635814,26.4205462 94.5322767,26.8590615 94.5322767,27.5168344 C94.5322767,28.1746073 95.0844512,28.8323803 95.5261908,29.2708956 C94.9740163,32.1212449 92.1027088,35.5197384 92.1027088,35.5197384 C91.7714041,35.8486249 90.4461853,37.1641708 88.9000966,37.2737996 C86.249659,37.3834284 86.4705288,34.6427078 86.6913986,33.327162 C88.1270523,33.2175332 89.8940108,32.9982755 91.7714041,31.3538432 C93.6487974,29.7094108 93.2070578,28.7227514 92.8757531,28.393865 C92.4340135,27.9553497 90.9983598,27.6264632 88.7896617,29.1612667 C86.3600939,30.8056991 85.2557448,33.1079043 85.034875,34.8619655 C84.8140052,36.0678825 85.2557448,38.4797166 87.7957476,38.4797166 C90.3357504,38.4797166 92.3235786,36.2871402 92.5444484,35.9582537 C94.8635814,33.327162 96.0783653,29.599782 96.0783653,29.599782 C96.0783653,29.599782 96.1888002,29.599782 96.5201049,29.8190397 C96.9618445,30.0382973 96.7409747,30.4768126 96.6305398,30.5864414 C96.5201049,30.6960702 96.0783653,31.7923585 95.1948861,33.6560484 C94.3114069,35.5197384 93.5383625,38.5893454 96.40967,38.6989743 C99.2809775,38.6989743 101.268806,36.1775114 102.152285,34.3138214 C103.035764,32.4501314 103.146199,30.8056991 103.146199,30.0382973 C103.146199,29.1612667 103.035764,28.6131226 102.814894,28.6131226 M88.7896617,29.599782 C89.8940108,28.8323803 90.8879249,28.9420091 91.1087947,29.2708956 C91.3296645,29.4901532 91.7714041,30.9153279 89.6731409,32.0116161 C87.5748778,33.1079043 87.0227033,32.3405026 87.0227033,32.3405026 C87.0227033,32.3405026 87.7957476,30.3671838 88.7896617,29.599782" id="Shape" fill-rule="nonzero"></path>
                <path d="M83.0470468,29.8190397 C83.1574817,29.599782 83.2679166,29.2708956 83.3783515,28.9420091 C84.1513958,28.9420091 84.9244401,29.0516379 85.2557448,29.0516379 C85.9183543,29.0516379 85.9183543,28.7227514 86.1392241,28.393865 C86.3600939,27.9553497 85.9183543,28.0649785 85.8079194,28.0649785 C85.6974845,28.0649785 85.1453099,28.1746073 84.3722656,28.1746073 C84.2618307,28.1746073 84.0409609,28.1746073 83.7096562,28.1746073 C84.1513958,26.8590615 84.8140052,25.4338868 84.9244401,25.1050003 C85.034875,24.5568562 84.7035703,24.666485 84.3722656,24.666485 C83.5992213,24.7761138 83.3783515,25.2146291 83.3783515,25.324258 C83.3783515,25.4338868 83.0470468,25.9820309 82.826177,26.6398038 C82.7157421,26.8590615 82.6053072,27.4072056 82.2740025,28.0649785 C81.6113931,28.0649785 81.1696534,27.9553497 81.1696534,27.9553497 C79.9548695,27.736092 80.1757393,28.0649785 79.9548695,28.393865 C79.7339997,28.8323803 80.3966091,28.8323803 80.8383487,28.8323803 C80.9487836,28.8323803 81.3905232,28.8323803 81.9426978,28.8323803 C81.3905232,30.257555 80.8383487,31.7923585 80.8383487,31.7923585 C80.1757393,33.7656773 78.6296507,38.4797166 80.9487836,38.4797166 C83.1574817,38.4797166 84.1513958,36.6160266 84.3722656,36.1775114 C84.5931354,35.7389961 84.3722656,35.6293672 84.0409609,35.8486249 C83.7096562,36.1775114 82.9366119,36.9449131 81.9426978,37.0545419 C80.6174789,37.2737996 81.6113931,34.4234502 81.721828,33.8753061 C81.8322629,33.4367908 82.6053072,31.0249567 83.0470468,29.8190397" id="Path"></path>
                <path d="M74.9852989,34.9715943 C75.0957338,34.8619655 75.5374734,34.4234502 75.5374734,33.7656773 C75.5374734,32.7790179 74.7644291,32.3405026 73.8809499,32.3405026 C71.7826867,32.3405026 70.7887726,34.2041926 70.7887726,35.5197384 C70.7887726,36.9449131 71.451382,38.3700878 74.1018197,38.3700878 C76.2000828,38.3700878 78.9609554,36.9449131 78.9609554,34.533079 C78.9609554,32.5597602 77.7461715,31.7923585 76.8626922,30.9153279 C77.7461715,30.1479261 78.1879111,29.4901532 78.1879111,28.8323803 C78.298346,27.5168344 77.3044319,25.9820309 75.8687781,27.0783191 C75.3166036,27.5168344 74.4331244,28.2842362 74.2122546,29.2708956 C73.9913848,30.6960702 74.4331244,31.0249567 75.5374734,32.1212449 C76.3105177,32.8886467 77.6357366,33.9849349 77.6357366,35.3004808 C77.6357366,36.0678825 77.3044319,36.7256555 76.6418224,37.1641708 C75.979213,37.602686 75.4270385,37.7123149 74.5435593,37.7123149 C73.5496452,37.7123149 72.555731,36.9449131 72.3348612,35.7389961 C72.2244263,34.9715943 72.4452961,32.9982755 73.6600801,32.9982755 C74.6539942,32.9982755 74.6539942,34.0945637 74.5435593,34.6427078 C74.5435593,34.9715943 74.874864,35.0812231 74.9852989,34.9715943 M75.5374734,29.1612667 C75.5374734,28.2842362 75.7583432,27.8457209 75.8687781,27.736092 C76.2000828,27.5168344 76.8626922,28.2842362 76.8626922,29.0516379 C76.8626922,29.8190397 76.7522573,30.0382973 76.2000828,30.5864414 C76.4209526,30.5864414 75.5374734,30.0382973 75.5374734,29.1612667" id="Shape" fill-rule="nonzero"></path>
                <path d="M117.171432,12.8265722 C118.054911,12.0591705 118.496651,11.4013975 118.496651,10.7436246 C118.607085,9.42807872 117.613171,7.89327521 116.177518,8.98956343 C115.625343,9.42807872 114.741864,10.1954805 114.520994,11.1821399 C114.300124,12.6073146 114.741864,12.936201 115.846213,14.0324893 C116.619257,14.799891 117.944476,15.8961792 117.944476,17.2117251 C117.944476,17.9791269 117.613171,18.6368998 116.950562,19.0754151 C116.287952,19.5139304 115.735778,19.6235592 114.852299,19.6235592 C113.858385,19.6235592 112.864471,18.8561574 112.643601,17.6502404 C112.533166,16.8828386 112.754036,14.9095198 113.96882,14.9095198 C114.962734,14.9095198 114.962734,16.0058081 114.852299,16.5539522 C114.741864,16.9924675 115.073169,17.1020963 115.183603,16.8828386 C115.294038,16.7732098 115.735778,16.3346945 115.735778,15.6769216 C115.735778,14.6902622 114.962734,14.2517469 114.079254,14.2517469 C111.980991,14.2517469 110.987077,16.1154369 110.987077,17.4309827 C110.987077,18.8561574 111.649687,20.2813321 114.300124,20.2813321 C116.398387,20.2813321 119.15926,18.8561574 119.15926,16.4443233 C119.269695,14.5806334 118.054911,13.8132316 117.171432,12.8265722 M115.846213,11.0725111 C115.846213,10.1954805 116.067083,9.75696518 116.177518,9.64733636 C116.508822,9.42807872 117.171432,10.1954805 117.171432,10.9628822 C117.171432,11.730284 117.060997,11.9495416 116.508822,12.4976857 C116.619257,12.4976857 115.846213,11.9495416 115.846213,11.0725111" id="Shape" fill-rule="nonzero"></path>
            </g>
        </g>
    </g>
</svg>