<?xml version="1.0" encoding="UTF-8"?>
<svg width="120px" height="48px" viewBox="0 0 120 48" version="1.1" xmlns="http://www.w3.org/2000/svg" xmlns:xlink="http://www.w3.org/1999/xlink">
    <!-- Generator: Sketch 52.6 (67491) - http://www.bohemiancoding.com/sketch -->
    <title>Group</title>
    <desc>Created with Sketch.</desc>
    <g id="Symbols" stroke="none" stroke-width="1" fill="none" fill-rule="evenodd">
        <g id="Icon-Footer-/-Partner-/-partner_wtcc" transform="translate(0.000000, -4.000000)">
            <g id="Group" transform="translate(0.000000, 4.000000)">
                <path d="M119.955516,0.227609564 C117.795559,0.887677299 117.082996,3.5507092 117.105264,3.52794824 L113.07483,21.5091038 L112.874422,22.465064 C112.829886,22.6471516 112.785351,22.8064783 112.740816,22.965805 L112.718548,23.0796098 L112.696281,23.0796098 C112.072788,24.8322034 110.447254,26.0385341 108.576776,26.0385341 L42.5088323,26.0385341 C44.6687886,25.3557054 45.359084,22.7154345 45.359084,22.7154345 L50.3692921,0.227609564 L114.27728,0.227609564 L117.394743,0.227609564 L119.955516,0.227609564 Z M17.1905807,0.273131477 L12.536654,21.9643229 L16.7229613,21.9643229 C16.7229613,21.9643229 18.7715797,12.9737451 20.441649,6.07717536 C22.0894508,-0.81939443 32.8446975,0.136565738 32.8446975,0.136565738 L27.968095,22.0781277 L32.0430642,22.0781277 L35.5168085,6.73724309 C37.2536807,-1.04700399 48.2984061,0.204848608 48.2984061,0.204848608 L43.4218035,22.1919325 C42.5533674,26.1523389 39.2354963,26.0385341 39.2354963,26.0385341 L0.400816648,26.0385341 L4.87660255,6.4185897 C6.56893951,-0.81939443 17.1905807,0.273131477 17.1905807,0.273131477 Z M73.705728,8.03461761 L74.6409669,3.48242633 L53.5980928,3.48242633 L52.6405864,8.03461761 L59.588075,8.03461761 L56.5596825,22.5561078 L63.729847,22.5561078 L66.7582395,8.03461761 L73.705728,8.03461761 Z M67.4039996,8.83125108 L65.2885784,19.0509205 C65.4667191,19.4606177 65.6893951,19.824793 65.9343386,20.1434464 C68.0052246,22.7381954 72.4142077,22.7381954 74.5296289,22.7381954 C78.3373871,22.7381954 81.1653712,22.1008887 83.1249192,20.8035141 C84.7504534,19.7337492 85.9306358,18.1632432 86.9326774,15.7505818 L79.7179777,15.7505818 C78.7382037,17.7763069 77.2685427,18.7322671 75.0863187,18.7322671 C73.7947984,18.7322671 72.8595595,18.3680918 72.2806022,17.6397412 C71.5903068,16.7748249 71.4344337,15.4319284 71.8129827,13.6338129 C72.5032781,10.2879523 74.3960234,8.60364152 77.4466834,8.60364152 C78.5155278,8.60364152 79.3171611,8.89953395 79.8515833,9.46855786 C80.4750758,10.1286256 80.5864138,11.0390638 80.5641462,11.6308487 L87.7788459,11.6308487 C87.9124514,9.62788455 87.4670996,8.05737856 86.4427904,6.91933074 C84.5723127,4.84808371 81.1431036,4.57495223 78.3596546,4.57495223 C77.5357538,4.57495223 76.4223742,4.57495223 75.1976566,4.71151797 L74.3514882,8.83125108 L67.4039996,8.83125108 Z" id="Path-2" fill="#676766"></path>
                <path d="M109.868297,22.7154345 L101.584753,22.7154345 L101.51795,22.419542 C101.384344,21.918801 101.473415,21.3270161 101.696091,19.8930759 C101.740626,19.6199444 101.785161,19.324052 101.829696,19.0053986 C101.941034,18.3453309 101.896499,17.8901117 101.696091,17.6625022 C101.562485,17.4804145 101.295274,17.4121316 100.916725,17.4121316 L96.4854742,17.4121316 L95.3720946,22.7381954 L87.8901838,22.7381954 L91.6534068,4.6432351 L106.038271,4.6432351 C108.086889,4.6432351 109.222537,4.82532275 110.090973,5.3260638 C111.449296,6.07717536 112.117323,7.98909569 111.716507,9.94653794 C111.538366,10.8342152 110.892606,12.9282232 108.799452,13.9069444 C109.489748,14.4759683 109.801494,15.4319284 109.645621,16.5927372 L109.133466,20.371056 C109.066663,21.0083627 109.200269,21.6456695 109.489748,22.1464106 L109.868297,22.7154345 Z M97.5543186,12.2226336 L101.807429,12.2226336 C102.898541,12.2226336 103.410695,11.8356973 103.611103,10.9024981 C103.700174,10.5155619 103.677906,10.2424304 103.544301,10.0603427 C103.388428,9.85549412 102.987611,9.74168934 102.386386,9.74168934 L98.0442056,9.74168934 L97.5543186,12.2226336 Z" id="Shape" fill="#BBBBBB" fill-rule="nonzero"></path>
                <path d="M9.41919122,35.7347015 C9.10744494,35.7574625 8.79569866,35.7802234 8.48395238,35.7802234 L8.48395238,38.8984745 L9.55279677,38.8984745 L9.55279677,37.6466219 L11.7350207,37.6466219 C11.7127532,37.4872952 11.6904856,37.3052075 11.6459504,37.1458808 C11.4455421,37.2369247 11.2228661,37.3052075 10.9779226,37.3052075 C10.1094866,37.3279685 9.41919122,36.5996179 9.41919122,35.7347015 Z M9.44145882,35.4388091 C9.55279677,34.8242633 9.9981486,34.3462832 10.577106,34.1869565 C10.0426838,33.1627135 9.33012086,32.2295142 8.48395238,31.4328808 L8.48395238,35.507092 C8.79569866,35.507092 9.12971253,35.484331 9.44145882,35.4388091 Z M10.7107115,43.6327534 L9.53052918,43.6327534 L9.53052918,42.6767932 C9.17424772,42.6312713 8.81796625,42.5857494 8.46168479,42.5857494 L8.46168479,46.6599606 C9.39692363,45.7950443 10.1540217,44.7480403 10.7107115,43.6327534 Z M9.53052918,42.3809008 L9.53052918,39.1716059 L8.46168479,39.1716059 L8.46168479,42.289857 C8.84023384,42.3126179 9.19651531,42.3353789 9.53052918,42.3809008 Z M5.98998213,34.3918051 L7.88272741,34.3918051 L7.88272741,35.484331 C7.99406536,35.484331 8.10540332,35.484331 8.19447369,35.484331 L8.19447369,31.4101198 C7.28150244,32.2977971 6.54667191,33.2992792 5.98998213,34.3918051 Z M7.88272741,35.7802234 L7.88272741,36.8727494 L5.14381365,36.8727494 L5.12154606,38.0563191 L7.59324872,38.07908 L7.59324872,38.8984745 L8.21674128,38.8984745 L8.21674128,35.7802234 C8.10540332,35.7802234 7.99406536,35.7802234 7.88272741,35.7802234 Z M7.57098113,39.1716059 L7.57098113,40.3551757 L5.14381365,40.3551757 L5.12154606,41.2883749 C5.23288401,41.766355 5.38875715,42.2443351 5.56689789,42.7223151 C6.41306636,42.4491837 7.30377003,42.289857 8.21674128,42.289857 L8.21674128,39.1716059 L7.57098113,39.1716059 Z M5.12154606,42.3126179 L5.12154606,42.9044028 L5.29968679,42.8361199 C5.23288401,42.6767932 5.16608124,42.4947056 5.12154606,42.3126179 Z M8.19447369,42.5857494 C7.32603762,42.6085104 6.47986914,42.7450761 5.65596825,42.9954466 C6.23492563,44.361104 7.1033617,45.6129566 8.19447369,46.6599606 L8.19447369,42.5857494 Z M17.6359325,38.2156458 C17.5913973,38.3749725 17.3687214,39.3081717 17.1237779,40.3324147 C17.1015103,40.3779366 17.1015103,40.4006976 17.1015103,40.4006976 L17.1905807,40.4234585 L18.1480871,40.4234585 C18.1703547,40.4234585 18.2148899,40.4462195 18.2148899,40.4462195 C18.1926223,40.4006976 18.1703547,40.3779366 18.1703547,40.3324147 L17.6804677,38.2156458 C17.6582001,38.1701239 17.6582001,38.0335581 17.6582001,38.0335581 C17.6582001,38.0335581 17.6359325,38.1701239 17.6359325,38.2156458 Z M2.53850544,33.6634545 C1.29152031,35.0518728 0.534422197,36.8955103 0.489887014,38.8984745 L1.98181565,38.8984745 L1.98181565,34.3918051 L3.54054706,34.3918051 C3.20653318,34.1869565 2.87251931,33.936586 2.53850544,33.6634545 Z M8.19447369,31.0459445 C6.0567849,31.0914664 4.11950444,32.0019047 2.71664617,33.4586059 C3.13973041,33.8227812 3.60734983,34.1414346 4.09723684,34.3918051 L5.67823584,34.3918051 C6.30172841,33.1399525 7.14789689,32.0019047 8.19447369,31.0459445 Z M13.9172447,33.4586059 C12.536654,32.0019047 10.5993736,31.0914664 8.48395238,31.0459445 C9.46372641,31.9336218 10.2653597,32.9806258 10.8665847,34.1414346 L10.9779226,34.1414346 C11.4232745,34.1414346 11.8240911,34.3235222 12.1135698,34.6421756 C12.75933,34.3235222 13.3605549,33.913825 13.9172447,33.4586059 Z M15.4759761,35.8029844 C15.1196947,35.0063509 14.6743428,34.2780003 14.0953854,33.6406935 C13.5386957,34.1186736 12.9152031,34.5056099 12.2694429,34.8242633 C12.4253161,35.0746338 12.5143864,35.3705262 12.5143864,35.6891796 C12.5143864,36.2126816 12.2694429,36.6906617 11.8686263,36.9865541 C11.9131615,37.2141637 11.9576967,37.4190123 11.9799643,37.6466219 L12.3585133,37.6466219 L12.3585133,38.8984745 L14.5184697,38.8984745 L15.4759761,35.8029844 Z M14.117653,44.4293869 C14.340329,44.1790164 14.5630049,43.9058849 14.7411456,43.6327534 L13.1156114,43.6327534 L14.4739345,39.1716059 L12.3807809,39.1716059 L12.3807809,43.2685781 C12.9820059,43.5872315 13.5609633,43.9741677 14.117653,44.4293869 Z M8.48395238,47.0468969 C10.6216412,47.0013749 12.536654,46.0909367 13.9395123,44.6342355 C13.4496253,44.2245383 12.9374707,43.8831239 12.4030485,43.5872315 L11.0447254,43.6327534 C10.3989653,44.907367 9.55279677,46.0681757 8.48395238,47.0468969 Z M2.73891376,44.6342355 C4.11950444,46.0909367 6.03451731,47.0013749 8.14993851,47.0468969 C6.96975615,45.908849 6.01224972,44.5659526 5.41102475,43.1092514 C5.29968679,43.1547733 5.21061642,43.1775343 5.12154606,43.2230562 L5.12154606,43.6555144 L4.2085748,43.6555144 C3.6741526,43.9058849 3.18426559,44.2472992 2.73891376,44.6342355 Z M0.512154606,39.1716059 C0.534422197,41.1973311 1.3137879,43.0409685 2.53850544,44.4293869 C2.8947869,44.1334944 3.25106837,43.860363 3.65188501,43.6327534 L2.00408324,43.6327534 L2.00408324,39.1716059 L0.512154606,39.1716059 Z M15.3423706,43.6327534 C15.1196947,43.9741677 14.8970187,44.2928211 14.6298076,44.5887136 C15.1419623,44.7480403 15.698652,44.8163231 16.2330742,44.8163231 C17.5245945,44.8163231 18.7270445,44.361104 19.6845509,43.6099924 L18.8829176,43.6099924 C18.8829176,43.6099924 18.7938473,43.1547733 18.6379741,42.5629885 C18.6157065,42.4947056 18.6379741,42.4947056 18.6379741,42.4719446 L18.5489038,42.4491837 L16.6561585,42.4491837 C16.5670881,42.4491837 16.5448205,42.4264227 16.5448205,42.4264227 C16.5670881,42.4719446 16.5893557,42.4947056 16.5670881,42.5629885 L16.299877,43.6099924 L15.3423706,43.6099924 L15.3423706,43.6327534 Z M14.6298076,33.4813669 C15.0528919,33.9593469 15.4091733,34.5056099 15.698652,35.0746338 L15.8767928,34.460088 L19.5954806,34.460088 L21.4659582,41.2656139 C21.7554369,40.5827852 21.9113101,39.8089127 21.9113101,39.0350402 C21.9113101,37.4872952 21.3100851,36.030594 20.2412407,34.9380681 C19.1723963,33.8455422 17.7472705,33.2537573 16.2330742,33.2537573 C15.698652,33.2537573 15.1419623,33.3448011 14.6298076,33.4813669 Z M12.75933,31.842578 C13.3828225,32.2295142 13.9395123,32.7074943 14.4293993,33.2537573 C15.0083567,33.0716696 15.6318493,32.9578649 16.2330742,32.9578649 C17.8140732,32.9578649 19.3060019,33.5951716 20.441649,34.7332195 C21.5550286,35.8712673 22.1785212,37.3962513 22.1785212,39.0350402 C22.1785212,39.9682394 21.9781129,40.8786777 21.5772962,41.6980721 L22.1117184,43.6327534 L20.1299028,43.6327534 C19.0387908,44.5887136 17.6804677,45.1122156 16.2330742,45.1122156 C15.6095817,45.1122156 15.0083567,45.0211717 14.4293993,44.8163231 C13.9395123,45.3625861 13.3605549,45.8405662 12.75933,46.2502634 C13.0710762,46.4095901 13.4050901,46.5461558 13.739104,46.6371996 L13.9395123,46.0226538 L14.8524836,46.2502634 L14.7634132,46.9103311 C15.0751595,46.955853 15.4091733,47.0013749 15.7209196,47.0241359 L15.7654548,46.3868291 L16.7006937,46.3640682 L16.789764,47.0013749 C17.1237779,46.978614 17.4355242,46.9330921 17.7472705,46.8648092 L17.6359325,46.2502634 L18.5489038,45.9771319 L18.7938473,46.5689168 C19.1055935,46.455112 19.3950722,46.3185463 19.6845509,46.1819805 L19.4173398,45.6129566 L20.2189731,45.1122156 L20.5975222,45.6129566 C20.8647333,45.430869 21.1096768,45.2260203 21.3546203,44.9984108 L20.9538036,44.5204307 L21.5995638,43.837602 L22.0894508,44.2245383 C22.2898591,43.9741677 22.4902675,43.7010363 22.6684082,43.4279048 L22.1785212,43.0864904 L22.623873,42.2443351 L23.1805628,42.4947056 C23.3141683,42.1988131 23.4477739,41.9029207 23.5368443,41.5842673 L22.9801545,41.3794187 L23.2028304,40.4462195 L23.8040554,40.5372633 C23.8708581,40.2413709 23.8931257,39.9227175 23.9153933,39.6040641 L23.3141683,39.5357813 L23.3141683,38.5798211 L23.9153933,38.5115382 C23.8931257,38.1701239 23.8485905,37.8514705 23.8040554,37.5328171 L23.2028304,37.6238609 L22.9578869,36.6906617 L23.5368443,36.4630521 C23.4255063,36.1443987 23.3141683,35.8485063 23.1805628,35.5526139 L22.623873,35.8029844 L22.1562536,34.98359 L22.6461406,34.6194147 C22.4679999,34.3462832 22.2675915,34.0731517 22.0671832,33.8227812 L21.5995638,34.2097175 L20.9315361,33.5268888 L21.3323527,33.0261477 C21.0874092,32.7985382 20.8424657,32.5936896 20.5752546,32.4116019 L20.2189731,32.9123429 L19.3950722,32.4343629 L19.6400157,31.842578 C19.3505371,31.6832513 19.0610584,31.5694465 18.7493121,31.4556417 L18.5266362,32.0474266 L17.6136649,31.7970561 L17.7250029,31.1597493 C17.4132566,31.0914664 17.0792427,31.0459445 16.7674964,31.0231836 L16.7006937,31.6604903 L15.7654548,31.6604903 L15.698652,31.0004226 C15.3646382,31.0231836 15.0528919,31.0459445 14.7411456,31.1142274 L14.8524836,31.7515342 L13.9395123,32.0019047 L13.7168364,31.3873589 C13.3828225,31.5466856 13.0710762,31.6832513 12.75933,31.842578 Z M7.46069873e-14,39.0350402 C7.46069873e-14,34.3462832 3.71868779,30.5224425 8.32807924,30.5224425 C9.7532051,30.5224425 11.0892606,30.8866178 12.2471753,31.5239246 C13.4050901,30.8866178 14.7411456,30.5224425 16.1662715,30.5224425 C20.7533953,30.5224425 24.4720831,34.3235222 24.4720831,39.0122793 C24.4720831,43.7010363 20.7533953,47.502116 16.1662715,47.502116 C14.7634132,47.502116 13.4273577,47.1379407 12.2694429,46.5233949 C11.0892606,47.1607016 9.7532051,47.5476379 8.32807924,47.5476379 C3.71868779,47.5476379 7.46069873e-14,43.7465582 7.46069873e-14,39.0350402 Z" id="Shape" fill="#676766" fill-rule="nonzero"></path>
                <path d="M35.3386678,37.3507294 L33.4013873,37.3507294 L34.2698234,31.0004226 L36.2293714,31.0004226 L35.3386678,37.3507294 Z M33.0451059,32.5026457 L30.9742198,32.5026457 C30.8183467,32.5026457 30.6847411,32.5254067 30.6179384,32.5936896 C30.5511356,32.6392115 30.5066004,32.7530162 30.4843328,32.889582 L30.3952625,33.5951716 L32.5552188,33.5951716 L32.3993457,34.9153071 L30.2171217,34.9153071 L29.8831079,37.3734904 L27.9235598,37.3734904 L28.6138551,32.3888409 C28.6806579,31.9563828 28.8365311,31.6149684 29.1260097,31.3645979 C29.4154884,31.1142274 29.7717699,30.9776616 30.1948541,30.9776616 C31.6422476,30.9776616 32.6888244,31.0231836 33.2677818,31.1142274 L33.0451059,32.5026457 Z M40.2152703,34.5511318 L40.1039324,33.1854744 C40.0816648,33.0261477 40.0816648,32.7985382 40.1039324,32.4798848 L39.8589889,32.4798848 C39.8144537,32.7302553 39.7476509,32.9578649 39.6808481,33.1627135 L39.1686935,34.5511318 L40.2152703,34.5511318 Z M40.3266083,36.007833 L38.6342713,36.007833 L38.1443843,37.3507294 L36.1180335,37.3507294 L38.5229334,31.4784027 C38.6342713,31.1597493 38.8792148,31.0004226 39.2132287,31.0004226 L40.9723684,31.0004226 C41.1282416,31.0004226 41.2618471,31.0459445 41.3954527,31.1597493 C41.5067906,31.2735541 41.5735934,31.3873589 41.595861,31.5466856 L42.3974943,37.3507294 L40.4379462,37.3507294 L40.3266083,36.007833 Z M52.7519244,36.8499884 C52.662854,37.1914027 52.4401781,37.3507294 52.061629,37.3507294 L50.4138273,37.3507294 C50.2356865,37.3507294 50.102081,37.3052075 49.9684754,37.1914027 C49.8348699,37.077598 49.7903347,36.9410322 49.7903347,36.7817055 L49.8571375,33.390323 C49.8571375,33.2537573 49.8794051,32.9123429 49.9016727,32.4343629 L49.7457995,32.4343629 C49.7012643,32.7302553 49.6344616,33.0489087 49.5676588,33.3675621 L48.6769551,36.8727494 C48.5878848,37.2141637 48.3652088,37.3734904 47.9866598,37.3734904 L46.3165904,37.3734904 C46.1384497,37.3734904 46.0048441,37.3279685 45.8712386,37.2141637 C45.737633,37.1003589 45.6930979,36.9637932 45.7153654,36.8044665 L45.7153654,31.0231836 L47.6303783,31.0231836 L47.3854348,34.960829 C47.3854348,35.0746338 47.3631672,35.2794824 47.3408996,35.507092 C47.318632,35.7574625 47.318632,35.9167892 47.2963644,36.007833 L47.4522376,36.007833 C47.5190404,35.5753748 47.6081107,35.1884386 47.6971811,34.8697852 L48.5656172,31.5694465 C48.6546875,31.2052712 48.899631,31.0231836 49.2559125,31.0231836 L50.6142356,31.0231836 C50.7923763,31.0231836 50.9259819,31.0914664 51.0373198,31.2052712 C51.1486578,31.319076 51.2154606,31.4784027 51.2154606,31.6604903 L51.2154606,34.98359 C51.2154606,35.2339605 51.2154606,35.5981358 51.193193,36.030594 L51.3490661,36.030594 C51.3936013,35.6664187 51.4381365,35.3022434 51.5272068,34.9153071 L52.3511077,31.0459445 L54.3106558,31.0459445 L52.7519244,36.8499884 Z M58.4301602,32.6847334 C58.3633574,32.4571238 58.1629491,32.343319 57.8512028,32.343319 C57.5394566,32.343319 57.294513,32.4571238 57.1609075,32.7074943 C57.0273019,32.9351039 56.8936964,33.4586059 56.7823584,34.2552394 C56.6710205,34.98359 56.6487529,35.4615701 56.7155557,35.6664187 C56.7823584,35.8940282 56.9827668,35.9850721 57.294513,35.9850721 C57.6285269,35.9850721 57.8734704,35.8712673 58.007076,35.6208968 C58.1406815,35.3932872 58.2742871,34.8697852 58.385625,34.0731517 C58.496963,33.390323 58.496963,32.9123429 58.4301602,32.6847334 Z M57.8734704,30.8866178 C58.2965547,30.8866178 58.6528361,30.9093788 58.9645824,30.9776616 C59.2540611,31.0459445 59.5212722,31.1597493 59.7662157,31.319076 C60.0111592,31.4784027 60.1670324,31.6832513 60.2783703,31.9336218 C60.3897083,32.1839923 60.456511,32.5026457 60.5010462,32.889582 C60.5455814,33.2765182 60.5233138,33.7317374 60.4342435,34.2552394 C60.3451731,34.9153071 60.2338351,35.4388091 60.077962,35.8712673 C59.9220888,36.2809645 59.7216805,36.6223788 59.4544694,36.8499884 C59.1872583,37.1003589 58.8977796,37.2596856 58.5414982,37.3507294 C58.2074843,37.4417733 57.7621325,37.4872952 57.2722455,37.4872952 C56.5374149,37.4872952 55.9584576,37.3962513 55.5799085,37.1914027 C55.1790918,36.9865541 54.9118807,36.6451398 54.7782752,36.1671597 C54.6446697,35.6664187 54.6224021,35.0063509 54.7560076,34.1186736 C54.845078,33.4586059 54.9564159,32.9351039 55.1122891,32.5254067 C55.2681622,32.1157095 55.4685705,31.7742951 55.7357816,31.5466856 C56.0029927,31.296315 56.2924714,31.1369883 56.6264853,31.0459445 C56.9382316,30.9321397 57.3613158,30.8866178 57.8734704,30.8866178 Z M63.5517063,33.6179326 L64.219734,33.6179326 C64.4869451,33.6179326 64.6650858,33.5724107 64.7764238,33.4813669 C64.8877618,33.390323 64.9545645,33.1854744 64.9990997,32.889582 C65.0213673,32.6619724 64.9990997,32.5254067 64.9322969,32.4343629 C64.8654942,32.343319 64.709621,32.3205581 64.4869451,32.3205581 L63.729847,32.3205581 L63.5517063,33.6179326 Z M61.1245388,37.3507294 L61.9929749,31.0004226 C62.5941998,30.9321397 63.4403683,30.9093788 64.5092127,30.9093788 C65.422184,30.9093788 66.0679441,31.0687055 66.4687608,31.3645979 C66.8695774,31.6604903 67.0254506,32.1839923 66.9363802,32.9123429 C66.891845,33.3220402 66.7582395,33.6634545 66.5355635,33.8910641 C66.3351552,34.1414346 66.0011413,34.2780003 65.5335219,34.3462832 L65.5335219,34.4145661 C66.0234089,34.4828489 66.29062,34.8242633 66.3574228,35.4388091 L66.6023663,37.3507294 L64.5760155,37.3507294 L64.4201423,35.4388091 C64.4201423,35.2567214 64.3978747,35.1656776 64.331072,35.1201557 C64.2865368,35.0746338 64.1974664,35.0518728 64.0415933,35.0518728 L63.3512979,35.0518728 L63.0395517,37.3734904 L61.1245388,37.3734904 L61.1245388,37.3507294 Z M70.3210541,31.0004226 L69.6752939,35.3932872 C69.6530264,35.5298529 69.6752939,35.6208968 69.7198291,35.6891796 C69.7643643,35.7347015 69.8534347,35.7574625 69.9870402,35.7574625 L72.0356586,35.7574625 L71.9911235,37.2596856 C71.3898985,37.3279685 70.3878569,37.3734904 69.0072662,37.3734904 C68.5619144,37.3734904 68.2056329,37.2369247 67.9606894,36.9637932 C67.7157459,36.6906617 67.6044079,36.3264864 67.6712107,35.8940282 L68.3392385,31.0004226 L70.3210541,31.0004226 Z M74.9749807,35.9850721 L75.5984733,35.9850721 C75.9324872,35.9850721 76.1774307,35.8485063 76.3555714,35.5981358 C76.5337121,35.3477653 76.6673177,34.8470242 76.7563881,34.0959127 C76.8454584,33.390323 76.867726,32.9123429 76.8009232,32.6847334 C76.7341205,32.4571238 76.5337121,32.343319 76.1774307,32.343319 L75.4648677,32.343319 L74.9749807,35.9850721 Z M72.8372919,37.3507294 L73.705728,31.0004226 C74.4628261,30.9321397 75.3089946,30.9093788 76.2442335,30.9093788 C76.9567964,30.9093788 77.4912186,31.0004226 77.8920352,31.2052712 C78.2928519,31.4101198 78.5823306,31.7287732 78.7382037,32.2295142 C78.8940768,32.7302553 78.9163444,33.390323 78.8050065,34.2552394 C78.7159361,34.9153071 78.6045982,35.4388091 78.448725,35.8257454 C78.3151195,36.2354426 78.1147111,36.554096 77.8697676,36.8044665 C77.6248241,37.054837 77.3130778,37.2141637 76.979064,37.3052075 C76.6450501,37.3962513 76.1774307,37.4417733 75.6430085,37.4417733 C74.685502,37.4417733 73.7502632,37.4190123 72.8372919,37.3507294 Z M32.711092,41.9029207 L30.9742198,41.9029207 L30.3284597,46.7737654 L28.3689116,46.7737654 L29.0369394,41.9029207 L27.3223348,41.9029207 L27.5227431,40.4234585 L32.9115003,40.4234585 L32.711092,41.9029207 Z M36.9196668,42.1077693 C36.852864,41.8801598 36.6524557,41.766355 36.3407094,41.766355 C36.0066955,41.766355 35.7840196,41.8801598 35.6504141,42.1305303 C35.5168085,42.3581398 35.383203,42.8816418 35.271865,43.6782753 C35.160527,44.4066259 35.1382595,44.884606 35.2050622,45.0894546 C35.271865,45.3170642 35.4722733,45.408108 35.7840196,45.408108 C36.1180335,45.408108 36.362977,45.2943032 36.4965825,45.0439327 C36.6301881,44.8163231 36.7637936,44.2928211 36.8751316,43.4961877 C36.9864696,42.790598 36.9864696,42.3126179 36.9196668,42.1077693 Z M36.362977,40.2868928 C36.7860612,40.2868928 37.1423427,40.3096538 37.454089,40.3779366 C37.7435677,40.4462195 38.0107788,40.5600243 38.2557223,40.719351 C38.5006658,40.8786777 38.6565389,41.0835263 38.7678769,41.3338968 C38.8792148,41.5842673 38.9460176,41.9029207 38.9905528,42.289857 C39.035088,42.6767932 39.0128204,43.1320124 38.92375,43.6555144 C38.8346797,44.3155821 38.7233417,44.8390841 38.5674686,45.2715423 C38.4115954,45.6812395 38.2111871,46.0226538 37.943976,46.2502634 C37.6767649,46.5006339 37.3872862,46.6599606 37.0310047,46.7510044 C36.6969909,46.8420483 36.251639,46.8875702 35.761752,46.8875702 C35.0269215,46.8875702 34.4479641,46.7965263 34.0694151,46.5916777 C33.6685984,46.3868291 33.4013873,46.0454148 33.2677818,45.5674347 C33.1341762,45.0666937 33.1119086,44.4066259 33.2455142,43.5189486 C33.3345845,42.8588809 33.4459225,42.3353789 33.6017956,41.9256817 C33.7576688,41.5159845 33.9580771,41.1745701 34.2252882,40.9469605 C34.4924993,40.69659 34.781978,40.5372633 35.1159919,40.4462195 C35.4277381,40.3324147 35.8508224,40.2868928 36.362977,40.2868928 Z M45.9157738,40.4234585 L45.3813516,44.1790164 C45.247746,45.2032594 44.9582673,45.908849 44.5351831,46.2957853 C44.1120989,46.6827216 43.3995359,46.8875702 42.4197619,46.8875702 C41.4622555,46.8875702 40.7719601,46.6599606 40.3488759,46.2275024 C39.9480592,45.7950443 39.7921861,45.0894546 39.9257916,44.0879725 L40.4379462,40.4006976 L42.3752267,40.4006976 L41.8630721,44.1562554 C41.7962693,44.6342355 41.7740017,44.9756498 41.8630721,45.1349765 C41.9298749,45.2943032 42.1302832,45.385347 42.4642971,45.385347 C42.7983109,45.385347 43.0209869,45.2943032 43.1323248,45.1349765 C43.2436628,44.9756498 43.3550007,44.6114745 43.4440711,44.0879725 L43.9562257,40.4006976 L45.9157738,40.4006976 L45.9157738,40.4234585 Z M48.6769551,43.0409685 L49.3449829,43.0409685 C49.612194,43.0409685 49.7903347,42.9954466 49.9016727,42.9044028 C50.0130106,42.813359 50.0798134,42.6085104 50.1243486,42.3126179 C50.1466162,42.0850084 50.1243486,41.9484426 50.0575458,41.8573988 C49.990743,41.766355 49.8348699,41.743594 49.612194,41.743594 L48.8550958,41.743594 L48.6769551,43.0409685 Z M46.2720552,46.7737654 L47.1404913,40.4234585 C47.7417163,40.3551757 48.5656172,40.3324147 49.6344616,40.3324147 C50.5251652,40.3324147 51.193193,40.4917414 51.5940096,40.7876339 C51.9948263,41.0835263 52.1506994,41.6070283 52.061629,42.3353789 C52.0170938,42.7450761 51.8834883,43.0864904 51.68308,43.3141 C51.4826717,43.5644705 51.1486578,43.7010363 50.6810384,43.7693191 L50.6810384,43.837602 C51.1709254,43.9058849 51.4381365,44.2472992 51.5049392,44.861845 L51.7276152,46.7737654 L49.7235319,46.7737654 L49.5676588,44.861845 C49.5676588,44.6797574 49.5453912,44.5887136 49.4785884,44.5431917 C49.4340532,44.4976697 49.3449829,44.4749088 49.2113773,44.4749088 L48.521082,44.4749088 L48.2093357,46.7965263 L46.2720552,46.7965263 L46.2720552,46.7737654 Z M54.6001345,46.7737654 L52.662854,46.7737654 L53.5312901,40.4234585 L55.4908381,40.4234585 L54.6001345,46.7737654 Z M62.4160591,40.4234585 L61.6366934,46.1136976 C61.6144258,46.3413072 61.5253554,46.5006339 61.4140175,46.6144387 C61.3026795,46.7282435 61.1245388,46.7737654 60.9241305,46.7737654 L60.2783703,46.7737654 C60.1002296,46.7737654 59.966624,46.7282435 59.8775537,46.6371996 C59.7884833,46.5461558 59.6994129,46.3868291 59.588075,46.1592196 L58.5192306,43.9741677 C58.4078926,43.7465582 58.2965547,43.4051438 58.2074843,42.9271638 L58.1406815,42.9271638 C58.1629491,43.3596219 58.1406815,43.7693191 58.0961463,44.1107335 L57.7175973,46.7737654 L55.93619,46.7737654 L56.7155557,41.0835263 C56.7378233,40.8559167 56.8268936,40.69659 56.9382316,40.5827852 C57.0495695,40.4689805 57.2277103,40.4234585 57.4281186,40.4234585 L58.0738787,40.4234585 C58.1629491,40.4234585 58.2520195,40.4462195 58.3188223,40.4689805 C58.385625,40.4917414 58.4524278,40.5372633 58.496963,40.6055462 C58.5414982,40.6738291 58.5860334,40.7421119 58.6305685,40.7876339 C58.6528361,40.8331558 58.6973713,40.9241996 58.7641741,41.0380044 L59.8107509,43.1092514 C59.966624,43.4506657 60.1002296,43.8148411 60.1892999,44.2017773 L60.2561027,44.2017773 C60.2338351,43.837602 60.2338351,43.4734267 60.2783703,43.1320124 L60.6569194,40.4234585 L62.4160591,40.4234585 Z M66.7137043,43.1092514 L68.584182,43.1092514 L68.0720274,46.7510044 L66.6469015,46.7510044 L66.5800987,46.0226538 C66.0234089,46.5916777 65.422184,46.8875702 64.7541562,46.8875702 C63.3512979,46.8875702 62.8168757,45.7722833 63.128622,43.5189486 C63.2176924,42.8588809 63.3512979,42.3353789 63.5071711,41.9029207 C63.6630442,41.4704625 63.8857201,41.1518092 64.1751988,40.9241996 C64.4646775,40.6738291 64.7764238,40.5145024 65.1549729,40.4234585 C65.5112543,40.3324147 65.9788737,40.2868928 66.5355635,40.2868928 C67.3371968,40.2868928 68.0274922,40.3779366 68.6064496,40.5600243 L68.3837736,41.9939645 C67.49307,41.9712036 66.8250422,41.9712036 66.3796904,41.9712036 C65.9788737,41.9712036 65.7116626,42.0850084 65.5557895,42.3126179 C65.3999164,42.5402275 65.2663108,42.9954466 65.1549729,43.6555144 C65.0659025,44.2700602 65.0436349,44.7025184 65.1104377,44.884606 C65.1772405,45.0894546 65.3553812,45.1804984 65.6671275,45.1804984 C65.9566062,45.1804984 66.2238173,45.0894546 66.4687608,44.884606 L66.7137043,43.1092514 Z M76.2887686,45.1122156 L76.3555714,46.5689168 C75.7320788,46.7737654 75.0195159,46.8648092 74.195615,46.8648092 C73.1490382,46.8648092 72.4364753,46.6144387 72.0579262,46.1136976 C71.6793772,45.6129566 71.5680392,44.7480403 71.74618,43.4961877 C71.8352503,42.8361199 71.9465883,42.3126179 72.1024614,41.9029207 C72.236067,41.4932235 72.4364753,41.1745701 72.6814188,40.9241996 C72.9263623,40.6738291 73.2381086,40.5145024 73.5721225,40.4234585 C73.9061363,40.3324147 74.3514882,40.2868928 74.8859104,40.2868928 C75.6430085,40.2868928 76.3333038,40.3779366 76.9345288,40.5372633 L76.7118529,41.9712036 C75.8434168,41.9484426 75.1976566,41.9484426 74.79684,41.9484426 C74.5741641,41.9484426 74.3960234,41.9939645 74.2846854,42.0622474 C74.1733474,42.1305303 74.0842771,42.289857 73.9952067,42.5174665 C73.9061363,42.7450761 73.8393336,43.1320124 73.7725308,43.6327534 C73.6834604,44.2472992 73.6611928,44.6797574 73.7279956,44.861845 C73.7725308,45.0666937 73.9729391,45.1577375 74.2846854,45.1577375 C75.1085863,45.2032594 75.776614,45.1577375 76.2887686,45.1122156 Z M80.8313573,43.9741677 L80.7200194,42.6085104 C80.6977518,42.4491837 80.6977518,42.2215741 80.7200194,41.9029207 L80.4750758,41.9029207 C80.4305407,42.1532912 80.3637379,42.3809008 80.2969351,42.5857494 L79.7847805,43.9741677 L80.8313573,43.9741677 Z M80.9426953,45.430869 L79.2503583,45.430869 L78.7604713,46.7737654 L76.7341205,46.7737654 L79.1390204,40.9014386 C79.2503583,40.5827852 79.4953018,40.4234585 79.8293157,40.4234585 L81.5884554,40.4234585 C81.7443286,40.4234585 81.8779341,40.4689805 82.0115397,40.5827852 C82.1228776,40.69659 82.1896804,40.8103948 82.211948,40.9697215 L83.0135813,46.7737654 L81.0540332,46.7737654 L80.9426953,45.430869 Z M86.1533117,43.0409685 L86.8213394,43.0409685 C87.0885505,43.0409685 87.2666913,42.9954466 87.3780292,42.9044028 C87.4893672,42.813359 87.55617,42.6085104 87.6007051,42.3126179 C87.6229727,42.0850084 87.6007051,41.9484426 87.5339024,41.8573988 C87.4670996,41.766355 87.3112264,41.743594 87.0885505,41.743594 L86.3314524,41.743594 L86.1533117,43.0409685 Z M83.7261442,46.7737654 L84.5945803,40.4234585 C85.1958053,40.3551757 86.0197061,40.3324147 87.0885505,40.3324147 C88.0015218,40.3324147 88.6472819,40.4917414 89.0480986,40.7876339 C89.4489152,41.0835263 89.6047884,41.6070283 89.515718,42.3353789 C89.4711828,42.7450761 89.3375773,43.0864904 89.1149014,43.3141 C88.914493,43.5644705 88.5804792,43.7010363 88.1128597,43.7693191 L88.1128597,43.837602 C88.6027468,43.9058849 88.8699579,44.2472992 88.9367606,44.861845 L89.1594365,46.7737654 L87.1553533,46.7737654 L86.9994802,44.861845 C86.9994802,44.6797574 86.9772126,44.5887136 86.9104098,44.5431917 C86.8658746,44.4976697 86.7768043,44.4749088 86.6431987,44.4749088 L85.9529034,44.4749088 L85.6411571,46.7965263 L83.7261442,46.7965263 L83.7261442,46.7737654 Z M97.1757695,45.1122156 L97.2425723,46.5689168 C96.6190797,46.7737654 95.9065168,46.8648092 95.0826159,46.8648092 C94.0360391,46.8648092 93.3234762,46.6144387 92.9449271,46.1136976 C92.5663781,45.6129566 92.4550401,44.7480403 92.6331808,43.4961877 C92.7222512,42.8361199 92.8335892,42.3126179 92.9894623,41.9029207 C93.1230678,41.4932235 93.3234762,41.1745701 93.5684197,40.9241996 C93.8133632,40.6738291 94.1251095,40.5145024 94.4591233,40.4234585 C94.7931372,40.3324147 95.238489,40.2868928 95.7729112,40.2868928 C96.5300093,40.2868928 97.2203047,40.3779366 97.8215297,40.5372633 L97.5988537,41.9712036 C96.7304177,41.9484426 96.0846575,41.9484426 95.6838409,41.9484426 C95.461165,41.9484426 95.2830242,41.9939645 95.1716863,42.0622474 C95.0603483,42.1305303 94.9712779,42.289857 94.8822076,42.5174665 C94.8154048,42.7450761 94.7263344,43.1320124 94.6595317,43.6327534 C94.5704613,44.2472992 94.5481937,44.6797574 94.6149965,44.861845 C94.6817992,45.0439327 94.85994,45.1577375 95.1716863,45.1577375 C95.9955872,45.2032594 96.6636149,45.1577375 97.1757695,45.1122156 Z M104.435004,40.4234585 L103.900582,44.1790164 C103.766977,45.2032594 103.477498,45.908849 103.054414,46.2957853 C102.631329,46.6827216 101.918767,46.8875702 100.938992,46.8875702 C99.981486,46.8875702 99.2911907,46.6599606 98.8681065,46.2275024 C98.4672898,45.7950443 98.3114167,45.0894546 98.4450222,44.0879725 L98.9571768,40.4006976 L100.894457,40.4006976 L100.382303,44.1562554 C100.3155,44.6342355 100.293232,44.9756498 100.382303,45.1349765 C100.449105,45.2943032 100.649514,45.385347 100.983528,45.385347 C101.317542,45.385347 101.540217,45.2943032 101.651555,45.1349765 C101.762893,44.9756498 101.874231,44.6114745 101.963302,44.0879725 L102.475456,40.4006976 L104.435004,40.4006976 L104.435004,40.4234585 Z M107.240721,43.2230562 L107.886481,43.2230562 C108.131425,43.2230562 108.309565,43.1775343 108.376368,43.0864904 C108.443171,42.9954466 108.532241,42.7678371 108.576776,42.4036618 C108.621312,42.1305303 108.599044,41.9712036 108.532241,41.8573988 C108.465438,41.766355 108.331833,41.7208331 108.109157,41.7208331 L107.418862,41.7208331 L107.240721,43.2230562 Z M104.813553,46.7737654 L105.681989,40.4234585 C106.283214,40.3551757 107.107115,40.3324147 108.17596,40.3324147 C109.133466,40.3324147 109.801494,40.4917414 110.157775,40.8103948 C110.514057,41.1290482 110.625395,41.7208331 110.514057,42.5629885 C110.402719,43.3596219 110.180043,43.9058849 109.823761,44.2017773 C109.46748,44.4976697 108.888523,44.6342355 108.064622,44.6342355 C107.775143,44.6342355 107.441129,44.6114745 107.06258,44.5659526 L106.750834,46.7737654 L104.813553,46.7737654 Z" id="Path-3" fill="#676766"></path>
            </g>
        </g>
    </g>
</svg>