<?xml version="1.0" encoding="utf-8"?>
<!-- Generator: Adobe Illustrator 22.1.0, SVG Export Plug-In . SVG Version: 6.00 Build 0)  -->
<svg version="1.1" id="Layer_1" xmlns="http://www.w3.org/2000/svg" xmlns:xlink="http://www.w3.org/1999/xlink" x="0px" y="0px"
	 viewBox="0 0 60 56" style="enable-background:new 0 0 60 56;" xml:space="preserve">
<style type="text/css">
	.st0{fill:#666666;}
</style>
<title>Icon Footer / Partner / glo-footer-logo-rwc</title>
<desc>Created with Sketch.</desc>
<g id="Icon-Footer-_x2F_-Partner-_x2F_-glo-footer-logo-rwc">
	<path id="Fill-1" class="st0" d="M29.27004,19.45784c0.01375-0.00361,0.02749-0.007,0.04124-0.01083l2.82078,2.68147
		c0.74406-0.78842,1.20353-1.84927,1.20353-3.02004c0-2.43071-1.96743-4.40141-4.39409-4.40141
		c-2.42689,0-4.39409,1.9707-4.39409,4.40141c0,1.1789,0.4651,2.24675,1.2184,3.03675l2.82303-2.68305l0.00383,0.0009
		l-1.59494,3.58839c0.06738,0.03318,0.13385,0.06816,0.20303,0.09796l1.59967-3.59855v3.95179
		c0.0471,0.00158,0.09329,0.00722,0.14106,0.00722c0.02839,0,0.05589-0.00361,0.08428-0.00429v-4.00574
		c0.00518-0.00045,0.01036-0.0009,0.01555-0.00135l1.62604,3.65814c0.0694-0.02979,0.13565-0.06501,0.20325-0.09819
		L29.27004,19.45784z M30.66736,23.15661c-0.50543,0.21646-1.05976,0.33789-1.64159,0.34895v13.09543
		c-0.03741,0.01422-0.06895,0.02528-0.09014,0.03228c-0.02929-0.0097-0.07639-0.02551-0.1352-0.0483V23.50262
		c-0.56672-0.01783-1.10663-0.13994-1.59967-0.35324l-2.0321,4.57205c-0.02118-0.13565-0.04191-0.27447-0.06264-0.41441
		l1.89171-4.2556c-0.46262-0.22932-0.87904-0.53607-1.23192-0.90624l-1.12466,1.06943
		c-0.22218-2.64288-0.35446-5.78232-0.34747-9.51382c-0.02253-2.41513,0.15774-6.43283,0.2028-7.42597
		c0.87882-0.54171,3.83075-2.18942,8.58538-3.7017c0.38308,3.58884,0.58588,8.53196,0.51828,12.73023
		c-0.02952,2.86746-0.14602,5.50424-0.34679,7.89094l-1.12128-1.06582c-0.35964,0.38123-0.78621,0.69655-1.26144,0.92994
		l1.90952,4.296c-0.02073,0.13927-0.04214,0.27559-0.06355,0.41238L30.66736,23.15661z M31.60296,34.18947
		c0.01172-0.03047,0.02366-0.06071,0.0356-0.09141c0.07639-0.19931,0.1512-0.40538,0.22421-0.61733
		c0.00406-0.01173,0.00811-0.02393,0.01217-0.03566c1.36848-3.99784,2.11773-10.19615,2.1984-18.09657
		c0.09014-4.92055-0.2028-10.06681-0.63095-13.36223V1.94113c-6.12919,1.85085-9.4642,4.06284-9.4642,4.06284l0.02254,0.02257
		c-0.02254,0.20314-0.22534,4.94312-0.2028,7.69682c-0.00721,3.91522,0.14196,7.18716,0.38871,9.92303c0,0.00045,0,0.00068,0,0.0009
		c0.05656,0.6259,0.11808,1.22314,0.18433,1.79397c0.00113,0.01016,0.00225,0.02032,0.00338,0.03024
		c0.02096,0.1808,0.04236,0.35843,0.06445,0.53404c0.00225,0.01896,0.00473,0.03792,0.00698,0.05665
		c0.11177,0.88863,0.23413,1.7091,0.36482,2.46479v0.00023c0.2197,1.27054,0.46194,2.36073,0.71319,3.29428
		c0.00338,0.01174,0.00654,0.02393,0.00969,0.03589c0.03087,0.11353,0.06174,0.22459,0.09284,0.33361
		c0.00721,0.02551,0.01442,0.05169,0.02186,0.07719c0.02839,0.09864,0.05679,0.19547,0.0854,0.29049
		c0.01014,0.03363,0.02028,0.06749,0.03042,0.10067c0.02659,0.08712,0.05318,0.17244,0.07977,0.25618
		c0.01262,0.03928,0.02501,0.07832,0.03741,0.11692c0.02479,0.07629,0.04957,0.15168,0.07436,0.22526
		c0.01487,0.04424,0.02974,0.08735,0.04462,0.13091c0.02276,0.06659,0.04574,0.13272,0.0685,0.19705
		c0.0169,0.04785,0.0338,0.0939,0.05093,0.1404c0.02096,0.05778,0.04191,0.11579,0.0631,0.17176
		c0.01938,0.05169,0.03876,0.10157,0.05814,0.15145c0.0187,0.0483,0.03718,0.09751,0.05589,0.14423
		c0.02366,0.05959,0.04709,0.1167,0.07076,0.17403c0.01442,0.03498,0.02884,0.07132,0.04326,0.10541
		c0.03808,0.09096,0.07594,0.17922,0.1138,0.26431c0.05543,0.1194,0.11244,0.23158,0.17036,0.33902
		c0.01825,0.03453,0.03718,0.06591,0.05566,0.09931c0.04011,0.07133,0.07999,0.14153,0.12078,0.20788
		c0.02163,0.03521,0.04349,0.06862,0.06535,0.1027c0.03876,0.06027,0.07752,0.11918,0.11672,0.17516
		c0.02186,0.03137,0.04372,0.06207,0.0658,0.09187c0.04033,0.0553,0.0809,0.10834,0.12146,0.15913
		c0.02006,0.02551,0.04011,0.05101,0.06017,0.07516c0.04597,0.05552,0.09171,0.10766,0.13746,0.158
		c0.01442,0.01558,0.02862,0.03228,0.04281,0.04763c0.12213,0.13024,0.24224,0.24287,0.35851,0.33947
		c0.01284,0.01083,0.02524,0.02009,0.03786,0.03047c0.04462,0.03589,0.08833,0.07042,0.13115,0.1018
		c0.01713,0.01287,0.0338,0.02438,0.0507,0.03656c0.03763,0.02663,0.07459,0.05191,0.11064,0.07539
		c0.0178,0.01151,0.03493,0.0228,0.05228,0.03363c0.03403,0.02122,0.06715,0.04108,0.0996,0.05959
		c0.0169,0.0097,0.0338,0.01941,0.05025,0.02867c0.0311,0.01715,0.06084,0.03228,0.09013,0.04717
		c0.0151,0.00768,0.03087,0.01603,0.04552,0.02302c0.02839,0.01377,0.05453,0.02528,0.08067,0.03679
		c0.04169,0.01851,0.08022,0.03431,0.1156,0.04808c0.00541,0.00226,0.01172,0.00497,0.01667,0.00655
		c0.10794,0.04063,0.1841,0.06071,0.21497,0.06952v0.0228c0.01397,0,0.08675-0.01128,0.1983-0.04627
		c0.01915-0.00587,0.03808-0.01173,0.05971-0.01941c0.0142-0.00497,0.02952-0.01106,0.04439-0.0167
		c0.02344-0.0088,0.0471-0.01783,0.07278-0.02866c0.01645-0.00677,0.03358-0.01445,0.05093-0.02212
		c0.02682-0.01219,0.05431-0.02505,0.08315-0.03905c0.01848-0.00903,0.03695-0.01851,0.05611-0.02844
		c0.03087-0.01603,0.06242-0.03386,0.09487-0.05237c0.01915-0.01061,0.03808-0.02144,0.05791-0.03341
		c0.03605-0.02189,0.07323-0.04604,0.11087-0.07087c0.0178-0.01196,0.03515-0.0228,0.05341-0.03566
		c0.04935-0.03408,0.10005-0.07178,0.15143-0.11218c0.00766-0.00564,0.01465-0.01061,0.02231-0.01648
		c0.05972-0.04763,0.12078-0.09954,0.18298-0.15597c0.01352-0.01264,0.02749-0.02709,0.04124-0.03973
		c0.04755-0.04469,0.09554-0.09119,0.14399-0.14152c0.02141-0.02212,0.04259-0.04627,0.064-0.06952
		c0.04169-0.04514,0.08315-0.09164,0.12506-0.1413c0.02411-0.02844,0.048-0.05846,0.07211-0.08825
		c0.03988-0.04943,0.07954-0.10112,0.1192-0.15484c0.02479-0.03363,0.04957-0.06794,0.07436-0.10315
		c0.03966-0.05665,0.07887-0.11624,0.11808-0.17718c0.02411-0.03724,0.04822-0.07381,0.07211-0.11286
		c0.04191-0.06884,0.08315-0.1422,0.12461-0.21646c0.02028-0.03634,0.04079-0.07087,0.06062-0.10857
		c0.06084-0.11444,0.12078-0.23429,0.17914-0.36182C31.44906,34.57657,31.52657,34.38517,31.60296,34.18947z M22.44703,33.84436
		c-0.05994-0.04785-0.12033-0.09751-0.18117-0.14739l0.51715-1.1631c0.0471,0.07922,0.09284,0.16026,0.14061,0.23858
		L22.44703,33.84436z M18.39275,29.15381c-0.84412-1.41883-1.52982-2.98844-2.0535-4.68649
		c-1.05909-3.45319-1.44216-7.71939-1.01402-12.05309c0.63095-0.56428,1.89284-1.67028,3.74061-2.93427
		c-0.31547,3.67913-0.54081,8.41911,0.29294,13.27194c0.27243,1.57525,0.63252,3.06248,1.07576,4.461L18.39275,29.15381z
		 M25.66914,35.60041c-0.05588-0.05981-0.11087-0.12075-0.16585-0.1817c-0.11515-0.12708-0.22804-0.25664-0.34004-0.38755
		c-0.06039-0.07065-0.12168-0.14062-0.18117-0.21239c-0.14061-0.16996-0.27852-0.34331-0.41417-0.51914
		c-0.08721-0.11353-0.17238-0.23-0.25756-0.34579c-0.05521-0.07516-0.11042-0.15078-0.16472-0.22707
		c-0.09599-0.13475-0.19109-0.27018-0.28438-0.40854c-0.02163-0.03182-0.04259-0.06478-0.06422-0.09683
		c-0.21655-0.3248-0.42634-0.65751-0.62824-1.00014c-0.04664-0.07968-0.09554-0.15664-0.14151-0.23722l-0.0009-0.00203
		c-0.12844-0.22458-0.25283-0.45391-0.37496-0.68639c-0.04484-0.08509-0.08856-0.17154-0.1325-0.25776
		c-0.0827-0.16206-0.16382-0.32638-0.24359-0.49183c-0.04439-0.09254-0.08923-0.18463-0.13272-0.27831
		c-0.09892-0.21285-0.19559-0.4284-0.28979-0.64689c-0.04597-0.10676-0.09059-0.21556-0.13543-0.32367
		c-0.07166-0.17312-0.14264-0.34692-0.21137-0.52365c-0.04732-0.12098-0.09329-0.24354-0.13926-0.36633
		c-0.05498-0.14739-0.10884-0.29659-0.16179-0.44624c-0.04484-0.12685-0.09014-0.25257-0.13363-0.381
		c-0.5158-1.52514-0.93064-3.1654-1.23936-4.91829c-0.90135-5.14626-0.56334-10.36024-0.24787-13.81365l0.04507-0.29343
		l0.02253-0.04514l-0.02253,0.02257V8.50939l-0.02254,0.02257c-0.2704,0.20314-2.68152,1.73799-4.75463,3.65656
		c0,0-0.2028,1.91856-0.18027,4.1757c0.04507,2.93427,0.42814,5.80083,1.19429,8.21597
		c0.55185,1.78562,1.28172,3.42836,2.17767,4.90701c0.15526,0.25618,0.31705,0.50628,0.48222,0.75275
		c0.05521,0.08193,0.11177,0.16229,0.16788,0.24332c0.12461,0.17944,0.2517,0.35595,0.38127,0.52952
		c0.05634,0.07539,0.11199,0.151,0.16923,0.22503c0.18388,0.23858,0.37113,0.47332,0.56515,0.70061
		c0.09464,0.11037,0.18906,0.21849,0.2837,0.3239c0.01758,0.01918,0.03493,0.03769,0.05228,0.05666
		c0.07819,0.08644,0.15638,0.17176,0.23435,0.25483c0.00946,0.00993,0.01893,0.01941,0.02817,0.02934
		c2.77639,2.9363,5.47211,3.78498,5.5983,3.82697l0.65348,0.18057l-0.47321-0.47377
		C26.0103,35.96268,25.83859,35.78278,25.66914,35.60041z M40.54054,0c0,0,8.62616,23.56176-5.02639,34.06082v0.00023
		c-0.10636,0.08193-0.21565,0.16183-0.32471,0.24219c-0.09464,0.06952-0.19064,0.13859-0.28731,0.20698
		c-0.10388,0.07336-0.20686,0.14716-0.31322,0.21894c-0.1805,0.12256-0.3655,0.24242-0.55321,0.36069
		c-0.09013,0.05688-0.18207,0.1124-0.27378,0.16816c-0.1645,0.09977-0.3317,0.19818-0.50138,0.29478
		c-0.06084,0.03431-0.11988,0.06975-0.1814,0.10406c-0.23052,0.12775-0.46735,0.25167-0.70756,0.37355
		c-0.06625,0.03318-0.13295,0.06636-0.19965,0.09931c-0.25508,0.12595-0.51377,0.24964-0.78012,0.36814l-0.09014,0.06771
		c0,0,0.0187-0.01874,0.048-0.04808c0.01082-0.00474,0.0196-0.01015,0.0196-0.01963l-0.0196,0.01963
		c-0.0151,0.00677-0.03493,0.01264-0.048,0.02551l0.15774-0.11286c0.02366-0.0228,0.05138-0.05011,0.08045-0.07923
		c0.00856-0.00858,0.01803-0.01805,0.02727-0.02731c0.02299-0.02325,0.04777-0.04853,0.07391-0.07516
		c0.01059-0.01106,0.02118-0.02212,0.03245-0.03363c0.03358-0.03498,0.06918-0.07245,0.10726-0.11285
		c0.0036-0.00406,0.00698-0.00768,0.01082-0.01174c0.04326-0.04627,0.08946-0.09638,0.13768-0.14988
		c0.00811-0.00903,0.0169-0.01896,0.02524-0.02821c0.04056-0.04537,0.08293-0.09299,0.12687-0.1431
		c0.01149-0.01332,0.02321-0.02663,0.03515-0.04018c0.04912-0.05666,0.09982-0.11579,0.15255-0.17831
		c0.00428-0.00519,0.00856-0.00971,0.01284-0.01513c0.06084-0.07223,0.12371-0.14829,0.18861-0.2282
		c0.00135-0.0018,0.00293-0.00361,0.00451-0.00542c0.06062-0.07471,0.12326-0.15348,0.18726-0.23519
		c0.01036-0.01309,0.02073-0.02641,0.03087-0.0395c0.06152-0.07877,0.12439-0.16048,0.18839-0.24557
		c0.00586-0.0079,0.01171-0.01513,0.01735-0.02303c0.14286-0.18982,0.29204-0.39522,0.44617-0.6162
		c0.00991-0.01445,0.02005-0.02889,0.03019-0.04356c0.06805-0.09796,0.137-0.19953,0.20686-0.30359
		c0.01014-0.01512,0.02005-0.03002,0.03042-0.04537c0.15819-0.23767,0.32043-0.49092,0.48538-0.76043
		c0.01014-0.01648,0.02028-0.03318,0.03042-0.04988c0.07121-0.11715,0.14286-0.23722,0.21519-0.36024
		c0.01442-0.02483,0.02885-0.04943,0.04349-0.07426c0.0809-0.13926,0.16224-0.28146,0.24404-0.42863
		c0.04552-0.08171,0.09104-0.1659,0.13678-0.25009c0.18748-0.34579,0.37587-0.71145,0.5629-1.09742
		c0.00068-0.00135,0.00135-0.00248,0.0018-0.00384c0.28009-0.5776,0.55749-1.20057,0.82564-1.86981
		c0.00158-0.00339,0.00293-0.00677,0.00428-0.01016c0.26838-0.67082,0.52797-1.38769,0.77178-2.15195
		c1.83898-5.76698,2.78135-14.231,0.0009-25.83537C36.93513,0.85771,38.2421,0.316,40.54054,0z M49.98047,47.21975
		c0,0.42885-0.15774,0.76743-0.45068,1.03828c-0.29294,0.24828-0.65348,0.38371-1.10416,0.38371
		c-0.29294,0-0.56335-0.06771-0.78868-0.20314v2.03142H46.5328v-4.80769c0.33801-0.04514,0.76615-0.06771,1.28443-0.06771
		c0.96895,0,1.62243,0.29343,1.93791,0.88028C49.9354,46.70061,49.98047,46.97147,49.98047,47.21975z M48.87632,47.19718
		c0-0.27086-0.09014-0.49657-0.29294-0.65457c-0.18027-0.13543-0.40561-0.20314-0.65348-0.20314c-0.09013,0-0.18027,0-0.2704,0
		v1.76056c0.0676,0,0.11267,0.02257,0.18027,0.02257C48.53831,48.1226,48.87632,47.80661,48.87632,47.19718z M50.56635,45.59462
		h1.01402v0.20314h-0.40561v1.06086h-0.22534v-1.06086h-0.38308V45.59462z M51.71557,45.59462h0.29294l0.36054,0.99314
		l0.31548-0.99314H53v1.264h-0.2028v-0.97057l-0.36054,0.97057h-0.15773l-0.36054-0.97057v0.97057h-0.2028V45.59462z
		 M16.04457,54.98429c0,0.24828-0.02253,0.40628-0.09014,0.51914c-0.15774,0.29343-0.47321,0.45143-0.81122,0.45143
		c-0.38307,0-0.69855-0.20314-0.83375-0.51914l0.49574-0.24829c0.04507,0.11286,0.15774,0.27085,0.33801,0.27085
		c0.11267,0,0.2028-0.04514,0.2704-0.11285c0.04507-0.06771,0.0676-0.13543,0.0676-0.29343V52.9303h0.56334V54.98429z
		 M16.2023,55.93229l1.26189-3.00199h0.40561l1.26189,2.97942h-0.60841l-0.29294-0.65457h-1.19429l-0.29294,0.65457
		L16.2023,55.93229z M17.30646,54.75858h0.74362L17.667,53.8783L17.30646,54.75858z M20.01052,54.736v1.21885h-0.56334v-3.00199
		h1.12669c0.38308,0,0.60841,0.09029,0.76615,0.27085c0.15774,0.158,0.22534,0.38371,0.22534,0.632
		c0,0.22571-0.09014,0.45143-0.22534,0.632c-0.18027,0.18057-0.40561,0.27085-0.76615,0.27085L20.01052,54.736z M20.50626,54.21687
		c0.18027,0,0.29294-0.04514,0.36054-0.11286s0.09014-0.158,0.09014-0.24828s-0.04507-0.18057-0.09014-0.24829
		c-0.0676-0.06771-0.18027-0.11285-0.36054-0.11285h-0.51828v0.74485L20.50626,54.21687z M21.18227,55.93229l1.26189-2.97942
		h0.40561l1.26189,2.97942h-0.60841l-0.29294-0.65457h-1.19429l-0.29294,0.65457H21.18227z M22.2639,54.75858h0.76615
		l-0.38307-0.88028L22.2639,54.75858z M24.38207,52.95287h0.40561l1.6675,1.94114v-1.94114h0.56334v2.97942h-0.40561
		l-1.6675-1.94114v1.94114h-0.56334V52.95287z M34.49975,53.58487c0.1352-0.40628,0.51828-0.69971,0.96896-0.69971
		c0.51828,0,0.96895,0.40628,0.96895,0.92543c0,0.36114-0.18027,0.65457-0.40561,0.88028l-0.65348,0.76742h1.05909v0.51914h-1.96044
		v-0.33857l1.05909-1.21885c0.22534-0.27085,0.29294-0.42886,0.29294-0.58685c0-0.20314-0.18027-0.40628-0.40561-0.40628
		c-0.2028,0-0.36054,0.13543-0.40561,0.33857L34.49975,53.58487z M37.85728,52.88515c0.76615,0,1.05909,0.69971,1.05909,1.55742
		c0,0.88028-0.29294,1.55742-1.05909,1.55742c-0.76615,0-1.05909-0.69971-1.05909-1.55742
		C36.7982,53.58487,37.0686,52.88515,37.85728,52.88515z M37.85728,53.4043c-0.36054,0-0.47321,0.474-0.47321,1.03828
		c0,0.56429,0.1352,1.03828,0.47321,1.03828c0.36054,0,0.47321-0.474,0.47321-1.03828
		C38.33049,53.8783,38.21783,53.4043,37.85728,53.4043z M39.18678,53.35915l0.74362-0.42886H40.336v3.02456h-0.58588v-2.34742
		l-0.56335,0.316V53.35915z M41.32749,55.95486l0.56334-0.97057h-0.04507c-0.56334,0-1.05909-0.42886-1.05909-1.03828
		c0-0.58686,0.49575-1.06086,1.08162-1.06086c0.56335,0,1.12669,0.40628,1.12669,1.03828c0,0.29343-0.1352,0.56428-0.29294,0.83514
		l-0.72108,1.21885L41.32749,55.95486z M42.43165,53.92344c0-0.29343-0.24787-0.51914-0.51828-0.51914
		c-0.29294,0-0.51828,0.24828-0.51828,0.51914c0,0.29343,0.2028,0.54171,0.54081,0.54171c0.11267,0,0.2028-0.02257,0.31547-0.06771
		C42.34151,54.28458,42.43165,54.12658,42.43165,53.92344z M27.82974,52.97544h2.34352v3.00199h-0.42814v-0.22571h-1.4647v0.22571
		h-0.42814L27.82974,52.97544z M29.74512,53.38173h-1.4647v0.76743h1.4647V53.38173z M28.25789,55.32286h1.4647v-0.76743h-1.4647
		V55.32286z M33.8688,53.81058h-1.05909c0.29294,0.51914,0.72108,0.99314,1.21682,1.24142
		c-0.09013,0.09028-0.24787,0.27085-0.31547,0.38371c-0.2028-0.13543-0.40561-0.29343-0.56335-0.474V55.368h-0.56334v0.58685
		h-0.42814V55.368h-0.58588v-0.36114c-0.18027,0.18057-0.36054,0.316-0.54081,0.45142
		c-0.0676-0.09028-0.2028-0.27085-0.29294-0.33857c0.49574-0.27085,0.92389-0.76743,1.19429-1.30914h-1.05909V53.4043h1.30696
		v-0.65457h0.42814v0.65457h1.30696L33.8688,53.81058z M32.11117,54.19429c-0.15774,0.29343-0.33801,0.51914-0.54081,0.76743
		h0.54081V54.19429z M32.56184,54.96172h0.54081c-0.2028-0.22572-0.40561-0.474-0.54081-0.76743V54.96172z M23.77366,44.03719
		h-0.94642l-1.23936-1.53485v1.53485h-0.76615v-3.36313c0.2028-0.04514,0.51828-0.04514,0.85628-0.04514
		c0.49574,0,0.87882,0.06771,1.12669,0.20314c0.31547,0.18057,0.47321,0.45143,0.47321,0.81257
		c0,0.22571-0.0676,0.42886-0.18027,0.58685c-0.1352,0.158-0.33801,0.24828-0.56334,0.29343L23.77366,44.03719z M22.5343,41.64463
		c0-0.38371-0.29294-0.49657-0.76615-0.49657c-0.0676,0-0.1352,0-0.18027,0.02257v1.01571c0.0676,0,0.1352,0.02257,0.18027,0.02257
		C22.24136,42.16377,22.5343,41.9832,22.5343,41.64463z M30.69154,43.67605c-0.29294,0.29343-0.76615,0.474-1.28443,0.474
		c-0.58588,0-1.08162-0.22571-1.44216-0.54171c-0.33801-0.29343-0.51828-0.72228-0.51828-1.28656
		c0-0.51914,0.18027-0.948,0.51828-1.264c0.33801-0.33857,0.83375-0.49657,1.35203-0.49657
		c0.42814,0,0.78868,0.06771,1.05909,0.18057v0.60942c-0.27041-0.18057-0.58588-0.24828-0.94642-0.24828
		c-0.36054,0-0.65348,0.11286-0.87882,0.33857c-0.22534,0.22572-0.33801,0.51914-0.33801,0.88028s0.11267,0.65457,0.33801,0.88028
		c0.22534,0.22572,0.51828,0.33857,0.85628,0.33857c0.18027,0,0.33801-0.04514,0.51828-0.11286v-1.106H30.669L30.69154,43.67605z
		 M33.89134,42.97634c0,0.474-0.22534,0.74485-0.63095,0.92543c-0.29294,0.13543-0.65348,0.18057-1.12669,0.18057
		c-0.29294,0-0.58588,0-0.87882-0.04514v-3.40827c0.33801-0.04514,0.65348-0.02257,0.87882-0.02257
		c0.47321,0,0.87882,0.06771,1.12669,0.22572c0.22534,0.13543,0.33801,0.40628,0.31547,0.65457
		c0,0.22571-0.18027,0.45143-0.36054,0.56429c-0.02253,0.02257-0.04507,0.02257-0.0676,0.04514
		c-0.02253,0-0.04507,0.02257-0.0676,0.02257c0.1352,0.02257,0.2704,0.06771,0.38308,0.158
		c0.02253,0.02257,0.04507,0.02257,0.0676,0.04514c0.18027,0.158,0.31547,0.33857,0.31547,0.58685
		C33.89134,42.90863,33.89134,42.9312,33.89134,42.97634z M32.89985,41.5092c0-0.316-0.29294-0.40628-0.67601-0.40628
		c-0.04507,0-0.15774,0-0.2028,0v0.85771h0.24787C32.65198,41.91549,32.89985,41.80263,32.89985,41.5092z M33.17025,42.99891
		c0-0.38371-0.33801-0.58685-0.83375-0.58685c-0.09014,0-0.27041,0-0.31548,0v1.15114c0.0676,0,0.24787,0,0.33801,0
		C32.92238,43.58577,33.17025,43.36005,33.17025,42.99891z M25.4637,44.15005c-0.90135,0-1.50976-0.51914-1.50976-1.48971v-2.00885
		h0.78868v1.98628c0,0.54171,0.29294,0.88028,0.74361,0.88028s0.74362-0.316,0.74362-0.85771v-2.00885h0.78868v1.96371
		C26.97346,43.65348,26.36505,44.15005,25.4637,44.15005z M36.32499,40.65149h0.83375l-1.28442,2.03142v1.35428h-0.38308h-0.38308
		v-1.35428l-1.30696-2.03142h0.87882l0.81122,1.33171L36.32499,40.65149z M15.41362,45.6849l-1.69003,5.01083
		c-0.1352-0.04514-0.31547-0.11285-0.58588-0.20314c-0.2028-0.09029-0.36054-0.18057-0.45068-0.29343
		c-0.0676-0.09029-0.15774-0.27086-0.22534-0.49657l-0.74362-2.16685l-1.05909,3.15998
		c-0.29294-0.09028-0.49574-0.18057-0.58588-0.20314c-0.22534-0.11286-0.40561-0.22572-0.49574-0.38371
		c-0.0676-0.09029-0.1352-0.24828-0.2028-0.474L8,45.6849h1.19429l1.12669,3.29541l1.08162-3.29541h0.78868l1.14922,3.29541
		l1.01402-3.29541H15.41362z M21.002,48.05489c0,0.76743-0.2704,1.37685-0.78868,1.85085
		c-0.49574,0.45143-1.14922,0.67714-1.96044,0.67714c-0.81122,0-1.4647-0.22572-1.96044-0.67714
		c-0.51828-0.474-0.78868-1.106-0.78868-1.85085s0.27041-1.35428,0.78868-1.85085c0.49574-0.45142,1.14922-0.67714,1.96044-0.67714
		c0.81122,0,1.4647,0.22572,1.96044,0.67714C20.7316,46.70061,21.002,47.31004,21.002,48.05489z M19.76264,48.07746
		c0-0.49657-0.1352-0.88028-0.38307-1.21885c-0.29294-0.33857-0.65348-0.51914-1.12669-0.51914
		c-0.47321,0-0.85629,0.18057-1.12669,0.51914c-0.27041,0.316-0.38308,0.72228-0.38308,1.19628
		c0,0.49657,0.1352,0.88028,0.38308,1.21885c0.2704,0.33857,0.65348,0.51914,1.12669,0.51914
		c0.47321,0,0.85628-0.18057,1.12669-0.51914C19.64997,48.98032,19.76264,48.57403,19.76264,48.07746z M25.77917,50.47002h-1.35203
		l-1.64497-2.18942v2.18942h-1.10416v-4.80769c0.29294-0.04514,0.69855-0.06771,1.19429-0.06771
		c0.69855,0,1.21683,0.09029,1.55483,0.29343c0.45068,0.29343,0.67601,0.65457,0.67601,1.15114
		c0,0.33857-0.09014,0.60942-0.27041,0.83514c-0.18027,0.22571-0.42814,0.36114-0.76615,0.40628L25.77917,50.47002z
		 M23.95393,47.1069c0-0.49657-0.29294-0.74485-0.92389-0.74485c-0.0676,0-0.15774,0-0.22534,0v1.46714
		c0.0676,0,0.15774,0,0.22534,0C23.63846,47.82918,23.95393,47.58089,23.95393,47.1069z M29.63245,49.61231l-0.33801,0.85771
		h-2.90686v-4.80769h1.10416v4.06284c0.11267,0.02257,0.29294,0.02257,0.56334,0.02257
		C28.70856,49.77031,29.31697,49.7026,29.63245,49.61231z M34.61242,48.05489c0,0.76743-0.29294,1.35428-0.87882,1.82828
		c-0.54081,0.40628-1.28443,0.65457-2.25338,0.65457c-0.51828,0-0.96895-0.04514-1.30696-0.09029V45.6849
		c0.36054-0.06771,0.81122-0.09029,1.30696-0.09029c0.96895,0,1.71257,0.20314,2.25338,0.65457
		C34.34201,46.70061,34.61242,47.31004,34.61242,48.05489z M33.39559,48.07746c0-0.56428-0.15773-0.99314-0.47321-1.28656
		c-0.29294-0.29343-0.74361-0.40628-1.30696-0.40628c-0.09014,0-0.2028,0-0.31547,0.02257v3.36313
		c0.11267,0.02257,0.22534,0.02257,0.31547,0.02257C32.80972,49.77031,33.39559,49.20603,33.39559,48.07746z M40.96695,49.31889
		l-0.42814,1.06085c-0.36054,0.13543-0.76615,0.20314-1.26189,0.20314c-0.78868,0-1.44217-0.22572-1.93791-0.65457
		c-0.51828-0.45142-0.76615-1.08342-0.76615-1.85085s0.29294-1.37685,0.83375-1.85085
		c0.51828-0.45142,1.17176-0.67714,1.93791-0.67714c0.47321,0,0.90135,0.06771,1.30696,0.22572v0.92542
		c-0.29294-0.20314-0.72108-0.316-1.23936-0.316c-0.47321,0-0.87882,0.158-1.17176,0.474
		c-0.29294,0.316-0.45068,0.72228-0.45068,1.19628c0,0.51914,0.15774,0.948,0.45068,1.24142s0.69855,0.45143,1.23936,0.45143
		C40.02053,49.77031,40.53881,49.61231,40.96695,49.31889z M43.58087,50.53774c-1.26189,0-2.09564-0.69971-2.09564-2.07656V45.6849
		h1.10416v2.7537c0,0.76743,0.38307,1.24142,1.01402,1.24142s1.01402-0.42886,1.01402-1.19628v-2.77627h1.10415v2.73113
		C45.69905,49.83803,44.84277,50.53774,43.58087,50.53774z M39.43571,29.07075c0.41913-0.65299,0.804-1.336,1.1499-2.05286
		c1.5323-3.31799,2.27592-7.33568,2.20831-11.94023c-0.11267-6.83911-2.02804-13.0688-2.52378-14.53594
		c-1.30696,0.22571-2.20831,0.474-2.72659,0.632c1.30696,5.64283,1.84777,11.03738,1.57737,15.95793
		c-0.17712,3.56672-0.80085,6.89261-1.79617,9.93274L39.43571,29.07075z M35.30977,33.60081
		c0.06107-0.04763,0.12281-0.0948,0.18298-0.14333l-0.48538-1.09155c-0.0462,0.08193-0.09239,0.16387-0.13836,0.24332
		L35.30977,33.60081z"/>
</g>
</svg>
