<svg xmlns="http://www.w3.org/2000/svg" width="88" height="56"><path d="M85.72 18.984l-20.883 2.778c.993-1.422 1.884-2.397 2.617-3.36s1.264-1.39 1.128-2.24c-.214-1.254-1.704-1.725-3.385-2.632-2.47-1.366-3.51-2.576-5.64-6.933C58.114 3.707 57.302.1 52.53.1s-7.897 3.808-7.897 3.886C43.188.717 38.99.28 35.2 2.632c-2.933 1.837-4.964 4.334-6.77 9.296-1.158 2.78-3.162 5.128-5.73 6.72-1.68.75-1.794 1.58-1.828 2.072-.02.965.544 1.848 1.433 2.24 1.474.97 2.59 2.39 3.182 4.043L.666 30.25 0 39.458l1.546 2.554 20.07-2.632v.1c-.147 6.608 1.94 11.592 6.96 14.683 3.97 2.442 10.92 2.094 14.88-.112a16.53 16.53 0 0 0 7.04-7.706c.886-.388 1.735-.853 2.538-1.39 3.385-2.408 5.01-5.846 6.104-10.237l.068-.27L86.6 30.845l.654-9.352-1.523-2.51z" fill="#adadad"/><g fill-rule="nonzero"><path d="M64.274 30.9l-2.144.28.96 1.646 2.1-.28.542-8.064-.925-1.6-.542 8.008zm-52.428 1.95h.406l-.417-1.243-.982-1.646.993 2.9v-.01zm.87 3.562h.102l-.587-1.714-.508.067-1.388 3.214h-.35l-2.256.302.248-.605-.384-.66.61-.078.113-1.826-.496-.85.587-.078.147-2.128-.96-1.646-.17 2.117-3.046.403-.643.045-.056.93 3.667-.482-.113 1.826-3.667.482-.102.963 3.655-.482-.147 2.24-5.878.773 1.027 1.6 5.855-.75.068-1.12.575.997 2.742-.302 1.354-3.226zm3.983-4.346l.135-1.95-.53-.918-2.03 4.178 1.602 3.875-2.64.347.993 1.658 2.63-.347-1.602-3.864 1.444-2.98zm3.385-1.6l-.936-1.658-.214 3.035 1.128-.146.023-1.232zm1.015 4.66l.124-1.803-1.963.28-.43.056-.237 3.226-2.256.29.982 1.658 2.256-.29.214-3.226 1.31-.2zm9.24-4.637l2.46-.302.056-1.008-2.448.325-.068.986zm-.113 1.635l-.08 1.053 2.448-.325.113-1.008-2.482.28zm24.12-3.976l.124-1.803-2.256.302-.237 3.685h.384l.745-.146.124-1.882 1.117-.157zM62.65 17.35l-4.445 5.13c-.553.728-1.128 1.534-1.602 2.374l-.113-.1v.146c.093.366.124.744.1 1.12l-.248 3.718c-.102 1.445-.722 2.24-1.862 2.397l-3.26.426c-1.128.146-1.68-.493-1.58-1.95l.248-3.718c.102-1.478.71-2.24 1.873-2.408l3.26-.426c.224-.04.453-.04.677 0l3.125-3.987 1.907-2.14a18.16 18.16 0 0 1-4.276-1.019l-.158.1v.078s-1.974 1.12-3.09.694c-.394-.155-.746-.4-1.027-.717-1.2 1.036-2.54 1.9-3.983 2.565-1.907.75-4.57-.224-6.7 2.083a35.16 35.16 0 0 0-3.114 4.48l-.542 8.064-2.256.302.192-2.733-.226.683a.69.69 0 0 0-.395-.269 1.6 1.6 0 0 0 .677-1.187v-1.165c.063-.428-.037-.863-.282-1.22l-.293-.493a23 23 0 0 1 2.674-5.186c.845-1.113 1.77-2.164 2.764-3.147-1.086.252-2.223.186-3.272-.2a4.5 4.5 0 0 1-1.343-1.243l-3.87 2.744-3.6 3.158-1.354-1.938-1.534-1.826 3.994-4.144a18.03 18.03 0 0 1 4.659-3.674 6.05 6.05 0 0 1 5.517.347 5.88 5.88 0 0 0 5.325-.112c2.087-.94 3.994-2.397 7.12-1.03 1.59.683 3.046 2.587 3.95 3.842.666.974 2.19 1.12 2.685 1.232s3.7.37 3.7.37l-.01-.022zM27.833 35.672l.542-8.064 5.36-.706c1.038-.134 1.444.28 1.376 1.4l-.08 1.12c-.024.49-.274.94-.677 1.22a.79.79 0 0 1 .305.168l.068.078c.04.058.07.122.1.2a1.11 1.11 0 0 1 0 .235v.437l-.08 1.12v1.075l-.08.134-.08.112-.08.1-.113.1-.08.056-.384.302h-.056a2.2 2.2 0 0 1-.632.168l-5.404.75zm5.833 1.02l.496-.067a2.27 2.27 0 0 0 .609-.157 44.09 44.09 0 0 0-.35 6.574 21.38 21.38 0 0 1-.756-6.317v-.034zm7.638-8.6l-2.177.28.147-2.184 6.577-.862-.147 2.184-2.076.27-.395 5.88-2.324.302.395-5.87zm4.953 5.186l.542-8.064 2.256-.29-.587 8.03-2.21.325zm20.387-15.69c.496-.57 1.196-1.187-.17-1.926-2.753-1.546-4.355-2.027-6.34-5.275-1.84-3.035-3.193-6.63-4.366-7.84-1.828-1.837-5.393-1.288-7.435-.1-.72.382-1.39.85-1.997 1.39l-2.098 2.24C43.55 4 42.454 2.42 39.916 2.442c-1.84.056-3.607.73-5.01 1.915-2.23 1.742-3.922 4.07-4.885 6.72-.67 2.105-1.777 4.047-3.25 5.7a11.58 11.58 0 0 1-3.633 2.99c-1.343.594-1.388 1.624-.135 2.352 2.81 1.702 3.385 3.786 3.983 5.656h.203l-.542 8.064-2.256.29.226-3.45-.068.157.203-2.968-.96-1.658-.52 8.11-2.256.29L22 38.27l1.365-.18c-.395 2.63-.16 5.317.688 7.84a11.83 11.83 0 0 0 5.37 6.72 10.01 10.01 0 0 0 1.828.941h.056a13.83 13.83 0 0 0 11.203-.862c2-1.133 3.662-2.77 4.817-4.75 1.568-2.7 1.77-5.656 2.55-8.96l1.207-4.94c.32.246.732.34 1.128.258h.406l-.903 8.467a5.57 5.57 0 0 1-.372 1.355c3.09-1.882 4.513-4.592 6.07-8.658a54.3 54.3 0 0 0 .812-2.363l.147.246 2.087-.27.248-3.774v-.94l-.36-.683-.27-.526c-.138-.31-.255-.627-.35-.952.04.492.04.986 0 1.478l-.248 3.774-2.098.347.542-8.064 2.708-.358.824 1.613.677 1.288c.102.213.237.55.395.986v-.56l-.88-1.725-.1-.157a47.94 47.94 0 0 1 5.088-7.269zm6.848 9.027l-2.448.325H69.53l-.1-.067v-.056l.587 1.13 3.385-.448.08-.885zm5.968 4.1l.124-1.938-.812-5.354h-.045v1.646l-.26 3.987-2.1.28.124-1.792V26.8l-.1-.123-.722-1.322.688-.1.147-2.128-.982-1.69-.147 2.162-4.084.538-.056.896 2.945-.38h.767a1.12 1.12 0 0 1 .677 1.333l-.124 1.97v.078a1.88 1.88 0 0 1-.102.448v.134l-.068.123-.068.112-.08.1-.1.1-.1.078-.1.067H73.91l-5.178.683.147-2.24.27-4-.982-1.68-.18 2.643-.36 5.387-2.1.75.96 1.658 2.256-.29.124-1.792.96 1.646 5.178-.683a1.74 1.74 0 0 0 1.557-1.658l.8 1.366 2.1-.246zm1.478-5.89l.226-.862-.203-1.445-.993-1.658.587 4v.28c0 .29 0 .616.068.974 0-.213.08-.403.113-.594s.113-.493.17-.706h.034zm5.145-2.946l-.993-1.67-.542 8.042-2.1.224.26-3.987a11.12 11.12 0 0 1 .147-1.243l.135-.37h-.068L81.3 28.66l-1.715.224.96 1.658 1.737-.224.384-1.434.756 1.277 2.1-.28.542-7.997z" fill="#666"/><path d="M7.424 32.514l.147-2.184-5.912.773-.542 8.064 5.878-.773.147-2.24-3.678.526.068-.93 3.667-.482.113-1.826-3.667.482.1-.963 3.69-.448zm6.826.862l2.03-4.19-2.527.336-1.422 3.27-.508.067-1.004-2.946-2.527.336 1.512 3.718-2.155 4.357 2.65-.347 1.388-3.214.508-.067.993 2.9 2.685-.358-1.625-3.864zm9.026 2.9l.496-8.075-2.256.29-.203 3.002-2.38.347.203-3.002-2.256.29-.542 8.064 2.256-.29.214-3.226 2.448-.325-.214 3.226 2.234-.302zm3.385-.448l.496-8.075-2.256.29-.542 8.064 2.302-.28zm6.228-6.653l-.056 1.008-2.448.325.056-1.008 2.448-.325zm-2.617 2.957l2.437-.29-.08 1.053-2.448.325.1-1.086zm4.784-3.83c.08-1.12-.338-1.546-1.376-1.4l-5.36.706-.542 8.064 5.336-.694a1.81 1.81 0 0 0 1.281-.646c.32-.382.463-.878.4-1.37l.08-1.12c0-.672 0-1.02-.508-1.12.403-.282.652-.732.677-1.22l.01-1.198zm2.9 6.037l.587-8.098-2.256.29-.553 8.075 2.223-.27zm7.717-6.843l.147-2.184-6.577.862-.147 2.184 2.177-.28-.35 5.88 2.324-.302.395-5.88 2.03-.28zm2.798 5.466l.542-8.064-2.256.29-.542 8.064 2.256-.29zm5.99-6.62l-.226 3.685-2.256.302.248-3.685 2.234-.302zm2.256-.29c.102-1.5-.395-2.106-1.568-1.96l-3.26.426c-1.128.157-1.77.93-1.873 2.408l-.293 3.718c-.102 1.445.44 2.094 1.58 1.95l3.26-.426c1.128-.146 1.76-.952 1.862-2.397l.293-3.718zm8.1-3.17l-2.1.28-.18 2.722a7.97 7.97 0 0 0 0 1.49l-.395-.986-1.512-2.946-2.708.358-.53 8.042 2.1-.28.248-3.774c.042-.492.042-.986 0-1.478.105.337.233.666.384.986l2.008 3.875 2.1-.28.575-8.008z" fill="#fff"/></g><path d="M52.676 12.802c-2.437-1.68-5.1-.538-7.198.616a6.14 6.14 0 0 1-4.806.706c-1.218-.28-1.805-1.3-4.287-1.187S31.67 15.4 31.67 15.4c.12.802.726 1.448 1.523 1.624a3.49 3.49 0 0 0 2.809-.918s.26 2.9 3.7 2.598a6.8 6.8 0 0 0 3.8-2.072c.774 1.414 2.377 2.174 3.97 1.882a5.57 5.57 0 0 0 3.825-2.755c.428.873 1.117 1.593 1.974 2.06 1.128.392 3.1-.694 3.1-.694a10.94 10.94 0 0 0-3.678-4.323zm-14.622-5.7c1.376-.067 1.23.38 1.84.672a1.85 1.85 0 0 0 1.488-.082 1.83 1.83 0 0 0 .938-1.15c.27-1.12-.316-1.915-1.512-2.498a3.2 3.2 0 0 0-3.294.381 4.3 4.3 0 0 0-1.805 1.96c-.295.47-.2 1.085.226 1.445.327.258 1.433-.638 2.12-.728zm10.718-.662a2.46 2.46 0 0 0 1.41-.358 1.63 1.63 0 0 1 1.49 0 2.43 2.43 0 0 0 1.365.706 1.6 1.6 0 0 0 1.67-1.31c.206-.98-.377-1.953-1.343-2.24a4.54 4.54 0 0 0-3.881.605 2.6 2.6 0 0 0-1.467 1.344c-.094.266-.064.56.082.803a.96.96 0 0 0 .674.452zm33.294 14.123l-1.128 4.234-.282 1.3c0-.482 0-.896-.102-1.254l-.575-4-3.07.403-.542 8.064 2.1-.28.26-3.987c.04-.548.04-1.098 0-1.646h.056l.835 5.488 1.737-.224 1.546-5.768h.068a12.47 12.47 0 0 0-.237 1.68l-.305 3.92 2.1-.28.542-8.064-3.024.426zm-16.62 10.18l2.2-.3.542-8.064-2.2.3zm8.766-6.104l-2.945.38.056-.896 4.084-.538.147-2.184-4.163.55c-1.4.18-2.12.672-2.2 1.86l-.124 1.938c-.1 1.3.6 1.378 1.997 1.198l2.448-.325-.102.885-4.513.594-.147 2.24 5.156-.74a1.74 1.74 0 0 0 1.658-1.646l.102-1.95a1.13 1.13 0 0 0-1.446-1.366z" fill="#fff"/><g fill="#666"><path d="M4.502 23.027v-.336c0-.37-.124-.515-.53-.46l-1.737.224-.226 2.666.767-.1.102-1.02.8-.1-.1.974.756-.1.08-.896a.29.29 0 0 0-.02-.265c-.05-.08-.134-.13-.228-.14.194-.068.327-.244.338-.448zm-.778.28l-.8.1v-.347l.8-.1v.347z" fill-rule="nonzero"/><path d="M4.513 25.962l.756-.1-.192 1.915.8-.1.18-1.926.722-.1.068-.706-2.268.3zm-.913.414l-1.015.134v-.3l1.4-.18.068-.717-1.433.2a.7.7 0 0 0-.767.616l-.056.627c0 .426.203.448.677.38l.846-.112v.3l-1.58.202-.068.717L3.464 28c.3-.015.543-.242.575-.538l.056-.65c.034-.358-.124-.493-.496-.437zm8.382-3.293l-1.185.157.192-1.915-.824.1-.26 2.632 2.008-.258zm2.403-.83a2.77 2.77 0 0 0 0-.482 2.9 2.9 0 0 0 .124.325l.677 1.277.733-.1.282-2.632-.733.1-.1.885a2.29 2.29 0 0 0 0 .482c0-.146-.102-.246-.124-.325l-.508-.952-.948.123-.26 2.632.733-.1.113-1.232z"/><path d="M2.764 21.896l.8-.1.18-1.893.7-.1.068-.706-2.245.302-.068.694.745-.1zm2.73-1.378l.835-.112-.1 1.042.767-.1.248-2.6-.767.1-.1.974-.846.112.102-.974-.767.1-.26 2.6.767-.1zm11.34 4.122l-1.015.134v-.3l1.4-.18.068-.717-1.422.2a.7.7 0 0 0-.767.616l-.056.627c0 .426.203.448.677.38l.846-.112v.3l-1.58.202-.068.717 1.76-.258c.3-.015.543-.242.575-.538l.068-.582c.034-.392-.124-.526-.496-.482zm-4.355 2.184l2.03-.27.056-.717-1.264.168.034-.302 1.275-.168.045-.594-1.264.168.034-.314 1.275-.157.068-.717-2.042.27zM13.347 21l-.778.1-.248 2.632.767-.1zm3.193.28l-.113 1.2c0 .47.135.683.53.627l1.173-.146c.397-.046.7-.388.677-.784l.1-.874-.767.1v.862l-.88.112.113-1.198 1.613-.213.068-.717-1.77.235c-.206.003-.4.1-.54.24s-.2.352-.193.555zm-6.905-2.15l.068-.706-2.02.258-.248 2.6 2.02-.27.056-.706-1.252.168.034-.302 1.252-.168.056-.594-1.264.168.034-.3zm-1.05 2.508l-.824.1-.26 2.632 2.008-.258.068-.717-1.185.146z"/><path d="M8.902 24.685l-1.128.146a.75.75 0 0 0-.666.795l-.113 1.2c0 .47.135.683.53.627l1.128-.146a.75.75 0 0 0 .654-.784l.113-1.2c.045-.493-.113-.694-.52-.638zm-.36 1.938l-.8.1.113-1.198.8-.1-.113 1.198z" fill-rule="nonzero"/><path d="M11.474 25.222c-.017.16-.017.32 0 .482 0-.146-.102-.246-.124-.325l-.496-.963-.936.123-.248 2.632.722-.1.113-1.232a2.86 2.86 0 0 0 0-.482c.035.11.076.22.124.325l.733 1.277.722-.1.248-2.632-.722.1-.135.885z"/><g fill-rule="nonzero"><path d="M7.266 22.512c0-.482-.124-.683-.53-.638l-1.128.146a.75.75 0 0 0-.677.795l-.124 1.187c0 .47.135.683.53.627l1.128-.146c.395-.047.686-.4.666-.784l.135-1.187zm-.9 1.3l-.8.1.135-1.198.8-.1-.135 1.198zM52.18 46.715a1.01 1.01 0 0 0-.982 0 .91.91 0 0 0-.372.37.98.98 0 0 0 0 .986.92.92 0 0 0 .372.37 1.01 1.01 0 0 0 .993 0 .92.92 0 0 0 .372-.37.98.98 0 0 0 0-.986.91.91 0 0 0-.384-.37zm.226 1.266c-.07.127-.176.232-.305.302a.84.84 0 0 1-.824 0c-.128-.07-.234-.175-.305-.302a.81.81 0 0 1 0-.818c.073-.13.183-.234.316-.302a.84.84 0 0 1 .812 0 .76.76 0 0 1 .316.302.81.81 0 0 1-.011.818z"/><path d="M52.033 47.87l-.115-.072c.1-.016.193-.067.26-.144a.36.36 0 0 0 .115-.258c.02-.066.02-.136 0-.2-.042-.06-.103-.106-.173-.13-.115-.017-.23-.017-.346 0h-.52v1.364h.216v-.574h.13c.056-.02.117-.02.173 0 .095.09.173.198.23.316l.173.244h.274l-.274-.273a1.55 1.55 0 0 0-.144-.273zm-.29-.215h-.274v-.416h.5c.033-.01.068-.01.1 0 .012.037.012.078 0 .115.02.046.02.098 0 .144-.078.095-.194.153-.317.158z"/></g></g></svg>