<?xml version="1.0" encoding="utf-8"?>
<!-- Generator: Adobe Illustrator 22.1.0, SVG Export Plug-In . SVG Version: 6.00 Build 0)  -->
<svg version="1.1" id="Layer_1" xmlns="http://www.w3.org/2000/svg" xmlns:xlink="http://www.w3.org/1999/xlink" x="0px" y="0px"
	 viewBox="0 0 60 56" style="enable-background:new 0 0 60 56;" xml:space="preserve">
<style type="text/css">
	.st0{fill:#666666;}
</style>
<title>Icon Footer / Partner / Manchester</title>
<desc>Created with Sketch.</desc>
<g id="Icon-Footer-_x2F_-Partner-_x2F_-Manchester">
	<path id="Shape" class="st0" d="M17.70652,5.92478c-3.77877,2.36389-6.12838,5.25731-7.19079,6.77378
		c-2.63749,3.75828-4.2315,4.86333-5.18427,5.52525L4.9166,18.51473l-0.00079,0.09909
		c-0.00158,0.06025-0.0489,1.52757,0.39909,3.14471c0.60022,2.17522,1.81564,3.55297,3.51455,3.98817
		c2.34882,0.59692,4.68817-0.71662,7.15056-4.0175l0.34546-0.48435c1.55773-2.23229,6.29874-9.02272,14.12523-9.02272
		s12.56672,6.79043,14.12523,9.02272l0.34546,0.48435c2.4616,3.30088,4.80332,4.61441,7.15213,4.0175
		c1.69733-0.4352,2.91118-1.81295,3.51534-3.98817c0.44484-1.61794,0.40067-3.08526,0.39751-3.14471l-0.00394-0.09909
		l-0.41329-0.29093c-0.95199-0.66113-2.54679-1.76697-5.18191-5.52525c-1.06635-1.51647-3.4128-4.40989-7.19157-6.77378
		c-3.8537-2.41066-8.14277-3.63065-12.74339-3.63065C25.84772,2.29413,21.5618,3.51412,17.70652,5.92478 M28.01884,44.10597
		L19.7572,38.7663V16.52184l0.04969-0.05708c0.01983-0.02178,0.04899-0.05153,0.08577-0.0876
		c-1.90655,1.79083-3.20551,3.65168-3.89372,4.63781l-0.336,0.47563c-2.3567,3.15581-4.55961,4.42258-6.73569,3.87005
		c-1.5735-0.40112-2.65878-1.6441-3.22745-3.69882c-0.35729-1.28103-0.38963-2.49627-0.38963-2.89659
		c0-0.01427,0-0.02616,0.00158-0.04122c0.08991-0.06342,0.24372-0.17281,0.24372-0.17281
		c0.97565-0.67381,2.60673-1.8066,5.28602-5.62116c1.04585-1.49269,3.35602-4.34093,7.07405-6.66676
		c3.78981-2.37023,8.0079-3.5712,12.53438-3.5712c4.52569,0,8.7422,1.20097,12.53359,3.5712
		c3.72041,2.32584,6.03057,5.17328,7.07642,6.66676c2.67693,3.81456,4.31037,4.94656,5.28681,5.62116
		c0,0,0.14986,0.1094,0.24214,0.17281v0.04122c0,0.39953-0.02918,1.61556-0.38568,2.89659
		c-0.57104,2.05473-1.65553,3.29692-3.22824,3.69882c-2.17372,0.55252-4.38136-0.71345-6.73648-3.87005l-0.336-0.47563
		c-0.67229-0.96235-1.92608-2.75775-3.75826-4.50815V38.7663l-8.25797,5.3365c4.63223-0.76223,9.56517-3.72874,13.35469-8.06504
		l0.05994-0.07293c0.46692-0.53667,1.33294-1.53629,3.21247-1.53629c0.18238,0,0.36708,0.01503,0.55205,0.04414
		c-1.24945-0.91437-2.06324-2.39572-2.06324-4.06402c0-2.77134,2.24234-5.02425,4.99892-5.02425
		c2.75501,0,4.99892,2.2529,4.99892,5.02425c0,2.76976-2.24392,5.02425-4.99892,5.02425c-0.3271,0-0.64697-0.03176-0.95672-0.09237
		c0.21659,0.16592,0.41922,0.35158,0.60258,0.55453c0.60495,0.66589,1.28956,1.8288,1.12314,3.5815
		c-0.22163,2.3845-3.5808,7.56967-9.06716,10.7017c-4.48704,2.56445-9.27932,3.8645-14.25143,3.8645
		c-4.97053,0-9.76518-1.30006-14.25064-3.8645c-5.48793-3.13203-8.8471-8.3172-9.07031-10.7017
		c-0.16484-1.7527,0.51977-2.91562,1.12235-3.5815c0.17083-0.1889,0.35836-0.36282,0.5583-0.51979
		c-0.26445,0.04366-0.53579,0.06636-0.81227,0.06636C5.24313,35.44164,3,33.18715,3,30.41581
		c0-2.76896,2.24313-5.02346,4.99892-5.02346c2.75501,0,4.99971,2.25449,4.99971,5.02346c0,1.65269-0.7983,3.12158-2.02705,4.03813
		c0.13982-0.01679,0.27921-0.02539,0.41727-0.02539c1.87795,0,2.74475,0.99961,3.20931,1.53629l0.06073,0.07293
		C18.45026,40.3755,23.38484,43.34346,28.01884,44.10597z M28.80743,44.61565c-4.96232-0.53227-10.36376-3.64278-14.44588-8.31628
		l-0.06389-0.07214c-0.45352-0.52161-1.21227-1.39994-2.90881-1.39994c-1.00641,0-2.09564,0.5121-2.84177,1.33335
		c-0.54816,0.6096-1.17125,1.67105-1.02061,3.27869c0.21611,2.29809,3.49877,7.32313,8.87076,10.39254
		c4.42473,2.52798,9.15392,3.8098,14.05346,3.8098c4.90112,0,9.62873-1.28262,14.05346-3.8098
		c5.3712-3.0694,8.65544-8.09445,8.86998-10.39254c0.15065-1.60922-0.47166-2.66908-1.0214-3.27869
		c-0.74455-0.82125-1.83615-1.33335-2.84019-1.33335c-1.69812,0-2.45608,0.87912-2.90881,1.39994l-0.06231,0.07214
		c-4.08294,4.67165-9.47936,7.77841-14.44406,8.31323l-1.64746,1.06463C30.44992,45.67722,28.80743,44.61565,28.80743,44.61565z
		 M40.96009,16.33291c-2.48496-2.32014-5.99052-4.50952-10.50938-4.50952c-3.81511,0-6.90767,1.55963-9.27356,3.44116
		c0.04185-0.03164,0.08165-0.06087,0.11885-0.08716l0.05284-0.03647h18.04992l0.07098-0.00079l0.05127,0.0436
		C39.83187,15.42218,40.54737,15.97818,40.96009,16.33291z M3.3983,30.41581c0,2.55097,2.06409,4.62472,4.60062,4.62472
		c2.53732,0,4.60141-2.07137,4.60141-4.62472c0-2.55017-2.06409-4.62234-4.60141-4.62234
		C5.46239,25.79347,3.3983,27.86563,3.3983,30.41581z M48.39967,30.40867c0,2.55097,2.06251,4.62472,4.60141,4.62472
		c2.53732,0,4.60299-2.07375,4.60299-4.62472c0-2.54938-2.06567-4.62393-4.60299-4.62393
		C50.46218,25.78475,48.39967,27.85929,48.39967,30.40867z M39.33251,15.54045H21.47583
		c-0.42118,0.30757-1.10263,0.92114-1.32032,1.13993v21.86793c0.1751,0.11494,10.08619,6.51773,10.29441,6.65329
		c0.20743-0.13556,10.11773-6.53834,10.29678-6.65329V16.67483C40.36495,16.34427,39.62828,15.76796,39.33251,15.54045z
		 M54.97446,18.99987c-0.98275-0.68015-2.62645-1.81849-5.37751-5.74404c-1.64685-2.34328-7.88723-9.99301-19.14703-9.99301
		c-11.25902,0-17.50018,7.64894-19.14388,9.99301c-2.73529,3.89859-4.44997,5.08687-5.37357,5.72739l-0.03392,0.02537
		l0.00079,0.0436c0.03944,1.17085,0.38647,5.04644,3.16751,5.75513c1.92685,0.49228,3.9373-0.70552,6.14178-3.6584
		c0.07966-0.10702,0.19245-0.27032,0.32574-0.45978c1.6295-2.33297,6.58662-9.43493,14.91632-9.43493
		s13.28682,7.10196,14.91475,9.43414c0.13487,0.19025,0.24766,0.35355,0.32653,0.46057
		c2.20369,2.95288,4.21257,4.15067,6.14415,3.6584c2.79129-0.71186,3.13438-4.5724,3.17146-5.73849l0.00158-0.0436
		L54.97446,18.99987z M15.32616,18.50046l-2.54679-2.15064l1.62004,3.26521l-0.35729,0.42727l-3.40018-1.10901l2.53417,2.1451
		l-0.54343,0.65082l-3.58948-3.02898l0.7485-0.89656l3.49877,1.14865l-1.63108-3.3857l0.86996-1.04005l3.59105,3.0266
		L15.32616,18.50046z M18.87226,14.60029l-1.22804-0.52399l-1.08528,1.17085l0.61047,1.18828l-0.55053,0.59137l-2.24471-4.48758
		l0.79976-0.86327l4.60062,1.94929L18.87226,14.60029z M23.24178,11.34459l-3.95544-1.47366l1.76911,2.84665l-0.94647,0.59454
		l-2.4829-3.99371l0.87154-0.55015l3.9168,1.47049l-1.75806-2.82604l0.95436-0.5985l2.48527,3.99609L23.24178,11.34459z
		 M26.9748,10.17375c-2.32752,0.49703-3.06655-1.0345-3.25585-1.8613c-0.33284-1.5347,0.67436-2.66591,2.20921-2.99489
		c0.68777-0.14665,1.13103-0.04756,1.49936,0.10305L27.28635,6.0199l-0.0071,0.00159
		c-0.2098-0.08641-0.54501-0.22989-1.09002-0.11415c-0.77374,0.1633-1.45204,0.97663-1.20438,2.14668
		c0.168,0.79113,0.83762,1.71148,1.96313,1.47128c0.53712-0.11494,0.77768-0.37496,0.93464-0.55411l0.42985,0.49228
		C27.97096,9.78611,27.61998,10.0485,26.9748,10.17375z M33.18442,9.82574l-1.23199-0.0222l0.03944-2.15302l-1.84403-0.03409
		l-0.03628,2.15461l-1.23277-0.0222l0.08124-4.71033l1.23199,0.0222l-0.03391,1.92472l1.84246,0.03171l0.03234-1.92472
		l1.23198,0.02299L33.18442,9.82574z M37.17693,10.3093l-0.20665,0.59771l-2.8536-0.98773l1.5246-4.45508l2.58938,0.89577
		l-0.20192,0.59295l-1.41891-0.49069l-0.4196,1.22713l1.37948,0.47722l-0.20349,0.59929l-1.38184-0.47722l-0.49453,1.43561
		L37.17693,10.3093z M40.59999,9.47774c0.08597,0.19659,0.21532,0.35197,0.32022,0.57631
		c0.38805,0.76735,0.3849,1.1978,0.05994,1.71703c-0.44484,0.74357-1.39998,0.82918-2.27389,0.30203
		c-0.7067-0.42648-1.02771-0.92431-1.16494-1.39677l0.62073-0.27111c0.10096,0.34721,0.21374,0.70393,0.69723,1.00992
		c0.37386,0.23464,0.76506,0.1522,0.98906-0.22117c0.18219-0.3052-0.08124-0.78241-0.30208-1.16609
		c-0.09701-0.18233-0.25949-0.46612-0.25949-0.46612c-0.25555-0.48831-0.35256-0.96236-0.01104-1.5355
		c0.33994-0.56838,1.15784-0.72692,2.15952-0.12446c0.5805,0.35197,0.8392,0.77131,1.01509,1.23505l-0.57182,0.24654
		c-0.07099-0.2505-0.2169-0.61198-0.57892-0.82998c-0.34467-0.20769-0.72247-0.18867-0.88258,0.08244
		C40.26873,8.88717,40.42884,9.15114,40.59999,9.47774z M41.35322,13.81629l2.71873-3.03452l-0.98433-0.89419l0.42197-0.45819
		l2.86701,2.59377l-0.41645,0.46295l-0.96934-0.87754l-2.71951,3.0369L41.35322,13.81629z M46.00116,17.87501l-0.48349,0.40508
		l-1.93789-2.32425l3.58869-3.02898l1.76122,2.10863l-0.47639,0.4027l-0.9654-1.15499l-0.98906,0.83473l0.93779,1.12407
		l-0.48191,0.40587l-0.93937-1.12249l-1.15863,0.97584L46.00116,17.87501z M32.58326,2.42793l0.03249,0.07626l-0.48428-0.03964
		c-0.32969-0.06025-1.2446-0.07055-1.6019-0.07055c-0.35808,0-1.13261,0-1.59874,0.04201l-0.63098,0.08403
		C29.25737,0.67302,30.13758,0,30.62107,0c0.6081,0,1.31874,0.97346,1.87479,2.22278l0.07963,0.18692
		c1.30583-1.03244,2.60381-1.73114,3.89317-1.73114c0.81633,0,2.46791,0.55252,2.8394,3.48241l-0.39594-0.16013
		c-0.0205-0.00713-0.04022-0.01348-0.05915-0.01823c-0.1396-0.80857-0.38016-1.4586-0.70196-1.93423
		c0.02287,0.41856-0.3147,0.86406-0.99063,0.86406c-0.67278,0-1.05058-0.39319-1.05058-0.62625
		c0-0.23702,0.14512-0.57631,0.50794-0.57631c0.36281,0,0.43853,0.26239,0.41487,0.36465
		c-0.02603,0.10543,0.05048,0.13238,0.15459,0.15854c0.10332,0.02537,0.38726-0.13159,0.28394-0.49703
		c-0.112-0.40032-0.59549-0.61991-1.16889-0.61991c-1.07503,0-2.26127,0.77449-3.31185,1.51092
		c-0.02208-0.00238-0.04496-0.00396-0.0694-0.00872L32.58326,2.42793z M51.17992,19.67368
		c-0.79188,0.7182-1.50646,0.36148-1.51751,0.34959l-0.71301,2.14034l-1.04585-0.84504l0.88021-1.98497l-0.40935-0.45423
		l-1.38342,1.2517l-0.82421-0.92035l3.48458-3.15264l1.27694,1.42531C51.62081,18.25393,51.84165,19.07677,51.17992,19.67368z
		 M17.06766,13.8147l-0.81317,0.87754l-0.8321-1.61794L17.06766,13.8147z M50.01497,17.397l-1.18624,1.07096l0.21138,0.23782
		c0.35571,0.39953,0.82895,0.47087,1.19965,0.13238c0.3778-0.33849,0.37307-0.77131,0.04654-1.13517L50.01497,17.397z
		 M30.52642,2.28779c0.35335,0,1.32032,0.04518,1.53249,0.06262c-0.34467-0.79589-0.99142-1.89777-1.44257-1.89777
		c-0.08913,0-0.28473-0.04836-0.65543,0.38209c0,0-0.05837,0.18787,0.17825,0.1522c0.29814-0.04677,0.41171,0.26477,0.38805,0.41776
		c-0.05206,0.35831-0.46771,0.70631-0.88337,0.70631c-0.41487,0-0.54343-0.06659-0.54343-0.06659
		c-0.05915,0.0975-0.11515,0.17123-0.18062,0.28141C29.29917,2.30522,30.17623,2.28779,30.52642,2.28779z M24.43433,0.67857
		c1.29429,0,2.59569,0.70235,3.90654,1.74002l-0.35729,0.20056c-0.01735,0.00317-0.03312,0.00634-0.05048,0.00713
		c-1.05768-0.73881-2.24944-1.52202-3.33235-1.52202c-0.56946,0-1.05294,0.218-1.16731,0.6207
		c-0.1049,0.36386,0.18062,0.52082,0.28394,0.49545c0.10411-0.02695,0.18377-0.05153,0.15617-0.15775
		C23.84752,1.96039,23.92639,1.6988,24.2892,1.6988c0.36518,0,0.50557,0.33928,0.50557,0.57234
		c0,0.23623-0.37622,0.62783-1.04979,0.62783c-0.67593,0-1.01509-0.44551-0.99063-0.86089
		c-0.32338,0.47325-0.56078,1.12328-0.70117,1.93106c1.32426-0.4463,2.5736-0.82918,4.00908-1.0884
		c-1.45519,0.26952-2.72188,0.66588-4.06981,1.1209L21.5965,4.16256C21.96878,1.23188,23.62115,0.67857,24.43433,0.67857z
		 M10.2736,10.80554c0.48349,0.73881,0.4125,1.7852,0.32417,2.16491l-1.51829,2.07058
		c-0.51582,0.65954-1.9726,2.06345-2.37721,2.39163l-0.02682-1.29134c-0.39278,0.29727-1.15942,0.32026-1.59716-0.14824
		c-0.20034-0.21483-0.33205-0.55649-0.31549-0.89656c0.02051-0.38288,0.27448-0.79906,0.4969-1.02181
		c1.61215-1.59099,3.06734-3.20655,3.06734-3.20655c0.14434-0.23306,0.38095-0.40746,0.51109-0.46691
		C9.04083,10.31168,9.74042,9.99063,10.2736,10.80554z M6.63917,15.66491c1.51671-1.42689,2.12324-2.4384,2.35907-2.85141
		c-0.42433-0.20928-0.58208-0.46612-0.70748-0.64289c0,0-0.16405-0.31867-0.18377-0.50734
		c-0.93464,1.04005-2.23839,2.36389-2.54205,2.62548c-0.17273,0.14824-0.35177,0.4899-0.36597,0.784
		C5.1824,15.32721,5.27152,15.546,5.40718,15.70058C5.76132,16.10011,6.38835,15.90351,6.63917,15.66491z M10.21445,13.14327
		c0.06389-0.27983,0.1822-1.46574-0.26817-2.09515c-0.41723-0.58106-0.79503-0.38526-1.00089-0.29251
		c-0.0907,0.04043-0.36439,0.21879-0.41881,0.57314C8.4974,11.5174,8.55734,11.8004,8.70247,12.00493
		c0.28631,0.37099,0.93464,0.61832,0.93464,0.61832s-0.83289,1.633-2.59569,3.25966l0.00552,1.04322
		C9.3926,14.58205,10.21445,13.14327,10.21445,13.14327z M56.21275,15.09653c0.01972,0.34087-0.09228,0.66668-0.29261,0.88229
		c-0.43774,0.47087-1.18387,0.45978-1.57508,0.16251l-0.0276,1.29134c-0.40462-0.32819-1.86454-1.7313-2.37958-2.39163
		l-1.5175-2.07058c-0.08834-0.3805-0.15854-1.4261,0.32259-2.16491c0.53476-0.81491,1.23514-0.49386,1.43547-0.40429
		c0.13093,0.05945,0.36913,0.23385,0.51267,0.46691c0,0,1.42759,1.58227,3.04526,3.16612
		C56.02504,14.3157,56.19461,14.71444,56.21275,15.09653z M53.97042,16.99192l0.00315-1.10346
		c-1.76043-1.62587-2.59332-3.26441-2.59332-3.26441s0.64912-0.24733,0.93621-0.61832
		c0.14513-0.20531,0.20428-0.48752,0.1751-0.67619c-0.05285-0.35434-0.32811-0.53271-0.4196-0.57314
		c-0.20428-0.09196-0.58602-0.28776-1.0001,0.29251c-0.44957,0.62862-0.35887,1.82246-0.29577,2.10308
		C50.77609,13.15199,51.55692,14.65498,53.97042,16.99192z M55.61175,15.70137c0.13882-0.15141,0.2098-0.37337,0.19166-0.62863
		c-0.01341-0.2941-0.1814-0.60167-0.35492-0.74912c-0.3005-0.2616-1.65237-1.63379-2.58938-2.66195
		c-0.0205,0.18867-0.01104,0.3805-0.18219,0.6207c0,0-0.28157,0.31788-0.70985,0.52716
		c0.24056,0.41538,0.86286,1.48001,2.40876,2.91086C54.62979,15.95346,55.28522,16.04858,55.61175,15.70137z M7.99971,26.36106
		c2.22735,0,4.03511,1.81453,4.03511,4.05396s-1.80775,4.05793-4.03511,4.05793c-2.22814,0-4.03589-1.8185-4.03589-4.05793
		S5.77157,26.36106,7.99971,26.36106z M10.13479,27.32024c0,0-0.00789,0.26239-0.17904,0.45819
		c-0.17431,0.19659-0.50951,0.34562-0.8534,0.44551c0,0-0.16563,0.09592-0.26264,0.24733
		c-0.14512,0.23227-0.66647,1.49031-0.68777,2.23071c-0.00868,0.24971,0.20112,0.45819,0.53397,0.40904
		c0.336-0.04836,0.91571-0.0325,1.85034-0.90766c0.20586-0.19501,0.91176-1.01864,0.68225-1.56958
		c-0.18141-0.43679-0.49453-0.80064-0.83999-1.11218C10.3785,27.5216,10.2034,27.37653,10.13479,27.32024z M6.78429,26.79071
		c-0.13487,0.04677-0.21769,0.26715-0.21848,0.37971c0,0.1094,0.09544,0.36148,0.52529,0.49545
		c0.42907,0.13556,1.03559,0.33373,1.52854,0.33373c0.49532,0,1.23672-0.16092,1.23672-0.63417
		c0-0.14824-0.03707-0.24971-0.16563-0.32977c-0.50715-0.32422-1.10185-0.43996-1.7273-0.43996
		C7.55014,26.5957,7.15499,26.66625,6.78429,26.79071z M5.20211,32.58706c0.10411,0.1094,0.16405,0.01348,0.12383-0.18391
		c-0.0418-0.19342-0.16563-1.38091-0.02839-2.26876c0.03628-0.23623-0.35414-0.53667-0.4267-0.66192
		c-0.07177-0.12763-0.15143-0.22196-0.21059-0.31392c-0.08124-0.13159-0.168,0.01982-0.168,0.01982
		C4.3921,29.51528,4.33688,29.872,4.33688,30.23745C4.33688,31.18792,4.69733,32.08844,5.20211,32.58706z M5.29755,29.53748
		c0.17825,0.09909,0.20743-0.01427,0.23504-0.12287c0.11831-0.48514,0.60495-1.34445,0.71616-1.48318
		c0.11042-0.13714,0.07414-0.3155,0.07256-0.39953c-0.00237-0.08561-0.04338-0.22038-0.04338-0.30678
		c0-0.15458-0.09701-0.1522-0.15932-0.12446c-0.54501,0.25446-0.96619,0.73247-1.25959,1.25646
		c-0.06783,0.11811-0.0702,0.39081-0.02208,0.48831C4.90713,28.98257,5.11851,29.43997,5.29755,29.53748z M8.03994,33.88237
		c0.20822,0.00634,0.2098-0.13556,0.07177-0.50417c-0.21059-0.566-0.33521-1.49665-0.2934-2.4273
		c0.04575-1.02895,0.4614-1.90094,0.58681-2.26242c0.12383-0.36069-0.08282-0.4027-0.27605-0.44392
		c-0.19166-0.04202-0.45036-0.09751-0.57892-0.13318c-0.23662-0.07293-0.31707-0.11574-0.52371-0.17123
		c-0.20743-0.0547-0.4827-0.02854-0.60653,0.19501c-0.12383,0.22117-0.9023,1.3603-0.9023,3.25966
		c0,0.58899,0.168,1.73843,0.6152,1.98973c0.43301,0.24257,1.16258,0.49862,1.83063,0.49862
		C7.98867,33.88316,8.0147,33.88237,8.03994,33.88237z M8.99035,33.73175c1.4899-0.48356,2.59805-1.84149,2.59726-3.49351
		c0-0.24495-0.04811-0.47404-0.0702-0.60088c-0.02839-0.15617-0.14434-0.17519-0.19797-0.06817
		c-0.05284,0.10702-0.30839,0.65796-0.89757,1.14389c-0.58996,0.4899-1.23277,0.75467-2.13744,0.77607
		c-0.1049,0.00317-0.1609,0.16964-0.1609,0.32581c0,0.15141,0.09544,1.30085,0.46929,1.72654
		C8.68669,33.6501,8.78449,33.79913,8.99035,33.73175z M53.00108,26.35392c2.22735,0,4.03589,1.81691,4.03589,4.05475
		c0,2.23705-1.80854,4.05475-4.03589,4.05475c-2.22893,0-4.03432-1.8177-4.03432-4.05475
		C48.96676,28.17083,50.77214,26.35392,53.00108,26.35392z M51.30927,27.02615c-0.12935,0.08244-0.16642,0.1847-0.16642,0.33215
		c0,0.47246,0.74061,0.63338,1.23514,0.63338c0.49295,0,1.10027-0.19659,1.53012-0.33136
		c0.42985-0.13556,0.52371-0.38764,0.52371-0.49862c0-0.11019-0.08203-0.33215-0.21769-0.37971
		c-0.37149-0.12525-0.76585-0.19422-1.17677-0.19422C52.41032,26.58777,51.81799,26.70668,51.30927,27.02615z M49.78151,28.62585
		c-0.22794,0.55094,0.4756,1.37616,0.68382,1.568c0.93542,0.87595,1.51435,0.86089,1.84719,0.90845
		c0.33284,0.04836,0.54659-0.15775,0.5387-0.40983c-0.02287-0.73802-0.54107-1.99527-0.68856-2.22912
		c-0.09701-0.153-0.26343-0.24891-0.26343-0.24891c-0.34309-0.09592-0.6783-0.24495-0.85261-0.44313
		c-0.17273-0.19501-0.18061-0.4574-0.18061-0.4574c-0.06941,0.05708-0.24372,0.19977-0.24372,0.19977
		C50.27446,27.82362,49.96292,28.18748,49.78151,28.62585z M52.00886,33.72541c0.20665,0.0658,0.30366-0.08323,0.40067-0.19342
		c0.37149-0.4249,0.46692-1.57593,0.46692-1.72971c0-0.14903-0.05285-0.31709-0.16011-0.32026
		c-0.90388-0.02457-1.54826-0.28855-2.13823-0.77607c-0.58839-0.48594-0.84551-1.0337-0.89836-1.14706
		c-0.05127-0.10622-0.17036-0.08561-0.19876,0.06976c-0.0213,0.12683-0.06783,0.35752-0.06783,0.60088
		C49.41318,31.88392,50.51739,33.24026,52.00886,33.72541z M54.86641,33.37661c0.44641-0.25288,0.61441-1.40153,0.61599-1.99527
		c0-1.8938-0.77847-3.03452-0.9023-3.25728c-0.12383-0.22275-0.40067-0.2505-0.60574-0.19342
		c-0.20822,0.05549-0.28946,0.09513-0.52529,0.16806c-0.12777,0.04122-0.38647,0.09354-0.57892,0.13714
		c-0.19245,0.04201-0.40067,0.08403-0.27369,0.44234c0.12225,0.36069,0.53791,1.23268,0.58444,2.26242
		c0.0418,0.93303-0.08439,1.86051-0.29498,2.42731c-0.13566,0.37258-0.13172,0.51447,0.07493,0.50496c0.02445,0,0.04969,0,0.0773,0
		C53.70541,33.87285,54.4334,33.62077,54.86641,33.37661z M55.46741,29.40272c0.02761,0.11257,0.05679,0.22672,0.23583,0.12683
		c0.17825-0.10068,0.3912-0.5557,0.45904-0.69363c0.05048-0.09751,0.0489-0.3702-0.01972-0.48752
		c-0.29419-0.52557-0.71537-1.002-1.2588-1.25487c-0.05994-0.02854-0.15774-0.0325-0.15774,0.12287
		c0,0.08641-0.04417,0.22355-0.04575,0.30678c-0.00158,0.08323-0.03865,0.26081,0.07256,0.40032
		C54.86167,28.06144,55.35147,28.91995,55.46741,29.40272z M55.79789,32.58152c0.50557-0.50338,0.86286-1.40232,0.86286-2.3512
		c0-0.36703-0.05206-0.72217-0.15222-1.05749c0,0-0.08597-0.15141-0.168-0.02299c-0.06152,0.09275-0.13881,0.18708-0.21138,0.31709
		c-0.07098,0.12525-0.46377,0.4241-0.4267,0.66113c0.13724,0.88864,0.01262,2.07454-0.0276,2.26876
		C55.63147,32.59182,55.69299,32.68298,55.79789,32.58152z M51.93314,36.54749c0.47324,0.51923,1.00878,1.43641,0.87943,2.83635
		c-0.18141,1.91124-3.20458,6.87525-8.58683,9.95099c-4.33955,2.48042-8.97566,3.73608-13.77504,3.73608
		c-4.80095,0-9.43549-1.25567-13.77425-3.73608c-5.38224-3.07574-8.40542-8.03975-8.58603-9.95099
		c-0.1325-1.39994,0.40383-2.31712,0.87548-2.83635c0.63256-0.69838,1.58218-1.14706,2.42138-1.14706
		c1.44021,0,2.042,0.69284,2.4829,1.20255l0.06389,0.07293c4.62586,5.29694,10.95536,8.58355,16.51585,8.58355
		c5.56128,0,11.89-3.28503,16.51427-8.58355l0.06783-0.07293c0.44011-0.50972,1.04111-1.20255,2.48132-1.20255
		C50.35176,35.40042,51.2998,35.8491,51.93314,36.54749z M17.4983,48.1616c0.85261,0.47484,2.0909,0.82839,2.8954-0.62863
		l1.47728-2.67542l-1.12314-0.62545l-1.38894,2.51767c-0.41802,0.76101-0.84945,1.2406-1.55615,0.82918
		c-0.6996-0.38843-0.5387-0.97346-0.10963-1.75111l1.39131-2.52005l-1.11999-0.62546l-1.46939,2.66274
		C15.68503,46.81557,16.70564,47.72085,17.4983,48.1616z M26.29335,51.09862l1.21384-4.5502l-1.08686-0.29172l-0.85655,3.21685
		l-1.59953-3.88036l-0.99773-0.26952l-1.21148,4.55179l1.07818,0.29093l0.86602-3.2438l1.62635,3.91444L26.29335,51.09862z
		 M29.90333,51.53382l0.24687-4.70478l-1.23041-0.06262l-0.24529,4.70399L29.90333,51.53382z M34.44085,51.09783L33.87376,47.051
		l1.29508-0.18232l-0.08597-0.61911l-3.8261,0.54063l0.08597,0.61911l1.31007-0.18391l0.56788,4.04286L34.44085,51.09783z
		 M37.5989,50.40975l2.87253-0.93541l-0.19876-0.60247l-1.69102,0.55252l-0.46692-1.44513l1.38657-0.45264l-0.1956-0.60167
		l-1.38815,0.45106l-0.39909-1.23585l1.4268-0.46533l-0.19245-0.59612l-2.60515,0.85138L37.5989,50.40975z M43.89685,47.72957
		c1.64212-0.95522,1.7904-2.39005,1.15154-3.5379c-0.77847-1.36586-2.05462-1.39836-3.4901-0.56363l-1.58849,0.92193
		l2.35118,4.09122L43.89685,47.72957z M41.82014,44.19642c1.10263-0.63417,1.72336-0.06738,2.13428,0.6754
		c0.59706,1.04956,0.47718,1.81612-0.44405,2.34962l-0.43616,0.24812l-1.72257-2.99648L41.82014,44.19642z M46.28352,52.9409
		v0.85217h-0.25949v-1.88429h0.67042c0.31391,0,0.63886,0.09671,0.63886,0.4685c0,0.22751-0.13566,0.40349-0.35413,0.45343v0.00555
		c0.22636,0.0547,0.25712,0.17519,0.2863,0.38526c0.02682,0.18867,0.04969,0.38843,0.11515,0.57155h-0.27526
		c-0.02603-0.11574-0.05758-0.2394-0.06862-0.34959c-0.01972-0.17044-0.01972-0.32185-0.10806-0.41697
		c-0.07256-0.08403-0.18062-0.07848-0.28078-0.08403L46.28352,52.9409z M46.278,52.71577h0.42828
		c0.2863-0.01506,0.35256-0.14348,0.35256-0.29251c0-0.14983-0.06625-0.27983-0.35256-0.29251H46.278V52.71577z M45.23058,52.87273
		c0-0.80144,0.64675-1.45464,1.44257-1.45464s1.44573,0.6532,1.44573,1.45464s-0.64991,1.45147-1.44573,1.45147
		S45.23058,53.67416,45.23058,52.87273z M45.42303,52.87273c0,0.69204,0.56078,1.25487,1.25013,1.25487
		s1.24855-0.56283,1.24855-1.25487c0-0.69363-0.5592-1.25805-1.24855-1.25805S45.42303,52.1791,45.42303,52.87273z
		 M20.77623,16.1334h19.36314v5.28584h-3.80006v-0.87754h-1.41024v-0.57948h1.14759v-2.5581h-1.05215l-0.35887-0.70076
		l-0.35729,0.70076h-1.05373v2.5581h1.14759v0.57948h-2.75422v-0.57948H32.794v-2.5581h-1.05373l-0.35571-0.70076l-0.35887,0.70076
		h-1.05373v2.5581h1.14996v0.57948h-2.80943v-0.57948h1.14523v-2.5581h-1.05216l-0.35887-0.70076l-0.3565,0.70076h-1.05295v2.5581
		h1.14602v0.57948l-2.21947,0.00793l-2.21237-0.52081l0.41644,1.39043h-2.99162V16.1334z M26.3943,18.03355v-0.56362
		l-2.27941,2.44316l1.48516,0.36703L26.3943,18.03355z M37.19586,29.14825h-1.57666v1.1756
		c0.35571,0.33928,0.69329,1.10346,0.69329,1.56166c0,0.45898-0.29893,0.66113-0.29893,0.66113
		c0.10017,0.36069,0.08124,0.5121,0.0418,0.83791c-0.0418,0.33849-0.45746,0.85931-0.45746,0.85931v6.09283
		c0,0.41539-0.95277,0.37496-0.95277,0.02299v-5.97313c-0.5387-0.5993-2.00967-1.05907-2.00967-1.05907
		c-0.53397,0.53984-0.87233,1.48-0.87233,1.48c0.23977,0.15934,0.59548,0,0.7343-0.16092
		c0.13803-0.15934,0.41802-0.19976,0.57813-0.09909c0.15696,0.09909,0.19876,0.13951,0.13803,0.37892
		c-0.05836,0.24019-0.15853,0.63734-0.15853,0.91718c0,0.28062,0.31628,0.22038,0.55762,0.24257
		c0.47323,0.03646,0.55447,0.57631,0.51661,0.87674c-0.04338,0.29885-0.17983,0.93858-0.17983,1.33811
		c0,0.40032,0.01577,0.79827,0.05679,1.01706c0.04022,0.22196,0.12146,0.45978,0.10017,0.7404
		c-0.0276,0.3805-0.26028,0.44154-0.49611,0.19897c-0.24056-0.2394-3.55951-3.79633-3.55951-3.79633
		c-0.21848,0.71979,0.69565,1.96039,0.99458,2.3401c0.29735,0.37733,0.27842,0.65875,0.01814,0.91876
		c-0.25791,0.2608-0.75323,0.39953-0.85419,0.64052c-0.09859,0.24019,0.23977,0.95681,0.93621,1.85654
		c0.69408,0.90053-0.79582,1.49903-1.69102,1.67818s-0.8952-0.43758-0.83526-0.77766
		c0.05915-0.34008,0.05915-0.53826,0.04101-0.84187c-0.02051-0.29727-0.29735-0.7182-0.67436-1.21524
		c-0.37938-0.50338-0.37938-0.96157-0.22005-2.12132c0.15853-1.15737,0.11989-1.89618,0.11989-1.89618s-0.39909,0.01902-0.97407,0
		c-0.57734-0.01982-1.05373-0.35672-1.09317-1.75666c-0.04101-1.39756-0.07256-4.7357-0.16563-5.08053
		c-0.09544-0.34721-0.46377-0.41221-0.62388-0.45423c-0.15853-0.03884-0.16957-0.27745-0.01262-0.35989
		c0.41408-0.20611,0.91176-0.71662,0.72878-1.03687c-0.18851-0.31947-0.91729-0.25526-1.4055-0.01268
		c-0.48901,0.23861-1.00799,0.75705-1.1397,0.90608c-0.13251,0.1419-0.2382,0.1419-0.224-0.01585
		c0.01104-0.16013-0.09386-0.92035-0.1609-1.1867c-0.06704-0.26477-0.30445-0.77211-0.38332-0.90528
		c-0.07966-0.13159,0-0.1855,0.13172-0.13159c0.13093,0.05391,0.42354,0.17281,0.70275,0.25208
		c0.27921,0.07848,0.54343-0.0547,0.67594-0.32105c0.13251-0.26398,0.38411-0.8379,0.51583-1.08999
		c0.13408-0.25526,0.34546-0.20056,0.51582-0.16092c0.17352,0.03964,0.33442,0.14665,0.49295,0.21324
		c0.15932,0.0658,0.29025,0.05391,0.34388-0.02695c0.05284-0.07927,0.11831-0.10781,0.21138-0.30678
		c0.09386-0.20056,0.21296-0.10622,0.22479-0.02695c0.4756,2.86568,1.71153,2.99727,1.71153,2.99727
		c-0.18614,0.48118-0.62388,1.23981-0.72799,1.4261c-0.10727,0.18708-0.1467,0.43758-0.17431,0.63893
		c-0.02682,0.20214,0.06625,2.09436,0.19797,2.78323c0.13408,0.69284,0.55842,0.42648,0.69092,0.21483
		c0.13251-0.21562,0.54185-1.09158,0.54185-1.09158s0.10727-0.24178,0.10727-0.44154c0-0.19818-0.34388-0.63972-0.42433-0.77211
		c-0.07887-0.13476-0.37149-0.39874-0.37149-1.06779c0-0.6643,0.59627-1.13042,0.80765-1.30481
		c0.21296-0.17123,0.21296-0.41063,0.18693-0.55887c-0.09544-0.51368-0.63729-1.59733-0.9023-2.01033
		c-0.26501-0.41221-0.78162-1.20018-0.78162-1.20018h1.07266l0.69092-1.43641l0.75323,1.44433l0.78478,0.00714l0.81317-1.42214
		l0.6365,1.42214h1.05373c-0.6365,0.59771-0.8952,1.50537-0.8952,2.10308v0.65875c0,0.27824-0.13881,0.74119-0.13881,0.74119
		s0.91334,0.69839,1.05531,0.81888c0.05915,0.04756,0.12225,0.07769,0.07887,0.1958
		c-0.07335,0.20848-0.69013,0.48594-0.75639,0.54143c-0.13881,0.1197-0.17509,0.19977-0.13724,0.31788
		c0.03865,0.12208,0.15696,0.14427,0.39515,0.06183c0.23977-0.07848,0.7343-0.3377,1.15311-0.51764
		c0.41566-0.18153,0.97486-0.1419,0.97486-0.1419v-0.80065H33.074v-2.55493l-0.28-0.44551l0.69644-1.23823l0.69566,1.24536
		l-0.27842,0.43837v1.33811h0.80529v-1.33811l-0.27921-0.43837l0.69487-1.23902l0.69723,1.23902l-0.27921,0.43837v1.33811h0.80686
		v-1.33811l-0.27999-0.43837l0.69644-1.23902l0.69644,1.23902l-0.27921,0.43837L37.19586,29.14825z M29.61466,26.92785
		c0.16879-0.09037,0.13408-0.33453,0.0142-0.52478c-0.1191-0.18867-0.36597-0.40191-0.43853-0.3702
		c-0.07887,0.03646-0.03313,0.39953-0.0071,0.56917C29.22661,26.9009,29.44508,27.01822,29.61466,26.92785z M30.23538,29.53748
		c0.35256-0.58027,0.50005-1.18591,0.50005-1.18591h-1.01035C29.72508,28.35157,29.88835,28.97227,30.23538,29.53748z
		 M31.18422,26.60204c0.03155-0.17519,0.08834-0.53271,0.00394-0.56917c-0.07414-0.03171-0.33599,0.18074-0.45351,0.3702
		c-0.11673,0.19025-0.15222,0.43441,0.01656,0.52478C30.92078,27.01822,31.13216,26.9009,31.18422,26.60204z M34.64434,32.42773
		v-0.81967c0,0-0.21848-0.34008-0.75639-0.34008c-0.53633,0-0.85498,0.15934-0.85498,0.29806
		C33.03298,31.788,33.51016,32.42773,34.64434,32.42773z M20.77623,22.10178h19.36314v1.32542H20.77623V22.10178z
		 M22.87976,52.68723c2.86464,0.85217,5.68511,0.94492,5.68511,0.94334l-0.19481,0.1744
		c-0.35966,0.58503-1.24145,1.58861-2.87253,1.58861c-1.68471,0-2.54284-1.4047-3.02002-2.65719L22.87976,52.68723z
		 M33.09988,54.06974C32.78274,54.82103,32.05009,56,30.58242,56c-1.94893,0-2.6296-2.12369-2.66036-2.20693l-0.05915-0.20452
		c0,0,1.68077,0.13952,2.60515,0.13952c0.64,0,1.59587-0.04225,2.20913-0.08534l-0.01963-0.01216
		c0,0,0.16916-0.00552,0.46665-0.02635c0.04729-0.00548,0.08424-0.01074,0.10912-0.01567l-0.00038,0.00777
		c0.96955-0.07276,3.02742-0.29042,5.10736-0.9091l0.40146,0.04915c-0.47718,1.25329-1.33452,2.65719-3.01923,2.65719
		C34.30689,55.39357,33.51094,54.67682,33.09988,54.06974z M25.53933,54.96392c1.45677,0,2.1958-1.04163,2.1958-1.04242
		c-0.23819-0.01268-0.4685-0.06421-0.4685-0.06421c-0.22636,0.29648-0.67673,0.61119-1.06004,0.61119
		c-0.3849,0-0.49847-0.16885-0.51188-0.30044c-0.01893-0.18708,0.14591-0.30282,0.25397-0.28221
		c0.05048,0.00793,0.06941,0.0436,0.21375,0.05311c0.38016,0.0222,0.43301-0.15934,0.43301-0.15934
		c-1.73598-0.21165-2.47028-0.43758-3.50351-0.7182C23.34431,53.52751,23.93428,54.96392,25.53933,54.96392z M30.60056,55.59888
		c1.58454,0,2.19344-1.82563,2.19344-1.82563c-0.10017,0.0103-0.44011,0.02695-0.44011,0.02695
		c-0.12225,0.33928-0.56236,1.14786-1.13892,1.14786c-0.25712,0-0.41014-0.15934-0.41723-0.34721
		c-0.00631-0.24178,0.23267-0.37337,0.39278-0.37337c0.31707,0,0.51583,0,0.77926-0.38209
		c-0.22794,0.01031-0.73588,0.03092-1.49857,0.03092c-0.76585,0-2.10116-0.08324-2.10116-0.08324
		S29.01838,55.59888,30.60056,55.59888z M35.68309,54.96392c1.6019,0,2.1958-1.4372,2.45056-1.90094
		c-1.03559,0.27904-1.76989,0.50496-3.50666,0.719c0,0,0.05363,0.17915,0.43143,0.15775
		c0.1467-0.00713,0.16327-0.0428,0.21769-0.05232c0.10648-0.02219,0.26974,0.09513,0.2516,0.283
		c-0.01183,0.13-0.12383,0.29885-0.5103,0.29885s-0.8321-0.3155-1.06004-0.61039c0,0-0.23031,0.05232-0.46929,0.06421
		C33.48808,53.92308,34.22553,54.96392,35.68309,54.96392z"/>
</g>
</svg>
