<?xml version="1.0" encoding="UTF-8"?>
<svg viewBox="0 0 120 56" version="1.1" xmlns="http://www.w3.org/2000/svg" xmlns:xlink="http://www.w3.org/1999/xlink">
    <!-- Generator: Sketch 57.1 (83088) - https://sketch.com -->
    <title>Icon Footer / Partner / partner_FIA_WEC</title>
    <desc>Created with Sketch.</desc>
    <g id="Icon-Footer-/-Partner-/-partner_FIA_WEC" stroke="none" stroke-width="1" fill="none" fill-rule="evenodd">
        <g id="WEC" transform="translate(0.000000, 4.000000)">
            <path d="M2.34945382,43.0498846 C3.72152543,43.0498846 4.69161921,43.7090264 4.69161921,44.6110099 L4.69161921,45.1262927 L3.49427906,45.1262927 L3.49427906,44.7020358 C3.49427906,44.3306121 3.0318295,44.0880887 2.34945382,44.0880887 C1.67503495,44.0880887 1.21290367,44.3764433 1.21290367,44.8990463 L1.21290367,46.7106519 C1.21290367,47.2412117 1.67503495,47.5216095 2.34945382,47.5216095 C3.0318295,47.5216095 3.49427906,47.2790861 3.49427906,46.9079807 L3.49427906,46.4378926 L4.69161921,46.4378926 L4.69161921,46.9986883 C4.69161921,47.9006718 3.72152543,48.5677704 2.34945382,48.5677704 C0.985339017,48.5677704 -3.18272233e-05,47.8780745 -3.18272233e-05,46.8016777 L-3.18272233e-05,44.8083387 C-3.18272233e-05,43.731942 0.985339017,43.0498846 2.34945382,43.0498846 Z M39.3138142,43.0497573 C40.6632884,43.0497573 41.7622825,43.7168559 41.7622825,44.8082114 L41.7622825,46.8015504 C41.7622825,47.8932242 40.6632884,48.5676431 39.3138142,48.5676431 C37.9573379,48.5676431 36.8580256,47.8932242 36.8580256,46.8015504 L36.8580256,44.8082114 C36.8580256,43.7168559 37.9573379,43.0497573 39.3138142,43.0497573 Z M52.6480841,43.0648434 C54.2397636,43.0648434 54.9676522,43.8532038 54.9676522,44.7399102 L54.9676522,44.9900722 L53.7925911,44.9900722 L53.7925911,44.8309361 C53.7925911,44.4518738 53.4895959,44.1033657 52.6480841,44.1033657 C51.9205138,44.1033657 51.5793259,44.3458892 51.5793259,44.6488843 L51.5793259,44.6943973 C51.5793259,45.1262927 52.1553987,45.2099983 52.8527332,45.255193 C53.9291299,45.3462188 55.1038727,45.7026837 55.1038727,46.7714419 L55.1038727,46.9531753 C55.1038727,47.9159488 54.3081921,48.5601319 52.73911,48.5601319 C51.1623893,48.5601319 50.2604058,47.824923 50.2604058,46.8548292 L50.2604058,46.6123058 L51.4504257,46.6123058 L51.4504257,46.7714419 C51.4504257,47.1425473 51.8899596,47.5142893 52.73911,47.5142893 C53.5121932,47.5142893 53.9138528,47.2641273 53.9138528,46.9153009 L53.9138528,46.8701063 C53.9138528,46.5289184 53.3909315,46.414977 52.67832,46.3694641 C51.5188542,46.2711179 50.3893061,45.8920557 50.3893061,44.7930617 L50.3893061,44.6415641 C50.3893061,43.731942 51.0866405,43.0648434 52.6480841,43.0648434 Z M7.71307303,43.155742 L7.71307303,45.2175095 L10.017364,45.2175095 L10.017364,43.155742 L11.2223427,43.155742 L11.2223427,48.4616584 L10.017364,48.4616584 L10.017364,46.2557136 L7.71307303,46.2557136 L7.71307303,48.4616584 L6.50777607,48.4616584 L6.50777607,43.155742 L7.71307303,43.155742 Z M16.0173049,43.155742 L18.3823859,48.4616584 L17.0558272,48.4616584 L16.6010162,47.3699847 L14.3272793,47.3699847 L13.8801068,48.4616584 L12.5535482,48.4616584 L14.9030338,43.155742 L16.0173049,43.155742 Z M20.71373,43.155742 L22.5934459,45.9527184 L24.4731617,43.155742 L25.4661711,43.155742 L25.4661711,48.4616584 L24.2608741,48.4616584 L24.2987485,45.5507406 L23.2223518,47.1656539 L21.9645399,47.1656539 L20.8805047,45.5434203 L20.9183791,48.4616584 L19.7207207,48.4616584 L19.7207207,43.155742 L20.71373,43.155742 Z M29.8439102,43.155742 C31.2156635,43.155742 32.0721341,43.8381176 32.0721341,44.9141961 L32.0721341,45.2404251 C32.0721341,46.3168218 31.2156635,46.998561 29.8439102,46.998561 L28.5631827,46.998561 L28.5631827,48.4616584 L27.3575675,48.4616584 L27.3575675,43.155742 L29.8439102,43.155742 Z M35.0179028,43.1558056 L35.0179028,48.4617221 L33.8126059,48.4617221 L33.8126059,43.1558056 L35.0179028,43.1558056 Z M44.8289946,43.155742 L47.3226576,46.5513885 L47.2851014,43.155742 L48.4821233,43.155742 L48.4821233,48.4616584 L47.23195,48.4616584 L44.7608843,45.1038863 L44.7911202,48.4616584 L43.6011003,48.4616584 L43.6011003,43.155742 L44.8289946,43.155742 Z M58.0875794,43.155742 L58.0875794,45.2175095 L60.3915521,45.2175095 L60.3915521,43.155742 L61.5968491,43.155742 L61.5968491,48.4616584 L60.3915521,48.4616584 L60.3915521,46.2557136 L58.0875794,46.2557136 L58.0875794,48.4616584 L56.8822825,48.4616584 L56.8822825,43.155742 L58.0875794,43.155742 Z M64.6862859,43.1558056 L64.6862859,48.4617221 L63.4809889,48.4617221 L63.4809889,43.1558056 L64.6862859,43.1558056 Z M69.0583598,43.155742 C70.4304314,43.155742 71.286902,43.8381176 71.286902,44.9141961 L71.286902,45.2404251 C71.286902,46.3168218 70.4304314,46.998561 69.0583598,46.998561 L67.7776323,46.998561 L67.7776323,48.4616584 L66.5720171,48.4616584 L66.5720171,43.155742 L69.0583598,43.155742 Z M39.3138142,44.0882796 C38.6241182,44.0882796 38.0709611,44.3686775 38.0709611,44.8992373 L38.0709611,46.7105246 C38.0709611,47.2410844 38.6241182,47.5218005 39.3138142,47.5218005 C39.9961898,47.5218005 40.5496652,47.2410844 40.5496652,46.7105246 L40.5496652,44.8992373 C40.5496652,44.3686775 39.9961898,44.0882796 39.3138142,44.0882796 Z M15.4568275,44.6188394 L14.7289389,46.3922523 L16.1917181,46.3922523 L15.4568275,44.6188394 Z M29.8439102,44.2019028 L28.5631827,44.2019028 L28.5631827,45.9679955 L29.8439102,45.9679955 C30.5033703,45.9679955 30.8671554,45.6799591 30.8671554,45.1493993 L30.8671554,45.0055402 C30.8671554,44.4746621 30.5033703,44.2019028 29.8439102,44.2019028 Z M69.0583598,44.2019028 L67.7776323,44.2019028 L67.7776323,45.9679955 L69.0583598,45.9679955 C69.7178198,45.9679955 70.0819233,45.6799591 70.0819233,45.1493993 L70.0819233,45.0055402 C70.0819233,44.4746621 69.7178198,44.2019028 69.0583598,44.2019028 Z" id="Fill-43" fill="#666666"></path>
            <path d="M74.605272,35.3487786 L74.605272,38.9035612 C74.605272,39.4341211 75.0444876,39.7221574 75.7421404,39.7221574 C76.4471134,39.7221574 76.8866473,39.4341211 76.8866473,38.9035612 L76.8866473,35.3487786 L78.091626,35.3487786 L78.091626,39.0022256 C78.091626,40.0783041 77.1517681,40.7606797 75.7421404,40.7606797 C74.3398329,40.7606797 73.3923365,40.0783041 73.3923365,39.0022256 L73.3923365,35.3487786 L74.605272,35.3487786 Z M102.190754,35.242603 C103.562508,35.242603 104.532601,35.9020631 104.532601,36.8040466 L104.532601,37.3196476 L103.335261,37.3196476 L103.335261,36.8950725 C103.335261,36.5233305 102.872812,36.280807 102.190754,36.280807 C101.516017,36.280807 101.053886,36.5691617 101.053886,37.092083 L101.053886,38.9036885 C101.053886,39.4342484 101.516017,39.7143279 102.190754,39.7143279 C102.872812,39.7143279 103.335261,39.4721228 103.335261,39.1006991 L103.335261,38.630611 L104.532601,38.630611 L104.532601,39.1914066 C104.532601,40.0933902 103.562508,40.760807 102.190754,40.760807 C100.826321,40.760807 99.8409503,40.0711111 99.8409503,38.9947144 L99.8409503,37.0010571 C99.8409503,35.9246604 100.826321,35.242603 102.190754,35.242603 Z M58.3780665,35.3487786 L58.3780665,36.3946212 L55.5584928,36.3946212 L55.5584928,37.4484206 L57.9079784,37.4484206 L57.9079784,38.4793043 L55.5584928,38.4793043 L55.5584928,39.6158545 L58.4461768,39.6158545 L58.4461768,40.6543768 L54.3531958,40.6543768 L54.3531958,35.3487786 L58.3780665,35.3487786 Z M61.3161966,35.3487786 L63.8098596,38.7444251 L63.7723035,35.3487786 L64.9696436,35.3487786 L64.9696436,40.6543768 L63.719152,40.6543768 L61.2484047,37.2966047 L61.2786405,40.6543768 L60.0886206,40.6543768 L60.0886206,35.3487786 L61.3161966,35.3487786 Z M69.3402853,35.3488423 C70.7196772,35.3488423 71.5688275,36.0308997 71.5688275,37.1072964 L71.5688275,38.8956681 C71.5688275,39.9720648 70.7196772,40.6544405 69.3402853,40.6544405 L66.8539426,40.6544405 L66.8539426,35.3488423 L69.3402853,35.3488423 Z M82.4547565,35.3487468 C83.8265098,35.3487468 84.6753419,35.9547371 84.6753419,37.0390907 L84.6753419,37.31185 C84.6753419,37.9942256 84.2361262,38.554703 83.4172117,38.7669906 L84.895268,40.654345 L83.35674,40.654345 L81.9162398,38.7669906 L81.9162398,37.9786303 L82.4547565,37.9786303 C83.1142165,37.9786303 83.4703632,37.7437454 83.4703632,37.2284626 L83.4703632,37.1297982 C83.4703632,36.6145155 83.1142165,36.3945894 82.4547565,36.3945894 L81.1663905,36.3945894 L81.1663905,40.654345 L79.9610935,40.654345 L79.9610935,35.3487468 L82.4547565,35.3487468 Z M89.4172799,35.3487468 L91.7823609,40.654345 L90.4558022,40.654345 L90.0013095,39.5626712 L87.7269361,39.5626712 L87.2800818,40.654345 L85.9535232,40.654345 L88.3033271,35.3487468 L89.4172799,35.3487468 Z M94.3487809,35.3487786 L96.8424439,38.7444251 L96.8045695,35.3487786 L98.0022279,35.3487786 L98.0022279,40.6543768 L96.7517363,40.6543768 L94.2806706,37.2966047 L94.3109065,40.6543768 L93.1208866,40.6543768 L93.1208866,35.3487786 L94.3487809,35.3487786 Z M110.373947,35.3487786 L110.373947,36.3946212 L107.554373,36.3946212 L107.554373,37.4484206 L109.903859,37.4484206 L109.903859,38.4793043 L107.554373,38.4793043 L107.554373,39.6158545 L110.442057,39.6158545 L110.442057,40.6543768 L106.349076,40.6543768 L106.349076,35.3487786 L110.373947,35.3487786 Z M69.3402853,36.3946849 L68.0595578,36.3946849 L68.0595578,39.6159182 L69.3402853,39.6159182 C69.9997454,39.6159182 70.3638488,39.3355203 70.3638488,38.8049605 L70.3638488,37.198004 C70.3638488,36.6674442 69.9997454,36.3946849 69.3402853,36.3946849 Z M88.8564842,36.811526 L88.1289139,38.5849389 L89.5916931,38.5849389 L88.8564842,36.811526 Z" id="Fill-42" fill="#AAAAAA"></path>
            <path d="M29.5650082,35.2424439 C30.9141643,35.2424439 32.0134766,35.9095425 32.0134766,37.000898 L32.0134766,38.9945553 C32.0134766,40.0859108 30.9141643,40.7606479 29.5650082,40.7606479 C28.2082137,40.7606479 27.1092197,40.0859108 27.1092197,38.9945553 L27.1092197,37.000898 C27.1092197,35.9095425 28.2082137,35.2424439 29.5650082,35.2424439 Z M7.15412333,35.3489059 L7.15412333,40.6545041 L5.94882637,40.6545041 L5.94882637,35.3489059 L7.15412333,35.3489059 Z M4.36707701,35.3487786 L4.36707701,36.3946212 L1.53254447,36.3946212 L1.53254447,37.6454311 L3.88966866,37.6454311 L3.88966866,38.6839534 L1.53254447,38.6839534 L1.53254447,40.6543768 L0.327247513,40.6543768 L0.327247513,35.3487786 L4.36707701,35.3487786 Z M11.9504541,35.3487468 L14.3155351,40.654345 L12.9889764,40.654345 L12.5341654,39.5626712 L10.2604285,39.5626712 L9.81325604,40.654345 L8.48669736,40.654345 L10.8365013,35.3487468 L11.9504541,35.3487468 Z M18.6469656,35.3487786 L19.8977755,39.1460847 L21.0877954,35.3487786 L22.2927741,35.3487786 L23.4977528,39.1381279 L24.7336039,35.3487786 L26.0369287,35.3487786 L24.0741438,40.6543768 L22.8838056,40.6543768 L21.6788269,37.0540813 L20.4964456,40.6543768 L19.3064257,40.6543768 L17.3433225,35.3487786 L18.6469656,35.3487786 Z M36.3459892,35.3487468 C37.7177425,35.3487468 38.5668929,35.9547371 38.5668929,37.0390907 L38.5668929,37.31185 C38.5668929,37.9942256 38.1270406,38.554703 37.3087627,38.7669906 L38.7865007,40.654345 L37.2479727,40.654345 L35.8077908,38.7669906 L35.8077908,37.9786303 L36.3459892,37.9786303 C37.0054493,37.9786303 37.3615959,37.7437454 37.3615959,37.2284626 L37.3615959,37.1297982 C37.3615959,36.6145155 37.0054493,36.3945894 36.3459892,36.3945894 L35.0576232,36.3945894 L35.0576232,40.654345 L33.8523262,40.654345 L33.8523262,35.3487468 L36.3459892,35.3487468 Z M41.6033055,35.3487786 L41.6033055,39.6158545 L44.4228792,39.6158545 L44.4228792,40.6543768 L40.3980085,40.6543768 L40.3980085,35.3487786 L41.6033055,35.3487786 Z M48.3543689,35.3488423 C49.7337607,35.3488423 50.5825928,36.0308997 50.5825928,37.1072964 L50.5825928,38.8956681 C50.5825928,39.9720648 49.7337607,40.6544405 48.3543689,40.6544405 L45.8680261,40.6544405 L45.8680261,35.3488423 L48.3543689,35.3488423 Z M29.5650082,36.2809662 C28.8753123,36.2809662 28.3221552,36.561364 28.3221552,37.0922421 L28.3221552,38.9035294 C28.3221552,39.4340892 28.8753123,39.7144871 29.5650082,39.7144871 C30.2473839,39.7144871 30.8005411,39.4340892 30.8005411,38.9035294 L30.8005411,37.0922421 C30.8005411,36.561364 30.2473839,36.2809662 29.5650082,36.2809662 Z M48.3543689,36.3946849 L47.0733231,36.3946849 L47.0733231,39.6159182 L48.3543689,39.6159182 C49.0138289,39.6159182 49.3776141,39.3355203 49.3776141,38.8049605 L49.3776141,37.198004 C49.3776141,36.6674442 49.0138289,36.3946849 48.3543689,36.3946849 Z M11.3896584,36.811526 L10.6620881,38.5849389 L12.1248673,38.5849389 L11.3896584,36.811526 Z" id="Fill-12" fill="#666666"></path>
            <path d="M97.1654902,1.37102131 C97.1654902,1.37102131 92.7169991,3.05818244 88.875135,6.44523558 C87.2819799,7.73640817 84.8211568,7.89456646 83.1297458,7.90627677 L74.2202191,7.906786 C73.4169822,7.91131299 72.1280854,7.95364496 70.5757545,8.25365843 C75.7807786,4.95285706 81.9998181,3.67372094 84.1373345,3.3131185 C84.2321796,3.29720489 84.2156294,3.2214561 84.1325604,3.22432055 C72.8752714,3.62788974 65.1781756,8.86092185 61.9397556,11.6970458 C61.7233305,11.8682762 61.5072236,12.044599 61.2923899,12.2317431 C56.7834271,16.1595408 53.8219039,18.846395 52.1188292,20.3524592 C42.6855584,28.7573924 31.9225462,28.5002285 24.2680989,27.162212 C24.2680989,27.162212 26.3152259,22.8346644 26.3438704,22.7700551 C26.3728332,22.7057641 26.3276385,22.6726638 26.2792612,22.707992 C20.7760159,26.7198136 12.1597499,28.4954544 0.318749645,27.030129 C0.318749645,20.5332379 4.88882069,10.9847525 17.1661722,6.25936459 C24.5068031,3.60147315 29.8544132,4.52509918 30.5479284,4.88952089 C30.5479284,4.88952089 15.5767207,8.22310429 11.1428701,20.9352157 C11.1428701,20.9352157 22.2363432,22.7279269 36.0098183,12.758038 L36.428008,12.4523058 L32.7554646,20.7226098 C37.7682523,20.8515101 45.9927252,19.2585575 54.3114066,12.3437749 C62.6297698,5.42867406 73.328491,-2.59433248 97.1654902,1.37102131 Z M88.8518693,11.1543279 C96.5368707,0.72359193 114.464828,1.04791134 120.138985,1.87541915 C118.232534,5.97572038 118.156467,7.22589372 112.465441,7.6663825 C97.028283,8.59987496 94.1778369,14.7078375 94.1778369,17.6104803 C94.1778369,20.5137596 96.9900904,22.5347883 101.913125,22.5347883 C106.835842,22.5347883 110.790056,20.5882353 110.790056,20.5882353 C109.47782,24.8944587 105.702793,26.6198124 101.169323,27.2047968 C89.5577971,28.2818301 82.2006161,20.5519523 88.8518693,11.1543279 Z M62.226869,20.3749611 L81.2652776,20.3749611 C81.2652776,20.3749611 80.7105291,21.7161603 79.6264939,24.1805422 C78.6126941,26.4859317 76.875553,26.5873165 75.231926,26.5908026 L49.7582359,26.5908178 C49.7582359,26.5908178 51.5469258,25.5857141 54.3757295,22.9647423 C57.0285683,20.5061489 60.029681,20.3806312 62.0358724,20.3751873 L81.2652776,20.3749611 Z M85.2197147,11.3348201 C85.2197147,11.3348201 84.2938608,12.5662154 83.4370719,14.7934845 C82.587593,17.0028072 80.7598493,16.8770516 79.0661216,16.8666393 L78.8972367,16.8660733 L59.9839091,16.8660733 C59.9839091,16.8660733 61.0399363,15.9717283 63.8684217,13.6397477 C66.5158632,11.4565699 69.5100821,11.3403757 71.5162432,11.3350552 L85.2197147,11.3348201 Z" id="Fill-2" fill="#666666"></path>
        </g>
    </g>
</svg>