<?xml version="1.0" encoding="utf-8"?>
<!-- Generator: Adobe Illustrator 21.0.0, SVG Export Plug-In . SVG Version: 6.00 Build 0)  -->
<svg version="1.1" id="Layer_1" xmlns="http://www.w3.org/2000/svg" xmlns:xlink="http://www.w3.org/1999/xlink" x="0px" y="0px"
	 viewBox="0 0 250 250" style="enable-background:new 0 0 250 250;" xml:space="preserve">
<style type="text/css">
	.st0{fill:#666666;}
	.st1{fill:#FFFFFF;}
</style>
<rect x="0" y="0" class="st0" width="250" height="250"/>
<g>
	<path class="st1" d="M128.2,186.3c0.2,0.6,0.6,1,1,1.4s0.9,0.7,1.4,1c0.6,0.2,1.2,0.3,1.2,0.3c0.3,0,0.8,0.1,1.1,0.1h8.4
		c0.3,0,0.8,0,1.1-0.1c0,0,0.6-0.1,1.2-0.3c0.6-0.2,1-0.6,1.4-1s0.7-0.9,1-1.4c0.2-0.5,0.3-1.2,0.3-1.2c0-0.3,0.1-0.8,0.1-1.1v-20.5
		c0-0.3-0.3-0.6-0.6-0.6h-4.4c-0.3,0-0.6,0.3-0.6,0.6v18.3c0,0.3,0,0.8-0.1,1.1c0,0,0,0.1-0.3,0.4c-0.2,0.2-0.4,0.3-0.4,0.3
		c-0.3,0.1-0.8,0.1-1.1,0.1h-3.7c-0.3,0-0.8,0-1.1-0.1c0,0-0.1,0-0.4-0.3c-0.2-0.2-0.3-0.4-0.3-0.4c-0.1-0.3-0.1-0.8-0.1-1.1v-18.3
		c0-0.3-0.3-0.6-0.6-0.6h-4.4c-0.3,0-0.6,0.3-0.6,0.6V184c0,0.3,0,0.8,0.1,1.1C127.9,185.1,127.9,185.8,128.2,186.3"/>
	<path class="st1" d="M119.2,162.8c-0.3,0-0.7,0.2-0.9,0.5l-6.7,9.6c-0.2,0.3-0.5,0.5-0.8,0.5s-0.6-0.2-0.8-0.5l-6.7-9.6
		c-0.2-0.3-0.6-0.5-0.9-0.5h-2.6c-0.3,0-0.6,0.3-0.6,0.6v25.1c0,0.3,0.3,0.6,0.6,0.6h4.2c0.3,0,0.6-0.3,0.6-0.6V175
		c0-0.3,0.1-0.4,0.3-0.1l4.4,6.2c0.2,0.3,0.6,0.5,0.9,0.5h1.2c0.3,0,0.7-0.2,0.9-0.5l4.4-6.2c0.2-0.3,0.3-0.2,0.3,0.1v13.5
		c0,0.3,0.3,0.6,0.6,0.6h4.2c0.3,0,0.6-0.3,0.6-0.6v-25.1c0-0.3-0.3-0.6-0.6-0.6H119.2z"/>
	<path class="st1" d="M50.3,187.7c0.4,0.4,0.9,0.7,1.4,1c0.6,0.2,1.2,0.3,1.2,0.3c0.3,0,0.8,0.1,1.1,0.1h9.5c0.6,0,1.2-0.1,1.8-0.4
		c0.6-0.2,1-0.6,1.4-1s0.7-0.9,1-1.5c0.2-0.6,0.3-1.2,0.3-1.2c0-0.3,0.1-0.8,0.1-1.1V168c0-0.3,0-0.8-0.1-1.1c0,0-0.1-0.6-0.3-1.2
		c-0.2-0.6-0.5-1-1-1.4c-0.4-0.4-0.9-0.7-1.4-1c-0.6-0.3-1.2-0.3-1.2-0.3c-0.3,0-0.8-0.1-1.1-0.1h-9.5c-0.6,0-1.2,0.1-1.8,0.4
		c-0.6,0.2-1,0.6-1.4,1s-0.7,0.9-1,1.5c-0.2,0.6-0.3,1.2-0.3,1.2c0,0.3-0.1,0.8-0.1,1.1v16.5c0,0.7,0.1,1.3,0.3,1.8
		C49.6,186.8,49.9,187.3,50.3,187.7 M54.6,169.6c0-0.4,0.1-0.7,0.4-0.9s0.4-0.3,0.4-0.3c0.3-0.1,0.8-0.1,1.1-0.1h4.7
		c0.4,0,0.7,0.1,1,0.4c0.2,0.3,0.3,0.3,0.3,0.3c0.1,0.3,0.1,0.8,0.1,1.1v12.2c0,0.3-0.1,0.6-0.4,0.9c-0.3,0.3-0.4,0.3-0.4,0.3
		c-0.3,0.1-0.8,0.1-1.1,0.1H56c-0.4,0-0.7-0.1-1-0.4c-0.3-0.3-0.3-0.3-0.3-0.3c-0.1-0.3-0.1-0.8-0.1-1.1V169.6z"/>
	<path class="st1" d="M74.2,189.1h4.4c0.3,0,0.6-0.3,0.6-0.6v-5.6c0-0.3,0.3-0.6,0.6-0.6h4.3c0.3,0,0.7,0.2,0.8,0.5l3.2,5.8
		c0.2,0.3,0.5,0.5,0.8,0.5h5.3c0.3,0,0.4-0.2,0.3-0.5l-4.2-7.6c-0.2-0.3-0.1-0.7,0.1-1l4.7-6.5c0.2-0.3,0.2-0.7,0-0.9l-6.1-9.2
		c-0.2-0.3-0.6-0.5-0.9-0.5H74.2c-0.3,0-0.6,0.3-0.6,0.6v25.1C73.7,188.8,73.9,189.1,74.2,189.1 M79.2,169.1c0-0.3,0.3-0.6,0.6-0.6
		h5.5c0.3,0,0.7,0.2,0.9,0.5l2.3,3.3c0.2,0.3,0.2,0.7,0,0.9l-2.1,2.9c-0.2,0.3-0.6,0.5-0.9,0.5h-5.8c-0.3,0-0.6-0.3-0.6-0.6
		L79.2,169.1L79.2,169.1z"/>
	<path class="st1" d="M166.6,183.6h-8.4c-0.3,0-0.6-0.3-0.6-0.6v-19.6c0-0.3-0.3-0.6-0.6-0.6h-4.4c-0.3,0-0.6,0.3-0.6,0.6v25.1
		c0,0.3,0.3,0.6,0.6,0.6h11.9c0.3,0,0.7-0.2,0.8-0.5l1.6-4.4C167.1,183.8,166.9,183.6,166.6,183.6"/>
	<path class="st1" d="M193.6,188.5l-8.7-25.2c-0.1-0.3-0.4-0.5-0.8-0.5h-5c-0.3,0-0.7,0.2-0.8,0.5l-9,25.2c-0.1,0.3,0.1,0.5,0.4,0.5
		h4.7c0.3,0,0.7-0.2,0.8-0.5l0.9-2.5h10.8l0.8,2.5c0.1,0.3,0.4,0.5,0.8,0.5h4.7C193.4,189.1,193.6,188.8,193.6,188.5 M177.9,181
		l3.5-10c0.1-0.3,0.3-0.3,0.4,0l3.5,10H177.9z"/>
	<path class="st1" d="M44.2,162.8H29c-0.3,0-0.6,0.3-0.6,0.6v25.1c0,0.3,0.3,0.6,0.6,0.6h4.4c0.3,0,0.6-0.3,0.6-0.6v-9.3
		c0-0.3,0.3-0.6,0.6-0.6h6.3c0.3,0,0.7-0.2,0.8-0.5l1.4-4c0.1-0.3-0.1-0.5-0.4-0.5h-8.2c-0.3,0-0.6-0.3-0.6-0.6v-4.1
		c0-0.3,0.3-0.6,0.6-0.6h9.7c0.3,0,0.6-0.3,0.6-0.6v-4.3C44.8,163.1,44.5,162.8,44.2,162.8"/>
	<path class="st1" d="M194.4,172.9c-0.3,0-0.6,0.3-0.6,0.6v4c0,0.3,0.3,0.6,0.6,0.6h4.4c0.3,0,0.7-0.2,0.8-0.5l1.4-4
		c0.1-0.3-0.1-0.5-0.4-0.5h-6.2V172.9z"/>
	<path class="st1" d="M220.9,162.8h-16c-0.3,0-0.6,0.3-0.6,0.6v25.1c0,0.3,0.3,0.6,0.6,0.6h16c0.3,0,0.6-0.3,0.6-0.6v-4.3
		c0-0.3-0.3-0.6-0.6-0.6h-10.5c-0.3,0-0.6-0.3-0.6-0.6v-4.5c0-0.3,0.3-0.6,0.6-0.6h7.5c0.3,0,0.7-0.2,0.8-0.5l1.4-4
		c0.1-0.3-0.1-0.5-0.4-0.5h-9.3c-0.3,0-0.6-0.3-0.6-0.6v-3.4c0-0.3,0.3-0.6,0.6-0.6h10.5c0.3,0,0.6-0.3,0.6-0.6v-4.3
		C221.4,163.1,221.2,162.8,220.9,162.8"/>
	<path class="st1" d="M78.8,119.1c4.9,10.5,15.4,17.5,28.9,17.5h73c13.4,0,26.4-7,35-17.5H78.8z"/>
	<path class="st1" d="M179.1,93.8c1.9-2.9,3.2-6.2,3.8-9.7c0.4-2,0.4-4,0.3-5.8c-0.8-10.1-8.6-17.5-19.5-17.5h-42.7
		c-13.4,0-26.4,7-35,17.5h74.7c3.2,0,5.4,2.6,4.8,5.8c-0.5,3-3.3,5.5-6.3,5.8c-0.2,0-95,0-95,0c-14.3,0-27,6.9-35,17.5h126.3
		C164.9,107.5,174.1,101.8,179.1,93.8"/>
</g>
</svg>
