<?xml version="1.0" encoding="utf-8"?>
<!-- Generator: Adobe Illustrator 22.1.0, SVG Export Plug-In . SVG Version: 6.00 Build 0)  -->
<svg version="1.1" id="Layer_1" xmlns="http://www.w3.org/2000/svg" xmlns:xlink="http://www.w3.org/1999/xlink" x="0px" y="0px"
	 viewBox="0 0 60 56" style="enable-background:new 0 0 60 56;" xml:space="preserve">
<style type="text/css">
	.st0{fill:#666666;}
	.st1{fill:#D1D1D1;}
</style>
<title>Icon Footer / Partner / partner_wrss</title>
<desc>Created with Sketch.</desc>
<g id="Icon-Footer-_x2F_-Partner-_x2F_-partner_x5F_wrss">
	<g id="partner_wrss" transform="translate(12.000000, 0.000000)">
		<path id="Path-10" class="st0" d="M33.58461,47.04c-0.50527,0.03144-0.99763-0.16879-1.34008-0.54497
			c-0.34245-0.37618-0.49843-0.88817-0.42454-1.39349c-0.07169-0.52046,0.08812-1.0463,0.43665-1.43673
			c0.34853-0.39044,0.85018-0.6056,1.37066-0.58788c0.36185-0.06177,0.73269,0.03428,1.02033,0.26426
			c0.28763,0.22999,0.46505,0.57232,0.48813,0.94189h-0.83961c-0.01094-0.16391-0.08615-0.31665-0.20901-0.42445
			c-0.12286-0.1078-0.28322-0.16175-0.44561-0.14991c-0.31987,0.05543-0.60366,0.23972-0.78616,0.51052
			c-0.1825,0.2708-0.24803,0.60484-0.18153,0.92538c-0.05748,0.3003,0.01089,0.61121,0.18886,0.8588
			c0.17796,0.24759,0.44962,0.40973,0.75037,0.44787c0.35162,0.02521,0.65988-0.23505,0.69731-0.58872h0.85385
			C35.03347,46.61749,34.33819,47.13574,33.58461,47.04z M6.19038,35.79692l-1.05308,3.14462l-0.37-0.17231
			c-0.10884-0.04421-0.2062-0.11297-0.28462-0.20102c-0.08277-0.07567-0.15462-0.16267-0.21346-0.25846l-0.45538-1.3641
			l-0.59769,1.9959l-0.37-0.17231c-0.11822-0.04818-0.22143-0.12753-0.29885-0.22974
			c-0.05397-0.09525-0.09694-0.19642-0.12808-0.30154l-0.88231-2.44102h0.75423l0.71154,2.06769l0.68308-2.06769h0.48385
			l0.72577,2.08205l0.64038-2.08205H6.19038z M9.71961,37.33333c0.01359,0.44727-0.16859,0.87792-0.49808,1.17744
			c-0.34265,0.29852-0.7859,0.45274-1.23808,0.43077c-0.45218,0.02197-0.89542-0.13226-1.23808-0.43077
			c-0.31572-0.30595-0.49418-0.72856-0.49418-1.17026c0-0.44169,0.17846-0.8643,0.49418-1.17025
			c0.3419-0.29983,0.78569-0.45424,1.23808-0.43077c0.45239-0.02346,0.89617,0.13094,1.23808,0.43077
			C9.55727,36.45908,9.74125,36.8887,9.71961,37.33333z M8.93692,37.33333c0.00976-0.27438-0.07581-0.54357-0.24192-0.76102
			c-0.17842-0.20894-0.4382-0.32909-0.71154-0.32909c-0.27334,0-0.53312,0.12015-0.71154,0.32909
			c-0.13713,0.22806-0.19239,0.49674-0.15654,0.76102c-0.01224,0.27472,0.0736,0.54475,0.24192,0.76103
			c0.17014,0.21025,0.42853,0.32731,0.69731,0.3159c0.27326,0.01373,0.53695-0.10334,0.71154-0.3159
			C8.90715,37.86764,8.96738,37.59922,8.93692,37.33333z M12.69385,38.76923H11.84l-1.02462-1.4359v1.4359h-0.68308v-2.97231
			c0.24637-0.01723,0.49363-0.01723,0.74,0c0.33442-0.01926,0.66801,0.05004,0.96769,0.20102
			c0.2643,0.13979,0.42906,0.41686,0.42692,0.71795c0.00658,0.19182-0.05387,0.37987-0.17077,0.53128
			c-0.11912,0.14222-0.28661,0.23441-0.46962,0.25846L12.69385,38.76923z M11.54115,36.62975
			c-0.00007-0.14587-0.06671-0.28357-0.18067-0.37332c-0.11396-0.08975-0.26254-0.12153-0.40279-0.08617h-0.12808v0.91897h0.14231
			c0.14271,0.03605,0.29391,0.00254,0.40851-0.09053s0.17936-0.23495,0.17495-0.38332L11.54115,36.62975z M15.05615,38.28102
			l-0.21346,0.4882h-1.76462v-2.97231h0.69731v2.57026h0.35577c0.31546,0.01279,0.63123-0.01617,0.93923-0.08615H15.05615z
			 M18.17269,37.33333c0.00678,0.44696-0.19313,0.87162-0.54077,1.14872c-0.41543,0.29301-0.91725,0.43479-1.42308,0.40205
			c-0.27468,0.02234-0.5507,0.02234-0.82539,0v-3.07282c0.27473-0.02116,0.55066-0.02116,0.82539,0
			c0.50582-0.03274,1.00765,0.10904,1.42308,0.40205c0.34764,0.2771,0.54755,0.70175,0.54077,1.14872V37.33333z M17.41846,37.36205
			c0.02519-0.32515-0.10106-0.64361-0.34154-0.86154c-0.23289-0.18826-0.52778-0.28061-0.82538-0.25846h-0.17077v2.12513H16.28
			c0.2927,0.04922,0.5916-0.03978,0.81092-0.24147c0.21932-0.20168,0.3348-0.49375,0.31331-0.79238L17.41846,37.36205z
			 M22.35654,38.76923h-0.85385l-1.02462-1.4359v1.4359h-0.69731v-2.97231c0.24637-0.01719,0.49363-0.01719,0.74,0
			c0.33442-0.01926,0.66801,0.05004,0.96769,0.20102c0.2643,0.13979,0.42906,0.41686,0.42692,0.71795
			c0.00658,0.19182-0.05387,0.37987-0.17077,0.53128c-0.11912,0.14222-0.28661,0.23441-0.46962,0.25846L22.35654,38.76923z
			 M21.20385,36.68718c-0.00007-0.14587-0.06671-0.28357-0.18067-0.37332c-0.11396-0.08974-0.26254-0.12153-0.40279-0.08617
			h-0.14231v0.91898h0.14231c0.14271,0.03605,0.29391,0.00254,0.40851-0.09053s0.17936-0.23495,0.17495-0.38332V36.68718z
			 M25.24538,37.72103c0.02553,0.35133-0.11426,0.69431-0.37735,0.92588c-0.26309,0.23158-0.61883,0.32476-0.96034,0.25155
			c-0.34273,0.07217-0.69921-0.0209-0.96424-0.25172c-0.26503-0.23083-0.40836-0.57306-0.38768-0.92571v-1.9241h0.69731v1.95282
			c0,0.39651,0.31857,0.71795,0.71154,0.71795c0.39297,0,0.71154-0.32144,0.71154-0.71795v-1.95282h0.62615v1.9241H25.24538z
			 M28.60385,38.76923c-0.36459,0.13348-0.75075,0.1968-1.13846,0.18667c-0.45392,0.02253-0.90154-0.11449-1.26654-0.38769
			c-0.38881-0.28569-0.60829-0.75021-0.58346-1.23487c-0.01469-0.4495,0.18019-0.87998,0.52654-1.16307
			c0.33744-0.28799,0.76777-0.44125,1.20961-0.43077c0.32186-0.01337,0.64264,0.04548,0.93923,0.17231v0.54564
			c-0.25451-0.14934-0.54532-0.22394-0.83961-0.21539c-0.29342-0.01104-0.57776,0.10373-0.78269,0.3159
			c-0.19936,0.21291-0.30684,0.49694-0.29885,0.78974c-0.00734,0.28842,0.10032,0.56775,0.29885,0.77539
			c0.203,0.20466,0.48176,0.31404,0.76846,0.30154c0.14664,0.01569,0.29451,0.01569,0.44115,0v-1.1918h0.72577v1.4359V38.76923z
			 M31.43577,37.86462c0.01345,0.35765-0.1973,0.68526-0.52654,0.81846c-0.31901,0.1367-0.66406,0.20045-1.01039,0.18666
			c-0.25593,0.01538-0.51253,0.01538-0.76846,0v-3.01538h0.78269c0.32714-0.02145,0.65342,0.05338,0.93923,0.21539
			c0.20228,0.12459,0.32203,0.34976,0.31308,0.58872c0.00114,0.11779-0.03363,0.23308-0.09962,0.33025
			c-0.06518,0.09576-0.16043,0.16658-0.27038,0.20103c0.18156-0.00837,0.36104,0.04193,0.51231,0.14359
			c0.12241,0.13791,0.18851,0.31747,0.185,0.50256L31.43577,37.86462z M30.51077,36.54359
			c0-0.24889-0.17551-0.37333-0.52654-0.37333h-0.09962v0.74667c0.35103,0,0.52654-0.12444,0.52654-0.37333H30.51077z
			 M30.63885,37.87897c0.0064-0.15966-0.05877-0.31375-0.17743-0.41957s-0.27824-0.15212-0.43449-0.12608h-0.14231v1.03385h0.14231
			c0.15761,0.03988,0.32463,0.0041,0.45259-0.09694s0.20251-0.25603,0.20202-0.41998L30.63885,37.87897z M34.21077,35.79692
			l-1.12423,1.66564v1.36411h-0.68308v-1.36411l-1.18115-1.66564h0.81116l0.75423,1.09128l0.71154-1.09128H34.21077z
			 M34.70885,35.79692h0.82538v0.15795h-0.3273v0.86154h-0.17077v-0.86154h-0.32731V35.79692z M35.64808,35.79692h0.25616
			l0.27038,0.8041l0.27039-0.8041h0.25615v1.01949h-0.17077v-0.78974l-0.28461,0.78974h-0.14231l-0.28461-0.78974v0.78974h-0.17077
			V35.79692z M23.63731,45.34564h-1.63654v1.62256h-0.81115v-3.80513H22.015v1.56513h1.63654v-1.56513h0.82538v3.80513h-0.83961
			V45.34564z M26.42654,47.04c-0.36587,0.06752-0.74267-0.03064-1.03041-0.26844c-0.28774-0.2378-0.45735-0.5912-0.46382-0.96643
			h0.82538c-0.01037,0.18476,0.06195,0.36448,0.19704,0.48965c0.13509,0.12518,0.3187,0.18262,0.50027,0.1565
			c0.16632,0.02448,0.33542-0.01955,0.46924-0.12217s0.22114-0.25522,0.2423-0.42347c0-0.30154-0.25615-0.38769-0.68308-0.51692
			l-0.27038-0.08615c-0.60291-0.02901-1.09953-0.48784-1.18115-1.09128c0.0343-0.35427,0.2135-0.67807,0.49442-0.89338
			c0.28093-0.21532,0.63813-0.30265,0.98558-0.24097c0.33982-0.08854,0.70112-0.01398,0.9792,0.20207
			c0.27808,0.21605,0.44186,0.54945,0.44387,0.90357h-0.89654c-0.00316-0.15652-0.0711-0.30456-0.18736-0.40823
			c-0.11626-0.10367-0.27023-0.1535-0.42456-0.13741c-0.14812-0.02021-0.29793,0.02233-0.41385,0.11754
			c-0.11592,0.0952-0.18762,0.23458-0.19807,0.38503c0,0.27282,0.25615,0.35897,0.78269,0.53128l0.31308,0.10051
			c0.56653,0.03517,1.01822,0.49092,1.05308,1.06256C27.84657,46.58195,27.17392,47.10983,26.42654,47.04z M28.46154,43.16308
			h1.30923c0.24589-0.02786,0.49411-0.02786,0.74,0c0.46058,0.05762,0.80754,0.4507,0.81115,0.91897
			c0.00297,0.43917-0.32194,0.81031-0.75423,0.86154c0.49186,0.01552,0.88255,0.42245,0.88231,0.91898
			c-0.0475,0.34921-0.23739,0.66253-0.52383,0.86429s-0.64338,0.27364-0.98463,0.19827h-1.48V43.16308z M29.785,44.75692
			c0.35577,0,0.72577-0.0718,0.72577-0.51692c-0.01415-0.15165-0.08891-0.29094-0.20706-0.38577
			c-0.11814-0.09482-0.26947-0.137-0.4191-0.1168h-0.56923v1.01949h0.52654H29.785z M29.88461,46.40821
			c0.17601,0.04832,0.36426,0.01291,0.51118-0.09618c0.14692-0.10908,0.23643-0.27989,0.24306-0.46382
			c0.0012-0.17832-0.07977-0.34709-0.21912-0.45677s-0.32129-0.14782-0.49242-0.10323h-0.66885v1.10564h0.62615V46.40821z
			 M19.68115,45.07282L15.17,49.62461v-9.10359L19.68115,45.07282z M10.65885,45.07282l-4.51115-4.55179H15.17L10.65885,45.07282z
			 M1.63654,45.07282l4.51115-4.55179v9.10359L1.63654,45.07282z M10.65885,45.07282l4.51115,4.5518H6.14769L10.65885,45.07282z
			 M15.09885,53.40102v-2.13948h0.71154V54.88c-0.18144-0.03704-0.35809-0.09485-0.52654-0.17231
			c-0.1643-0.09018-0.30938-0.21217-0.42692-0.35897l-1.56538-1.89538v2.32615h-0.69731v-3.51795h0.74L15.09885,53.40102z
			 M10.63038,54.2482l-0.01423-0.01436h0.44115c0.39751,0.00664,0.79429-0.03677,1.18115-0.12923l-0.27038,0.66051H9.81923v-3.51795
			h2.04923v0.53128c-0.28851-0.03156-0.57956-0.03156-0.86808,0h-0.38423V52.64h1.09577v0.4882h-1.08154V54.2482z M7.91231,53.74564
			L8.88,51.2041h0.66885l-1.42308,3.64718c-0.19474-0.05002-0.38156-0.12735-0.555-0.22974
			c-0.15413-0.13569-0.27164-0.3086-0.34154-0.50257l-1.16692-2.87179h0.86808L7.91231,53.74564z M18.5,53.04205
			c0.25072,0.12628,0.42561,0.36692,0.46962,0.64616c0.01388,0.35662-0.16619,0.69247-0.46962,0.8759
			c-0.32888,0.21689-0.71765,0.32251-1.11,0.30154c-0.3583,0.01226-0.71437-0.06157-1.03885-0.21539l-0.12808-0.71795
			c0.3405,0.24493,0.74876,0.37554,1.16692,0.37333c0.15171,0.00661,0.30284-0.02291,0.44115-0.08615
			c0.14012-0.06306,0.22963-0.20418,0.22769-0.35897c-0.04971-0.23568-0.22525-0.42387-0.45538-0.4882l-0.85385-0.41641
			c-0.28333-0.16156-0.46166-0.46147-0.46961-0.78975c-0.00836-0.32525,0.16862-0.6266,0.45538-0.77538
			c0.2833-0.15502,0.60302-0.22946,0.925-0.21539c0.3195-0.00515,0.63593,0.06361,0.925,0.20103v0.66051
			c-0.27179-0.18929-0.59476-0.28956-0.925-0.28718c-0.37,0-0.555,0.11008-0.555,0.33026
			c0.0214,0.15499,0.11726,0.28934,0.25615,0.35897l0.42692,0.21538C18.03877,52.75738,18.27734,52.88737,18.5,53.04205z
			 M2.84615,53.04205l0.08538-0.01436c0.22175,0.14901,0.36339,0.39252,0.38423,0.66051
			c0.01388,0.35662-0.16619,0.69247-0.46962,0.8759c-0.31387,0.16981-0.66965,0.2446-1.02462,0.21539
			c-0.3583,0.01226-0.71436-0.06156-1.03885-0.21539l-0.21346-0.66051c0.34051,0.24493,0.74876,0.37554,1.16692,0.37333
			c0.15171,0.0066,0.30284-0.02291,0.44115-0.08615c0.14012-0.06306,0.22963-0.20418,0.22769-0.35897
			c-0.04971-0.23568-0.22525-0.42387-0.45538-0.4882l-0.85385-0.41641c-0.28333-0.16156-0.46166-0.46147-0.46962-0.78975
			c-0.00836-0.32525,0.16862-0.6266,0.45538-0.77538c0.2833-0.15502,0.60302-0.22947,0.925-0.21539
			c0.3195-0.00516,0.63593,0.06361,0.925,0.20102v0.68923c-0.27179-0.18929-0.59476-0.28956-0.925-0.28718
			c-0.37,0-0.555,0.11008-0.555,0.33026c0.0214,0.15499,0.11726,0.28934,0.25615,0.35897l0.42692,0.21538
			C2.38493,52.75738,2.62349,52.88737,2.84615,53.04205z M4.44,54.2482l0.08538-0.01436h0.44115
			c0.39751,0.00664,0.79429-0.03677,1.18115-0.12923l-0.27038,0.66051H3.72846v-3.51795h2.035v0.51692
			c-0.28851-0.03156-0.57956-0.03156-0.86808,0h-0.37v0.86154h1.09577v0.50256H4.44V54.2482z M24.235,54.2482h0.08538h0.38423
			c0.39751,0.00664,0.79429-0.03677,1.18115-0.12923l-0.27038,0.66051h-2.09192v-3.51795h2.035v0.53128
			c-0.28852-0.03156-0.57956-0.03156-0.86808,0h-0.37v0.86154h0.99615v0.47385H24.235V54.2482z M31.76308,54.2482l0.08538,0.01436
			h0.44115c0.39751,0.00663,0.79429-0.03678,1.18115-0.12923l-0.27038,0.66051h-2.14885V51.2759h2.035v0.51692
			c-0.28852-0.03156-0.57956-0.03156-0.86808,0h-0.37v0.86154h0.99615v0.47385h-1.08154V54.2482z M22.76923,53.04205
			c0.2119,0.17017,0.33295,0.43039,0.32731,0.70359c0.01388,0.35662-0.16619,0.69247-0.46962,0.8759
			c-0.30263,0.17442-0.64794,0.25904-0.99615,0.2441c-0.3583,0.01226-0.71437-0.06157-1.03885-0.21539l-0.12808-0.71795
			c0.34051,0.24493,0.74876,0.37554,1.16692,0.37333c0.15171,0.00661,0.30284-0.02291,0.44115-0.08615
			c0.14012-0.06306,0.22963-0.20418,0.22769-0.35897c-0.04971-0.23568-0.22525-0.42387-0.45539-0.4882l-0.85385-0.41641
			c-0.28333-0.16156-0.46166-0.46147-0.46962-0.78975c-0.00836-0.32525,0.16862-0.6266,0.45539-0.77538
			c0.2833-0.15502,0.60302-0.22946,0.925-0.21539c0.3195-0.00515,0.63593,0.06361,0.925,0.20103v0.66051
			c-0.27179-0.18929-0.59476-0.28956-0.925-0.28718c-0.37,0-0.555,0.11008-0.555,0.33026
			c0.02714,0.16119,0.13472,0.29688,0.28462,0.35897l0.42692,0.21538C22.308,52.75738,22.54657,52.88737,22.76923,53.04205z
			 M36.03231,53.04205l-0.04269,0.08615c0.21984,0.1398,0.36606,0.37164,0.39846,0.63179
			c0.01388,0.35662-0.16619,0.69247-0.46962,0.8759c-0.30264,0.17442-0.64794,0.25904-0.99615,0.2441
			c-0.3583,0.01226-0.71436-0.06157-1.03885-0.21539l-0.12807-0.71795c0.3405,0.24493,0.74876,0.37554,1.16692,0.37333
			c0.15171,0.00661,0.30284-0.02291,0.44115-0.08615c0.14012-0.06306,0.22963-0.20418,0.22769-0.35897
			c-0.04971-0.23568-0.22525-0.42387-0.45538-0.4882l-0.85385-0.41641c-0.28333-0.16156-0.46166-0.46147-0.46961-0.78975
			c-0.00837-0.32525,0.16862-0.6266,0.45538-0.77538c0.2833-0.15502,0.60302-0.22946,0.925-0.21539
			c0.3195-0.00515,0.63593,0.06361,0.925,0.20103v0.64615c-0.27179-0.18929-0.59475-0.28956-0.925-0.28718
			c-0.37,0-0.555,0.11008-0.555,0.33026c0.0214,0.15499,0.11726,0.28934,0.25615,0.35897l0.42693,0.21538
			C35.57108,52.75738,35.80964,52.88737,36.03231,53.04205z M28.61808,52.8841l-0.04269,0.01436
			c-0.15765,0.16233-0.37247,0.25523-0.59769,0.25846l1.23808,1.57949h-0.98192l-1.19538-1.60821v1.59385h-0.69731V51.2041
			c0.28428-0.01965,0.56956-0.01965,0.85385,0c0.38817-0.02344,0.77569,0.05575,1.12423,0.22974
			c0.3076,0.16147,0.49987,0.48296,0.49808,0.83282C28.82503,52.48973,28.75447,52.70839,28.61808,52.8841z M27.29461,52.8841
			l-0.04269-0.02872c0.22868,0.05536,0.46712-0.04072,0.59509-0.2398c0.12798-0.19907,0.11772-0.45792-0.02561-0.64605
			c-0.14333-0.18813-0.38861-0.26468-0.61218-0.19107h-0.17077v1.10564H27.29461z M29.62846,54.82256l-0.04269-0.02872V51.2759
			h0.83961v3.54667H29.62846z"/>
		<path id="Shape" class="st0" d="M22.18577,2.67077c0.40766,3.80976,0.57876,7.64151,0.51231,11.47282
			c-0.07115,7.69641-0.91077,13.52615-2.33385,16.88615c-0.30779,0.94452-1.04199,1.68534-1.97808,1.9959
			c-0.94175-0.29488-1.68732-1.02582-2.00654-1.96718c-1.06731-2.49846-2.33385-7.68205-2.33385-18.29333
			c-0.01423-2.25436,0.185-6.07385,0.185-6.64821C16.73011,4.63893,19.40241,3.48128,22.18577,2.67077z M30.63885,13.92821
			c0.13868,3.59742-0.52769,7.18015-1.94962,10.48205c-1.53048,3.44411-4.22366,6.22771-7.59923,7.85436
			c0.25615-0.28718,0.59769-0.68923,0.98192-1.22051c1.22102-1.71047,2.20714-3.57972,2.93154-5.55692
			c1.13318-3.11668,1.7859-6.3903,1.93538-9.70667C27.1346,11.03588,26.65536,6.28743,25.51577,1.68
			c0.92635-0.312,1.87904-0.5379,2.84615-0.67487C29.74079,5.17789,30.50787,9.53159,30.63885,13.92821z M10.37423,20.60513
			c0.579,4.43787,2.51391,8.58347,5.53577,11.86051c-2.07772-0.78941-3.90978-2.12256-5.30808-3.86256
			c-1.55621-1.87189-2.71394-4.04693-3.40115-6.38974c-0.97666-3.48456-1.27626-7.12681-0.88231-10.72615
			c1.1963-1.09725,2.48156-2.09149,3.84231-2.97231C9.70592,12.53695,9.77769,16.60195,10.37423,20.60513z"/>
		<path id="Shape_1_" class="st1" d="M22.4403,5.44205c0.15764,2.05449,0.24675,4.11377,0.26717,6.17436h-8.65438
			c0.03566-2.21639,0.17768-5.01456,0.17768-5.49949c0.39393-0.23295,0.79215-0.45794,1.19443-0.67487H22.4403z M22.7102,11.95429
			c0.00457,0.72968,0.00053,1.4595-0.01213,2.1893c-0.01326,1.43448-0.05322,2.80412-0.11867,4.105
			c-3.50371,3.891-5.537,7.97606-6.71698,11.40699c-0.7202-2.25189-1.42595-5.85697-1.69864-11.59849
			C16.49134,16.08173,19.30614,14.03623,22.7102,11.95429z M26.97958,14.14905c0.02535-2.91842-0.20415-5.83199-0.6851-8.707
			l3.28827,0c0.45565,2.05806,0.76805,4.14676,0.93447,6.25079C29.24054,12.47713,28.06394,13.29946,26.97958,14.14905z
			 M10.50947,21.49696c0.65076,3.76267,2.28166,7.2828,4.72404,10.199c-0.04027,0.14748-0.07893,0.29312-0.11603,0.43681
			c-1.75131-0.80778-3.2979-2.01447-4.51555-3.5297C9.5462,27.3332,8.67387,25.9238,8.00741,24.41716
			C8.73083,23.47268,9.55973,22.49759,10.50947,21.49696z M6.30462,11.61641c0.00452-0.04308,0.00913-0.08616,0.01384-0.12923
			c1.1963-1.09725,2.48156-2.09149,3.84231-2.97231c-0.11666,1.03161-0.19868,2.06605-0.24609,3.10154H6.30462z"/>
	</g>
</g>
</svg>
