<?xml version="1.0" encoding="UTF-8"?>
<svg width="104px" height="56px" viewBox="0 0 104 56" version="1.1" xmlns="http://www.w3.org/2000/svg" xmlns:xlink="http://www.w3.org/1999/xlink">
    <!-- Generator: Sketch 52.6 (67491) - http://www.bohemiancoding.com/sketch -->
    <title>Combined Shape</title>
    <desc>Created with Sketch.</desc>
    <g id="Symbols" stroke="none" stroke-width="1" fill="none" fill-rule="evenodd">
        <g id="Icon-Footer-/-Partner-/-partner_motogp" fill="#666666">
            <path d="M24.1337079,23.7540984 L43.0022472,23.7540984 L32.952809,42.3442623 L14.0224719,42.3442623 L24.0098765,23.8688525 L1.84741111e-13,23.8688525 L10.1662921,4.81967213 C11.6853933,2.18032787 15.0741573,-2.48689958e-14 17.7617978,-2.48689958e-14 L36.9258427,-2.48689958e-14 L24.1337079,23.7540984 Z M49.3123596,11.8196721 C50.3640449,9.86885246 52.7011236,8.37704918 54.6876404,8.37704918 L67.7752809,8.37704918 L61.4651685,20.3114754 C60.4134831,22.2622951 58.0764045,23.7540984 56.0898876,23.7540984 L43.0022472,23.7540984 L49.3123596,11.8196721 Z M71.2808989,1.83606557 C71.8651685,0.803278689 73.1505618,0 74.0853933,0 L80.9797753,0 L77.3573034,6.7704918 C76.7730337,7.80327869 75.4876404,8.60655738 74.552809,8.60655738 L67.658427,8.60655738 L71.2808989,1.83606557 Z M32.952809,42.3442623 L46.2741573,42.3442623 L40.1977528,53.4754098 C39.3797753,54.852459 37.6269663,56 36.2247191,56 L25.4741573,56 L32.952809,42.3442623 Z M100.961798,26.7377049 L100.026966,26.7377049 L99.4426966,29.2622951 L99.0921348,29.2622951 L99.6764045,26.7377049 L98.741573,26.7377049 L98.858427,26.3934426 L101.195506,26.3934426 L100.961798,26.7377049 Z M101.31236,26.3934426 L101.779775,26.3934426 L102.130337,28.8032787 L103.532584,26.3934426 L104,26.3934426 L103.41573,29.147541 L103.065169,29.147541 L103.649438,26.7377049 L102.247191,29.147541 L101.896629,29.147541 L101.546067,26.7377049 L101.078652,29.147541 L100.72809,29.147541 L101.31236,26.3934426 Z M68.8269663,29.7213115 L65.2044944,36.3770492 C64.9707865,36.8360656 65.3213483,37.1803279 65.6719101,37.1803279 C66.0224719,37.1803279 66.3730337,37.1803279 66.8404494,36.9508197 L65.3213483,39.704918 C64.8539326,39.8196721 64.5033708,39.9344262 64.0359551,39.9344262 C61.9325843,39.9344262 60.8808989,38.557377 61.8157303,36.7213115 L67.8921348,25.4754098 C68.2426966,24.7868852 69.1775281,24.0983607 69.9955056,24.0983607 L71.7483146,24.0983607 L70.3460674,26.7377049 L72.2157303,26.7377049 L70.6966292,29.6065574 L68.8269663,29.7213115 Z M50.4808989,30.1803279 L50.4808989,30.295082 L48.9617978,33.0491803 L46.1573034,38.2131148 C45.9235955,38.6721311 45.4561798,39.0163934 44.988764,39.2459016 C44.6382022,39.3606557 44.2876404,39.4754098 44.0539326,39.4754098 L42.1842697,39.4754098 L45.6898876,32.9344262 L47.2089888,30.0655738 C47.2089888,30.0655738 47.2089888,29.9508197 47.2089888,29.9508197 C47.3258427,29.6065574 47.2089888,29.2622951 46.741573,29.2622951 C46.2741573,29.2622951 45.6898876,29.6065574 45.4561798,30.0655738 L44.0539326,33.0491803 L41.2494382,38.2131148 C40.8988764,38.9016393 39.9640449,39.5901639 39.1460674,39.5901639 L37.2764045,39.5901639 L42.4179775,30.1803279 C43.4696629,28 44.7550562,26.5081967 48.494382,26.5081967 L53.4022472,26.5081967 C55.2719101,26.5081967 56.7910112,27.5409836 55.388764,30.1803279 L50.9483146,38.3278689 C50.5977528,39.0163934 49.6629213,39.704918 48.8449438,39.704918 L46.9752809,39.704918 L50.4808989,33.1639344 L52,30.295082 C52.2337079,29.8360656 52.1168539,29.4918033 51.6494382,29.4918033 C51.2988764,29.3770492 50.7146067,29.7213115 50.4808989,30.1803279 Z M88.341573,29.6065574 L87.1730337,31.6721311 L84.1348315,31.6721311 L85.0696629,29.9508197 C85.3033708,29.4918033 85.1865169,29.147541 84.7191011,29.147541 C84.2516854,29.147541 83.6674157,29.4918033 83.4337079,29.9508197 L80.2786517,35.6885246 L80.0449438,36.147541 C79.811236,36.6065574 79.9280899,36.9508197 80.3955056,36.9508197 C80.8629213,36.9508197 81.447191,36.7213115 81.9146067,35.6885246 L82.3820225,34.8852459 L81.5640449,34.8852459 L82.8494382,32.5901639 L86.705618,32.5901639 L84.6022472,36.4918033 C83.6674157,38.2131148 81.0966292,39.704918 78.9932584,39.704918 C76.8898876,39.704918 75.8382022,38.3278689 76.7730337,36.4918033 L77.2404494,35.5737705 L80.6292135,29.3770492 C81.5640449,27.6557377 84.1348315,26.1639344 86.2382022,26.1639344 C88.341573,26.3934426 89.2764045,27.7704918 88.341573,29.6065574 Z M71.047191,36.2622951 C70.8134831,36.7213115 70.9303371,37.0655738 71.3977528,37.0655738 C71.8651685,37.0655738 72.4494382,36.7213115 72.6831461,36.2622951 L76.0719101,30.0655738 C76.305618,29.6065574 76.188764,29.2622951 75.7213483,29.2622951 C75.2539326,29.2622951 74.6696629,29.6065574 74.4359551,30.0655738 L71.047191,36.2622951 Z M79.3438202,29.6065574 L75.4876404,36.6065574 C74.552809,38.3278689 71.9820225,39.8196721 69.8786517,39.8196721 C67.7752809,39.8196721 66.7235955,38.442623 67.658427,36.6065574 L71.5146067,29.4918033 C72.4494382,27.7704918 75.0202247,26.2786885 77.1235955,26.2786885 C79.3438202,26.3934426 80.2786517,27.7704918 79.3438202,29.6065574 Z M56.4404494,36.2622951 C56.2067416,36.7213115 56.3235955,37.0655738 56.7910112,37.0655738 C57.258427,37.0655738 57.8426966,36.7213115 58.0764045,36.2622951 L61.4651685,30.0655738 C61.6988764,29.6065574 61.5820225,29.2622951 61.1146067,29.2622951 C60.647191,29.2622951 60.0629213,29.6065574 59.8292135,30.0655738 L56.4404494,36.2622951 Z M64.6202247,29.6065574 L60.7640449,36.6065574 C59.8292135,38.3278689 57.258427,39.8196721 55.1550562,39.8196721 C53.0516854,39.8196721 52,38.442623 52.9348315,36.6065574 L56.7910112,29.4918033 C57.7258427,27.7704918 60.2966292,26.2786885 62.4,26.2786885 C64.6202247,26.3934426 65.5550562,27.7704918 64.6202247,29.6065574 Z M92.4314607,30.0655738 L92.3146067,30.295082 L90.9123596,32.8196721 L91.4966292,32.8196721 C92.0808989,32.8196721 92.8988764,32.3606557 93.1325843,31.7868852 L94.0674157,30.0655738 C94.3011236,29.6065574 94.1842697,29.2622951 93.7168539,29.2622951 C93.2494382,29.2622951 92.6651685,29.6065574 92.4314607,30.0655738 Z M89.3932584,35.5737705 L87.8741573,38.3278689 C87.5235955,39.0163934 86.588764,39.704918 85.7707865,39.704918 L83.9011236,39.704918 L87.7573034,32.4754098 L88.9258427,30.295082 C90.5617978,27.0819672 92.6651685,26.3934426 95.0022472,26.3934426 C97.6898876,26.3934426 98.0404494,28.1147541 96.8719101,30.295082 L96.7550562,30.4098361 L95.9370787,32.2459016 L95.8202247,32.3606557 C94.8853933,34.1967213 92.3146067,35.5737705 90.094382,35.5737705 C89.8606742,35.6885246 89.6269663,35.6885246 89.3932584,35.5737705 Z" id="Combined-Shape"></path>
        </g>
    </g>
</svg>