<?xml version="1.0" encoding="utf-8"?>
<!-- Generator: Adobe Illustrator 16.0.0, SVG Export Plug-In . SVG Version: 6.00 Build 0)  -->
<!DOCTYPE svg PUBLIC "-//W3C//DTD SVG 1.1//EN" "http://www.w3.org/Graphics/SVG/1.1/DTD/svg11.dtd">
<svg version="1.1" id="Layer_1" xmlns="http://www.w3.org/2000/svg" xmlns:xlink="http://www.w3.org/1999/xlink" x="0px" y="0px"
	 width="525px" height="54px" viewBox="0 0 525 54" enable-background="new 0 0 525 54" xml:space="preserve">
<path fill="#FFFFFF" d="M97.878,18.473c0.946,0,1.626-0.809,1.51-1.798l-0.495-4.221c-0.116-0.989-0.634-1.116-1.148-0.281
	l-2.96,4.784c-0.521,0.834-0.166,1.517,0.778,1.517L97.878,18.473L97.878,18.473z M96.339,3.279c0.537-0.82,1.753-1.491,2.697-1.491
	h3.568c0.948,0,1.839,0.807,1.982,1.792l3.501,23.836c0.143,0.986-0.511,1.792-1.459,1.792h-4.09c-0.946,0-1.825-0.81-1.952-1.796
	l-0.162-1.27c-0.127-0.986-1.005-1.793-1.951-1.793h-6.532c-0.944,0-2.15,0.678-2.682,1.503l-1.18,1.851
	c-0.527,0.829-1.732,1.505-2.682,1.505H81.05c-0.949,0-1.282-0.671-0.745-1.492L96.339,3.279z"/>
<path fill="#FFFFFF" d="M119.401,22.52c0.65,0,1.954-0.062,2.898-0.137c0,0,1.177-0.095,2.456-0.564
	c1.28-0.468,2.348-1.151,3.21-2.062c0.688-0.723,1.229-1.581,1.627-2.563c0.39-0.987,0.589-2.022,0.589-3.114
	c0-0.83-0.11-1.548-0.335-2.157c-0.219-0.609-0.54-1.133-0.958-1.576c-0.491-0.519-1.145-0.927-1.955-1.224
	c-0.812-0.301-1.851-0.45-3.101-0.45h-0.351c-0.943,0-1.923,0.788-2.169,1.749l-2.646,10.349
	C118.421,21.732,118.752,22.52,119.401,22.52 M115.817,3.731c0.245-0.963,1.224-1.75,2.165-1.75h4.904
	c0.947,0,2.494,0.055,3.438,0.122c0,0,2.858,0.202,4.48,0.851c1.628,0.647,2.931,1.491,3.92,2.527
	c1.869,1.972,2.803,4.632,2.803,7.976c0,2.049-0.355,3.981-1.067,5.796c-0.716,1.812-1.773,3.459-3.182,4.94
	c-1.55,1.631-3.444,2.877-5.687,3.736c-2.239,0.854-4.859,1.279-7.859,1.279h-8.694c-0.947,0-1.521-0.788-1.274-1.75L115.817,3.731z
	"/>
<path fill="#FFFFFF" d="M170.664,15.519c0.743,0,2.114-0.094,3.059-0.208c0,0,1.438-0.175,2.414-0.94
	c0.969-0.765,1.451-1.794,1.451-3.092c0-0.753-0.24-1.389-0.732-1.91c-0.67-0.698-1.688-1.048-3.064-1.048h-0.938
	c-0.94,0-1.918,0.79-2.16,1.752l-0.928,3.693C169.516,14.731,169.923,15.519,170.664,15.519 M165.143,3.731
	c0.246-0.963,1.221-1.75,2.168-1.75h5.018c0.943,0,2.49,0.047,3.438,0.103c0,0,2.172,0.132,3.604,0.596
	c1.426,0.465,2.604,1.193,3.541,2.181c1.353,1.424,2.03,3.28,2.03,5.56c0,1.688-0.312,3.21-0.938,4.573
	c-0.633,1.358-1.502,2.514-2.624,3.46c-1.117,0.945-2.465,1.672-4.042,2.181c-1.573,0.502-3.323,0.756-5.244,0.756h-2.522
	c-0.943,0-1.924,0.787-2.17,1.75l-1.103,4.318c-0.246,0.962-1.222,1.75-2.168,1.75h-3.756c-0.946,0-1.522-0.788-1.274-1.75
	L165.143,3.731z"/>
<path fill="#FFFFFF" d="M192.889,9.994c0.196-0.771-0.262-1.399-1.018-1.399h-5.005c-0.762,0-1.219-0.631-1.02-1.4l0.979-3.814
	c0.196-0.768,0.979-1.398,1.731-1.398h19.888c0.758,0,1.219,0.631,1.022,1.402l-0.961,3.809c-0.193,0.771-0.971,1.402-1.729,1.402
	h-4.994c-0.76,0-1.537,0.628-1.733,1.399l-4.531,17.813c-0.194,0.77-0.976,1.396-1.729,1.396h-4.451
	c-0.757,0-1.216-0.631-1.02-1.396L192.889,9.994z"/>
<path fill="#FFFFFF" d="M83.169,1.981H78.56c-0.946,0-2.229,0.613-2.854,1.362l-6.521,7.818c-0.624,0.751-1.386,0.593-1.693-0.351
	l-2.314-7.116c-0.308-0.942-1.333-1.713-2.279-1.713h-3.793c-0.947,0-1.921,0.787-2.168,1.75l-6.053,23.727
	c-0.245,0.962,0.329,1.749,1.273,1.749h3.646c0.946,0,1.92-0.787,2.164-1.751L61.031,15.4c0.245-0.962,0.721-0.988,1.057-0.058
	l2.587,7.191c0,0,0.634,1.832,1.917,0.359l6.947-7.981c0.638-0.736,0.962-0.55,0.719,0.414L71.19,27.457
	c-0.243,0.964,0.332,1.751,1.278,1.751h3.755c0.947,0,1.921-0.787,2.167-1.749l6.05-23.727C84.688,2.769,84.116,1.981,83.169,1.981"
	/>
<path fill="#FFA400" d="M74.139,34.857h-4.965l-4.117,15.332c-0.008,0.077-0.223,2.497,2.691,2.497l-0.001,0.003H77.86l1.17-4.332
	h-8.508L74.139,34.857z"/>
<path fill="#FFA400" d="M92.722,44.904c-0.245,0.672-0.588,1.285-1.027,1.836c-0.437,0.552-0.975,0.998-1.604,1.337
	c-0.635,0.341-1.337,0.508-2.113,0.508c-0.627,0-1.178-0.096-1.661-0.293c-0.479-0.194-0.886-0.472-1.215-0.825
	c-0.33-0.356-0.579-0.776-0.746-1.263c-0.167-0.481-0.255-1.005-0.255-1.565c0-0.662,0.125-1.328,0.368-2.002
	c0.245-0.668,0.593-1.276,1.042-1.832c0.444-0.55,0.979-0.996,1.604-1.339c0.624-0.339,1.326-0.508,2.104-0.508
	c0.626,0,1.181,0.101,1.659,0.297c0.479,0.19,0.884,0.466,1.215,0.825c0.33,0.359,0.579,0.777,0.75,1.261
	c0.166,0.483,0.25,1.005,0.25,1.563C93.089,43.566,92.968,44.234,92.722,44.904 M97.547,39.354
	c-0.407-0.978-0.983-1.816-1.729-2.532c-0.751-0.713-1.646-1.271-2.688-1.683c-1.044-0.407-2.204-0.61-3.479-0.61
	c-1.545,0-2.964,0.291-4.266,0.882c-1.299,0.585-2.418,1.357-3.361,2.327c-0.938,0.97-1.679,2.089-2.204,3.353
	c-0.524,1.27-0.789,2.577-0.789,3.938c0,1.138,0.205,2.192,0.611,3.172c0.409,0.975,0.987,1.822,1.732,2.535
	c0.748,0.711,1.643,1.271,2.687,1.681c1.046,0.405,2.204,0.61,3.479,0.61c1.544,0,2.968-0.298,4.268-0.879
	c1.297-0.587,2.42-1.363,3.361-2.33c0.94-0.974,1.676-2.086,2.203-3.354c0.524-1.27,0.79-2.577,0.79-3.938
	C98.159,41.387,97.955,40.327,97.547,39.354"/>
<path fill="#FFA400" d="M108.356,42.271l-0.939,3.611h3.438L110.14,48.3c-0.306,0.143-0.654,0.255-1.044,0.352
	c-0.391,0.096-0.833,0.142-1.326,0.142c-0.544,0-1.055-0.079-1.539-0.241c-0.483-0.158-0.91-0.397-1.274-0.715
	c-0.362-0.312-0.653-0.711-0.863-1.188c-0.213-0.479-0.317-1.03-0.317-1.66c0-0.817,0.146-1.597,0.444-2.338
	c0.296-0.739,0.712-1.39,1.246-1.941c0.536-0.553,1.174-0.988,1.912-1.312c0.739-0.323,1.558-0.484,2.459-0.484
	c0.968,0,1.809,0.172,2.532,0.521c0.722,0.351,1.348,0.783,1.873,1.312l3.311-3.209c-0.304-0.395-0.696-0.771-1.169-1.138
	c-0.475-0.361-1.022-0.688-1.642-0.97c-0.62-0.278-1.317-0.505-2.095-0.674c-0.77-0.169-1.596-0.256-2.479-0.256
	c-1.697,0-3.248,0.291-4.651,0.867c-1.396,0.576-2.606,1.358-3.625,2.343c-1.013,0.985-1.801,2.119-2.354,3.403
	c-0.559,1.278-0.833,2.635-0.833,4.06c0,1.378,0.249,2.559,0.74,3.542c0.494,0.984,1.148,1.799,1.959,2.445
	c0.812,0.645,1.732,1.119,2.763,1.426c1.027,0.305,2.077,0.459,3.146,0.459c1.324,0,2.547-0.171,3.671-0.509
	c1.119-0.339,2.12-0.768,3.005-1.274l2.549-8.989h-8.183V42.271L108.356,42.271z"/>
<path fill="#FFA400" d="M119.556,34.857l-4.121,15.35c-0.018,0.232-0.117,2.479,2.692,2.479l-0.001,0.003h1.583l4.788-17.832
	H119.556z"/>
<path fill="#FFA400" d="M157.116,34.857l-4.121,15.349c-0.02,0.23-0.117,2.48,2.689,2.48l-0.002,0.003h1.582l4.789-17.832H157.116z"
	/>
<path fill="#FFA400" d="M136.075,43.734c-0.407-0.382-0.896-0.729-1.469-1.031c-0.565-0.307-1.189-0.588-1.872-0.84
	c-0.608-0.24-1.111-0.444-1.503-0.613c-0.389-0.171-0.689-0.322-0.901-0.459c-0.212-0.134-0.361-0.268-0.446-0.396
	c-0.086-0.125-0.124-0.276-0.124-0.47c0-0.355,0.168-0.657,0.519-0.902c0.351-0.244,0.82-0.371,1.414-0.371
	c0.918,0,1.766,0.183,2.534,0.534c0.774,0.359,1.499,0.834,2.182,1.432l3.058-3.413c-0.868-0.812-1.907-1.459-3.122-1.938
	c-1.211-0.476-2.613-0.716-4.188-0.716c-1.089,0-2.098,0.149-3.018,0.448c-0.929,0.296-1.728,0.712-2.396,1.246
	c-0.675,0.535-1.197,1.175-1.58,1.923c-0.384,0.75-0.571,1.565-0.571,2.446c0,0.662,0.105,1.239,0.328,1.729
	c0.221,0.495,0.534,0.933,0.93,1.312c0.399,0.384,0.883,0.724,1.453,1.021c0.569,0.298,1.21,0.582,1.923,0.854
	c0.626,0.237,1.132,0.444,1.519,0.627c0.383,0.177,0.685,0.339,0.903,0.481c0.225,0.145,0.371,0.284,0.444,0.433
	c0.079,0.144,0.117,0.302,0.117,0.469c0,0.409-0.189,0.732-0.562,0.97c-0.374,0.24-0.855,0.355-1.452,0.355
	c-1.92,0-3.753-0.805-5.503-2.421l-3.183,3.291c0.968,1.034,2.154,1.836,3.552,2.405c1.403,0.564,2.979,0.852,4.729,0.852
	c1.103,0,2.122-0.147,3.057-0.443c0.931-0.299,1.735-0.719,2.406-1.262c0.671-0.544,1.191-1.193,1.565-1.946
	c0.372-0.757,0.562-1.593,0.562-2.511c0-0.662-0.117-1.248-0.347-1.759C136.801,44.562,136.481,44.115,136.075,43.734"/>
<path fill="#FFA400" d="M191.396,43.734c-0.408-0.382-0.896-0.729-1.465-1.031c-0.568-0.307-1.193-0.588-1.871-0.84
	c-0.615-0.24-1.112-0.444-1.5-0.613c-0.394-0.171-0.691-0.322-0.908-0.459c-0.209-0.134-0.357-0.268-0.44-0.396
	c-0.086-0.125-0.128-0.276-0.128-0.47c0-0.355,0.172-0.657,0.521-0.902c0.351-0.244,0.821-0.371,1.414-0.371
	c0.916,0,1.762,0.183,2.531,0.534c0.777,0.359,1.502,0.834,2.182,1.432l3.061-3.413c-0.866-0.812-1.905-1.459-3.121-1.938
	c-1.213-0.476-2.61-0.716-4.188-0.716c-1.088,0-2.097,0.149-3.021,0.448c-0.925,0.296-1.728,0.712-2.396,1.246
	c-0.67,0.535-1.192,1.175-1.578,1.923c-0.383,0.75-0.568,1.565-0.568,2.446c0,0.662,0.105,1.239,0.33,1.729
	c0.222,0.495,0.529,0.933,0.928,1.312c0.396,0.384,0.886,0.724,1.454,1.021c0.565,0.298,1.209,0.582,1.926,0.854
	c0.624,0.237,1.131,0.444,1.512,0.627c0.384,0.177,0.688,0.339,0.908,0.481c0.219,0.145,0.369,0.284,0.443,0.433
	c0.077,0.144,0.112,0.302,0.112,0.469c0,0.409-0.188,0.732-0.561,0.97c-0.373,0.24-0.859,0.355-1.453,0.355
	c-1.918,0-3.752-0.805-5.504-2.421l-3.183,3.291c0.97,1.034,2.15,1.836,3.553,2.405c1.402,0.564,2.976,0.852,4.726,0.852
	c1.104,0,2.121-0.147,3.061-0.443c0.931-0.299,1.73-0.719,2.402-1.262c0.677-0.544,1.193-1.193,1.568-1.946
	c0.373-0.757,0.56-1.593,0.56-2.511c0-0.662-0.11-1.248-0.345-1.759C192.127,44.562,191.805,44.115,191.396,43.734"/>
<path fill="#FFA400" d="M171.25,48.087c-0.592,0.317-1.281,0.472-2.062,0.472c-1.037,0-1.889-0.325-2.562-0.979
	c-0.671-0.655-1.004-1.553-1.004-2.688c0-0.778,0.14-1.521,0.42-2.229c0.275-0.702,0.652-1.328,1.131-1.871
	c0.478-0.543,1.037-0.978,1.685-1.3c0.645-0.321,1.338-0.483,2.086-0.483c0.888,0,1.613,0.2,2.19,0.6
	c0.578,0.398,1.046,0.968,1.403,1.693l4.274-2.293c-0.543-1.375-1.426-2.471-2.646-3.284c-1.225-0.814-2.752-1.226-4.585-1.226
	c-1.713,0-3.263,0.312-4.636,0.942c-1.377,0.631-2.543,1.452-3.506,2.459c-0.961,1.009-1.693,2.155-2.217,3.438
	c-0.516,1.282-0.771,2.586-0.771,3.91c0,1.188,0.202,2.266,0.618,3.225c0.421,0.959,1,1.777,1.746,2.459
	c0.75,0.679,1.638,1.196,2.66,1.562c1.029,0.364,2.162,0.551,3.404,0.551c1.697,0,3.146-0.312,4.354-0.93
	c1.205-0.621,2.24-1.427,3.107-2.409l-3.338-2.956C172.43,47.328,171.843,47.773,171.25,48.087"/>
<path fill="#FFA400" d="M156.246,34.857h-15.61l-1.173,4.329h5.348l-2.971,11.018c-0.017,0.218-0.129,2.482,2.692,2.482
	l-0.004,0.003h1.604l3.617-13.505h5.352L156.246,34.857z"/>
<path fill="#FFFFFF" d="M28.333,12.516H19.48c-0.996,0-2.017,0.83-2.268,1.847l-0.525,2.124c-0.251,1.014,0.358,1.847,1.355,1.847
	h1.623c0.995,0,1.58,0.823,1.299,1.829l-0.699,2.716c-0.466,0.221-0.999,0.407-1.595,0.553c-0.602,0.154-1.269,0.229-2.021,0.229
	c-0.833,0-1.611-0.127-2.35-0.388c-0.739-0.261-1.389-0.644-1.945-1.148c-0.561-0.508-0.996-1.146-1.32-1.91
	c-0.323-0.77-0.485-1.656-0.485-2.67c0-1.313,0.228-2.566,0.68-3.759c0.457-1.189,1.093-2.23,1.908-3.118
	c0.816-0.89,1.789-1.596,2.913-2.116c1.128-0.519,2.376-0.778,3.752-0.778c1.477,0,2.766,0.279,3.868,0.838
	c1.101,0.561,1.467,0.884,1.467,0.884c0.764,0.673,1.975,0.629,2.69-0.103l2.73-2.79c1.073-1.096,0.203-1.991-0.14-2.316
	c-0.199-0.185-0.408-0.366-0.631-0.546c-0.729-0.586-1.562-1.106-2.504-1.558c-0.949-0.448-2.013-0.812-3.189-1.084
	c-1.182-0.274-2.444-0.409-3.79-0.409c-2.592,0-4.957,0.465-7.095,1.393c-2.141,0.927-3.985,2.184-5.533,3.767
	c-1.55,1.581-2.744,3.406-3.594,5.468c-0.847,2.061-1.269,4.235-1.269,6.527c0,2.213,0.375,4.11,1.137,5.694
	c0.753,1.585,1.745,2.896,2.98,3.933c1.24,1.036,2.646,1.799,4.213,2.291c1.57,0.492,3.175,0.74,4.81,0.74
	c2.021,0,3.887-0.274,5.593-0.819c1.713-0.546,2.967-1.203,2.967-1.203c0.892-0.465,1.844-1.671,2.115-2.686l3.021-11.442
	C29.922,13.341,29.329,12.516,28.333,12.516"/>
<path fill="#FFFFFF" d="M53.573,1.981H36.299c-0.947,0-1.922,0.787-2.167,1.75l-2.092,8.202l-1.821,7.144l-2.137,8.381
	c-0.244,0.962,0.329,1.75,1.271,1.75h17.46c0.948,0,1.921-0.788,2.164-1.752l0.737-2.916c0.243-0.962-0.332-1.752-1.277-1.752
	h-10.37c-0.944,0-1.519-0.785-1.271-1.749l0.128-0.498l0.375-1.464l0.147-0.582h8.715c3.072-0.034,4.382-3.148,4.873-4.889
	c0.008-0.039,0.021-0.097,0.047-0.17v-0.001c0.016-0.061,0.031-0.119,0.046-0.176c0.117-0.603-0.304-0.724-0.747-0.744h-11.4
	l0.149-0.582l0.294-1.148c0.002-0.002,0.001-0.005,0.002-0.01l0.163-0.631c0.249-0.962,1.227-1.748,2.174-1.748H51.91
	c0.943,0,1.925-0.787,2.174-1.747l0.757-2.921C55.089,2.769,54.519,1.981,53.573,1.981"/>
<path fill="#FFFFFF" d="M161.825,1.981h-17.274c-0.947,0-1.922,0.787-2.167,1.75l-2.092,8.202l-1.821,7.144l-2.137,8.381
	c-0.244,0.962,0.329,1.75,1.271,1.75h17.46c0.947,0,1.92-0.788,2.164-1.752l0.736-2.916c0.243-0.962-0.332-1.752-1.277-1.752h-10.37
	c-0.943,0-1.52-0.785-1.271-1.749l0.128-0.498l0.375-1.464l0.148-0.582h8.714c3.072-0.034,4.382-3.148,4.873-4.889
	c0.009-0.039,0.021-0.097,0.047-0.17v-0.001c0.017-0.061,0.032-0.119,0.046-0.176c0.117-0.603-0.304-0.724-0.746-0.744
	l-11.402-0.001l0.147-0.582l0.295-1.148c0.001-0.002,0.001-0.005,0.001-0.01l0.162-0.631c0.25-0.962,1.227-1.749,2.174-1.749h10.148
	c0.942,0,1.926-0.786,2.174-1.746l0.757-2.921C163.342,2.769,162.771,1.981,161.825,1.981"/>
<path fill="#BBBBBC" d="M212.951,40.77c1.348,0,2.291-0.898,2.561-2.209c0.282-1.308-0.27-2.233-1.617-2.233
	c-1.358,0-2.304,0.899-2.586,2.233C211.038,39.867,211.604,40.77,212.951,40.77 M213.921,35.327c2.196,0,3.206,1.359,2.771,3.407
	c-0.401,1.855-1.774,3.03-3.771,3.03c-2.237,0-3.233-1.332-2.79-3.384C210.54,36.54,211.887,35.327,213.921,35.327"/>
<path fill="#BBBBBC" d="M221.193,40.743c1.375,0,2.226-0.956,2.479-2.168c0.27-1.227-0.189-2.21-1.55-2.21
	c-1.43,0-2.266,1.092-2.505,2.21C219.389,39.68,219.738,40.743,221.193,40.743 M219.2,40.783l-0.741,3.528
	c-0.08,0.378-0.162,0.441-0.525,0.441h-0.242c-0.377,0-0.43-0.063-0.35-0.441l1.684-7.961h-0.039c-0.473,0-0.577-0.377-0.5-0.729
	c0.041-0.202,0.121-0.202,0.394-0.202h0.563c0.646,0,0.851,0.271,0.717,0.894l-0.018,0.063c0.58-0.62,1.375-1.037,2.453-1.037
	c1.899,0,2.68,1.32,2.275,3.233c-0.405,1.911-1.728,3.188-3.65,3.188C220.157,41.766,219.523,41.376,219.2,40.783"/>
<path fill="#BBBBBC" d="M227.402,38.236c0.607,0.188,1.24,0.217,1.752,0.217c1.257,0,1.752-0.432,1.889-1.064
	c0.146-0.728-0.282-1.119-1.229-1.119C228.562,36.27,227.768,37.052,227.402,38.236 M227.229,39.141
	c-0.095,1.293,0.672,1.646,1.912,1.646c1.01,0,1.617-0.241,2.223-0.484c0.271-0.104,0.322-0.118,0.271,0.139
	c-0.054,0.27-0.188,0.657-0.863,0.955c-0.471,0.239-1.104,0.418-1.871,0.418c-2.032,0-3.287-0.875-2.762-3.367
	c0.418-1.939,1.686-3.111,3.651-3.111c1.886,0,2.667,0.956,2.396,2.249c-0.244,1.091-1.146,1.778-3.127,1.778
	C228.534,39.355,227.848,39.342,227.229,39.141"/>
<path fill="#BBBBBC" d="M234.959,38.924l-0.484,2.29c-0.08,0.377-0.175,0.445-0.539,0.445h-0.242c-0.377,0-0.43-0.068-0.351-0.445
	l1.024-4.862H234.3c-0.472,0-0.579-0.377-0.499-0.728c0.041-0.201,0.121-0.201,0.391-0.201h0.606c0.634,0,0.849,0.27,0.714,0.888
	l-0.013,0.068c0.482-0.848,1.077-1.131,1.711-1.131c0.714,0,0.795,0.337,0.7,0.822c-0.056,0.215-0.097,0.282-0.3,0.229
	c-0.215-0.054-0.336-0.095-0.592-0.095C236.01,36.203,235.309,37.24,234.959,38.924"/>
<path fill="#BBBBBC" d="M241.803,36.364c-1.308,0-2.143,0.956-2.398,2.154c-0.27,1.255,0.188,2.224,1.617,2.224
	c1.414,0,2.209-1.062,2.438-2.168C243.702,37.456,243.311,36.364,241.803,36.364 M245.088,35.852l-0.941,4.421
	c-0.123,0.577-0.065,0.7,0.256,0.7c0.229,0,0.271,0,0.242,0.134c-0.064,0.354-0.377,0.605-0.971,0.605
	c-0.566,0-0.822-0.282-0.771-0.836c-0.536,0.539-1.266,0.89-2.233,0.89c-2.033,0-2.896-1.389-2.465-3.423
	c0.391-1.777,1.67-3.003,3.542-3.003c1.104,0,1.765,0.418,2.103,1.037c0.133-0.66,0.457-0.956,1.104-0.956
	C245.17,35.422,245.156,35.516,245.088,35.852"/>
<path fill="#BBBBBC" d="M248.793,33.994l-0.297,1.428h1.549c0.283,0,0.352,0,0.311,0.202c-0.08,0.392-0.513,0.782-1.252,0.782
	h-0.818l-0.647,3.084c-0.229,1.063,0.134,1.253,0.631,1.253c0.379,0,0.647-0.067,0.984-0.216c0.202-0.068,0.27-0.015,0.217,0.241
	c-0.041,0.177-0.109,0.32-0.188,0.442c-0.298,0.323-0.778,0.538-1.562,0.538c-1.32,0-1.508-0.818-1.266-1.938l0.97-4.595
	c0.243-1.146,0.729-1.616,1.239-1.616C248.887,33.604,248.859,33.684,248.793,33.994"/>
<path fill="#BBBBBC" d="M253.184,32.336c0.418,0,0.646,0.243,0.565,0.633c-0.08,0.379-0.418,0.635-0.834,0.635
	c-0.405,0-0.633-0.256-0.556-0.635C252.441,32.579,252.779,32.336,253.184,32.336 M252.848,36.311l-0.863,4.028
	c-0.121,0.579-0.055,0.7,0.26,0.7c0.238,0,0.27,0,0.238,0.136c-0.063,0.352-0.336,0.606-0.928,0.606
	c-0.634,0-0.916-0.364-0.756-1.078l1.037-4.892c0.055-0.295,0.081-0.393,0.296-0.393C252.779,35.422,252.982,35.691,252.848,36.311"
	/>
<path fill="#BBBBBC" d="M257.021,40.77c1.351,0,2.291-0.898,2.562-2.209c0.278-1.308-0.271-2.233-1.616-2.233
	c-1.361,0-2.303,0.899-2.586,2.233C255.109,39.867,255.675,40.77,257.021,40.77 M257.992,35.327c2.191,0,3.201,1.359,2.771,3.407
	c-0.404,1.855-1.779,3.03-3.771,3.03c-2.237,0-3.231-1.332-2.789-3.384C254.611,36.54,255.958,35.327,257.992,35.327"/>
<path fill="#BBBBBC" d="M267.65,40.123l-0.041,0.148c-0.121,0.579-0.053,0.7,0.271,0.7c0.229,0,0.255,0,0.229,0.134
	c-0.064,0.351-0.362,0.604-0.957,0.604c-0.633,0-0.889-0.36-0.729-1.079l0.58-2.721c0.188-0.935-0.041-1.604-1.119-1.604
	c-1.076,0-1.724,0.672-1.992,1.67l-0.688,3.232c-0.081,0.376-0.162,0.443-0.538,0.443h-0.243c-0.363,0-0.418-0.067-0.336-0.443
	l1.021-4.861h-0.053c-0.484,0-0.578-0.377-0.498-0.729c0.041-0.202,0.121-0.202,0.389-0.202h0.621
	c0.539,0.014,0.754,0.242,0.688,0.729c0.458-0.473,1.104-0.818,1.979-0.818c1.729,0,2.25,0.939,1.914,2.489l-0.481,2.306
	L267.65,40.123L267.65,40.123z"/>
<path fill="#BBBBBC" d="M273.333,36.364c-1.312,0-2.146,0.956-2.397,2.154c-0.27,1.255,0.188,2.224,1.617,2.224
	c1.414,0,2.209-1.062,2.438-2.168C275.232,37.456,274.842,36.364,273.333,36.364 M276.62,35.852l-0.942,4.421
	c-0.121,0.577-0.068,0.7,0.256,0.7c0.229,0,0.271,0,0.241,0.134c-0.067,0.354-0.376,0.605-0.97,0.605
	c-0.566,0-0.822-0.282-0.771-0.836c-0.539,0.539-1.267,0.89-2.233,0.89c-2.033,0-2.896-1.389-2.47-3.423
	c0.395-1.777,1.672-3.003,3.543-3.003c1.105,0,1.77,0.418,2.104,1.037c0.134-0.66,0.458-0.956,1.104-0.956
	C276.701,35.422,276.688,35.516,276.62,35.852"/>
<path fill="#BBBBBC" d="M279.3,41.039c0.229,0,0.271,0,0.243,0.135c-0.068,0.351-0.354,0.607-0.943,0.607
	c-0.633,0-0.916-0.364-0.754-1.079l1.67-7.907c-0.485,0-0.58-0.377-0.5-0.729c0.041-0.2,0.121-0.2,0.396-0.2h0.533
	c0.639,0,0.854,0.269,0.719,0.889l-1.617,7.584C278.923,40.918,278.977,41.039,279.3,41.039"/>
<path fill="#BBBBBC" d="M207.994,49.973c0.604,0.189,1.237,0.216,1.751,0.216c1.254,0,1.752-0.432,1.887-1.062
	c0.146-0.729-0.282-1.118-1.229-1.118C209.152,48.006,208.357,48.788,207.994,49.973 M207.818,50.876
	c-0.094,1.293,0.677,1.644,1.914,1.644c1.013,0,1.617-0.241,2.226-0.48c0.27-0.106,0.319-0.121,0.27,0.134
	c-0.055,0.271-0.188,0.66-0.863,0.956c-0.471,0.243-1.104,0.418-1.872,0.418c-2.03,0-3.283-0.875-2.761-3.366
	c0.418-1.938,1.687-3.108,3.65-3.108c1.885,0,2.667,0.955,2.396,2.248c-0.24,1.092-1.146,1.774-3.127,1.774
	C209.125,51.091,208.439,51.078,207.818,50.876"/>
<path fill="#BBBBBC" d="M214.675,47.158h0.593c0.418,0.014,0.619,0.256,0.795,0.619l0.713,1.496l1.537-1.576
	c0.516-0.515,0.565-0.539,0.852-0.539h0.62c0.27,0,0.27,0.176-0.027,0.472l-2.531,2.586l0.89,1.873c0.28,0.62,0.456,0.7,0.739,0.7
	c0.242,0,0.271,0.014,0.242,0.121c-0.08,0.377-0.445,0.604-0.916,0.604c-0.404,0-0.66-0.121-1.021-0.86l-0.771-1.59l-1.898,1.938
	c-0.352,0.364-0.443,0.393-0.688,0.393h-0.594c-0.296,0-0.282-0.188,0.042-0.515l2.69-2.762l-0.957-2.034h-0.197
	c-0.475,0-0.579-0.378-0.498-0.729C214.325,47.158,214.419,47.158,214.675,47.158"/>
<path fill="#BBBBBC" d="M220.318,50.162c0.394-1.887,1.728-3.098,3.896-3.098c1.131,0,1.629,0.359,1.791,0.713
	c0.064,0.146,0.056,0.298,0.023,0.433c-0.053,0.269-0.158,0.377-0.441,0.269c-0.282-0.146-0.714-0.391-1.454-0.391
	c-1.576,0-2.371,0.971-2.642,2.223c-0.258,1.229,0.078,2.227,1.766,2.227c0.687,0,1.306-0.22,1.657-0.354
	c0.278-0.082,0.44-0.188,0.36,0.147c-0.023,0.176-0.146,0.593-0.656,0.836c-0.405,0.215-0.957,0.39-1.698,0.39
	C220.602,53.557,219.889,52.143,220.318,50.162"/>
<path fill="#BBBBBC" d="M228.104,49.973c0.607,0.189,1.239,0.216,1.752,0.216c1.254,0,1.752-0.432,1.889-1.062
	c0.146-0.729-0.283-1.118-1.229-1.118C229.262,48.006,228.467,48.788,228.104,49.973 M227.928,50.876
	c-0.093,1.293,0.674,1.644,1.913,1.644c1.011,0,1.616-0.241,2.222-0.48c0.271-0.106,0.324-0.121,0.271,0.134
	c-0.056,0.271-0.188,0.66-0.861,0.956c-0.472,0.243-1.104,0.418-1.873,0.418c-2.033,0-3.285-0.875-2.762-3.366
	c0.418-1.938,1.684-3.108,3.647-3.108c1.89,0,2.668,0.955,2.398,2.248c-0.242,1.092-1.146,1.774-3.125,1.774
	C229.236,51.091,228.549,51.078,227.928,50.876"/>
<path fill="#BBBBBC" d="M235.404,52.775c0.229,0,0.271,0,0.242,0.135c-0.064,0.35-0.352,0.604-0.94,0.604
	c-0.636,0-0.916-0.362-0.754-1.075l1.67-7.907c-0.485,0-0.579-0.378-0.498-0.729c0.04-0.203,0.121-0.203,0.391-0.203h0.538
	c0.634,0,0.851,0.271,0.716,0.891l-1.617,7.584C235.027,52.654,235.082,52.775,235.404,52.775"/>
<path fill="#BBBBBC" d="M238.812,52.775c0.229,0,0.271,0,0.242,0.135c-0.068,0.35-0.352,0.604-0.943,0.604
	c-0.633,0-0.916-0.362-0.754-1.075l1.67-7.907c-0.482,0-0.576-0.378-0.498-0.729c0.039-0.203,0.121-0.203,0.394-0.203h0.538
	c0.633,0,0.849,0.271,0.715,0.891l-1.616,7.584C238.436,52.654,238.488,52.775,238.812,52.775"/>
<path fill="#BBBBBC" d="M242.059,49.973c0.605,0.189,1.238,0.216,1.752,0.216c1.252,0,1.75-0.432,1.885-1.062
	c0.148-0.729-0.28-1.118-1.225-1.118C243.216,48.006,242.422,48.788,242.059,49.973 M241.883,50.876
	c-0.094,1.293,0.674,1.644,1.913,1.644c1.011,0,1.617-0.241,2.224-0.48c0.271-0.106,0.323-0.121,0.271,0.134
	c-0.057,0.271-0.188,0.66-0.86,0.956c-0.473,0.243-1.104,0.418-1.873,0.418c-2.035,0-3.287-0.875-2.762-3.366
	c0.418-1.938,1.684-3.108,3.647-3.108c1.889,0,2.668,0.955,2.398,2.248c-0.242,1.092-1.146,1.774-3.125,1.774
	C243.189,51.091,242.502,51.078,241.883,50.876"/>
<path fill="#BBBBBC" d="M253.561,51.859l-0.041,0.146c-0.121,0.58-0.053,0.701,0.271,0.701c0.229,0,0.255,0,0.229,0.135
	c-0.063,0.354-0.365,0.606-0.957,0.606c-0.633,0-0.889-0.364-0.728-1.078l0.58-2.723c0.188-0.932-0.041-1.604-1.119-1.604
	c-1.077,0-1.728,0.674-1.993,1.671l-0.687,3.232c-0.08,0.377-0.162,0.442-0.538,0.442h-0.243c-0.364,0-0.418-0.065-0.336-0.442
	l1.021-4.863h-0.055c-0.484,0-0.578-0.377-0.498-0.729c0.041-0.202,0.121-0.202,0.391-0.202h0.619
	c0.539,0.016,0.756,0.243,0.688,0.729c0.458-0.471,1.104-0.819,1.979-0.819c1.727,0,2.248,0.94,1.912,2.491l-0.481,2.305h-0.019
	v0.004H253.561z"/>
<path fill="#BBBBBC" d="M255.648,50.162c0.393-1.887,1.727-3.098,3.896-3.098c1.131,0,1.63,0.359,1.793,0.713
	c0.063,0.146,0.054,0.298,0.024,0.433c-0.055,0.269-0.159,0.377-0.442,0.269c-0.282-0.146-0.714-0.391-1.455-0.391
	c-1.575,0-2.37,0.971-2.644,2.223c-0.256,1.229,0.08,2.227,1.768,2.227c0.688,0,1.307-0.22,1.657-0.354
	c0.28-0.082,0.442-0.188,0.36,0.147c-0.023,0.176-0.146,0.593-0.66,0.836c-0.401,0.215-0.953,0.39-1.693,0.39
	C255.932,53.557,255.217,52.143,255.648,50.162"/>
<path fill="#BBBBBC" d="M263.434,49.973c0.606,0.189,1.239,0.216,1.752,0.216c1.252,0,1.75-0.432,1.885-1.062
	c0.148-0.729-0.279-1.118-1.227-1.118C264.591,48.006,263.797,48.788,263.434,49.973 M263.258,50.876
	c-0.094,1.293,0.674,1.644,1.913,1.644c1.011,0,1.617-0.241,2.224-0.48c0.271-0.106,0.322-0.121,0.271,0.134
	c-0.057,0.271-0.188,0.66-0.861,0.956c-0.472,0.243-1.105,0.418-1.871,0.418c-2.035,0-3.287-0.875-2.764-3.366
	c0.418-1.938,1.686-3.108,3.648-3.108c1.888,0,2.666,0.955,2.396,2.248c-0.24,1.092-1.146,1.774-3.125,1.774
	C264.564,51.091,263.878,51.078,263.258,50.876"/>
<path fill="#BBBBBC" d="M276.859,49.025l-0.082-1.304c-0.008-0.175-0.008-0.386-0.016-0.619h-0.025
	c-0.057,0.191-0.118,0.455-0.188,0.66l-0.397,1.229h-0.457l-0.396-1.265c-0.041-0.172-0.105-0.435-0.154-0.629h-0.021
	c0,0.205-0.013,0.416-0.021,0.621l-0.082,1.304h-0.422l0.162-2.216h0.66l0.383,1.084c0.049,0.17,0.09,0.334,0.147,0.562h0.008
	c0.058-0.204,0.104-0.395,0.151-0.556l0.386-1.093h0.636l0.172,2.216h-0.441L276.859,49.025L276.859,49.025z M274.464,46.811v0.366
	h-0.708v1.85h-0.439v-1.85h-0.709v-0.366H274.464z"/>
<path fill="#FFFFFF" d="M217.379,5.123h0.358c0.424,0,0.766-0.141,0.766-0.482c0-0.301-0.221-0.501-0.703-0.501
	c-0.2,0-0.341,0.021-0.421,0.041V5.123L217.379,5.123z M217.359,6.99h-0.764V3.698c0.301-0.062,0.723-0.101,1.266-0.101
	c0.621,0,0.904,0.101,1.146,0.241c0.182,0.14,0.321,0.401,0.321,0.722c0,0.361-0.28,0.644-0.686,0.764v0.041
	c0.321,0.12,0.502,0.36,0.604,0.803c0.101,0.501,0.158,0.702,0.238,0.823h-0.82c-0.104-0.12-0.16-0.421-0.264-0.803
	c-0.061-0.361-0.26-0.522-0.682-0.522h-0.361L217.359,6.99L217.359,6.99z M215.332,5.263c0,1.466,1.083,2.63,2.565,2.63
	c1.447,0,2.514-1.164,2.514-2.609c0-1.465-1.063-2.649-2.529-2.649C216.415,2.634,215.332,3.818,215.332,5.263 M221.253,5.263
	c0,1.867-1.465,3.332-3.372,3.332c-1.888,0-3.396-1.465-3.396-3.332c0-1.827,1.509-3.293,3.396-3.293
	C219.788,1.971,221.253,3.436,221.253,5.263"/>
<line fill="none" stroke="#D8D8D8" stroke-miterlimit="10" x1="292" y1="4.5" x2="292" y2="51.5"/>
<g enable-background="new    ">
	<path fill="#FFFFFF" d="M310.36,16.096h-4.846l-1.102,3.154h-2.356l4.731-13.3h2.299l4.731,13.3h-2.356L310.36,16.096z
		 M309.6,13.968l-1.652-4.75l-1.672,4.75H309.6z"/>
	<path fill="#FFFFFF" d="M320.287,19.269c-0.5-0.113-1.016-0.291-1.548-0.531l0.209-2.015c0.532,0.317,1.028,0.555,1.491,0.713
		c0.462,0.158,0.94,0.237,1.435,0.237c0.962,0,1.444-0.316,1.444-0.95c0-0.342-0.127-0.604-0.381-0.788
		c-0.253-0.184-0.709-0.402-1.367-0.655c-0.938-0.343-1.628-0.731-2.071-1.169c-0.443-0.437-0.665-1.029-0.665-1.776
		c0-0.823,0.316-1.491,0.95-2.005c0.633-0.513,1.488-0.77,2.564-0.77c1.077,0,2.059,0.247,2.945,0.741l-0.209,2.015
		c-0.481-0.33-0.935-0.583-1.358-0.761c-0.425-0.177-0.871-0.266-1.34-0.266c-0.405,0-0.719,0.082-0.94,0.247
		s-0.332,0.398-0.332,0.703c0,0.24,0.066,0.437,0.199,0.589s0.319,0.288,0.561,0.408c0.24,0.121,0.64,0.288,1.196,0.504
		c0.925,0.354,1.59,0.744,1.996,1.168c0.404,0.425,0.607,0.991,0.607,1.701c0,0.899-0.323,1.596-0.969,2.09
		c-0.646,0.494-1.564,0.741-2.755,0.741C321.342,19.44,320.787,19.383,320.287,19.269z"/>
	<path fill="#FFFFFF" d="M328.153,18.224c-0.64-0.811-0.96-1.931-0.96-3.362V9.75h2.356v5.111c0,0.887,0.148,1.542,0.446,1.966
		c0.297,0.425,0.775,0.637,1.435,0.637c0.734,0,1.33-0.266,1.786-0.798V9.75h2.355v9.5h-2.204l-0.038-0.57
		c-0.291,0.216-0.627,0.396-1.007,0.542s-0.747,0.219-1.102,0.219C329.815,19.44,328.793,19.035,328.153,18.224z"/>
	<path fill="#FFFFFF" d="M345.034,10.263c0.646,0.443,1.134,1.039,1.463,1.786c0.329,0.748,0.494,1.571,0.494,2.47
		c0,0.9-0.165,1.724-0.494,2.471s-0.816,1.343-1.463,1.786c-0.646,0.443-1.419,0.665-2.317,0.665c-1.001,0-1.907-0.272-2.718-0.817
		l-0.038,0.627h-2.203V5h2.355v5.453c0.772-0.57,1.641-0.855,2.604-0.855C343.615,9.598,344.389,9.819,345.034,10.263z
		 M343.999,16.685c0.386-0.544,0.579-1.266,0.579-2.166c0-0.898-0.193-1.621-0.579-2.166c-0.387-0.544-0.929-0.816-1.625-0.816
		c-0.798,0-1.394,0.266-1.786,0.798s-0.589,1.261-0.589,2.185c0,0.925,0.196,1.653,0.589,2.186s0.988,0.798,1.786,0.798
		C343.07,17.502,343.612,17.229,343.999,16.685z"/>
	<path fill="#FFFFFF" d="M349.661,19.269c-0.501-0.113-1.017-0.291-1.549-0.531l0.209-2.015c0.532,0.317,1.029,0.555,1.491,0.713
		c0.463,0.158,0.941,0.237,1.436,0.237c0.962,0,1.443-0.316,1.443-0.95c0-0.342-0.127-0.604-0.38-0.788
		c-0.254-0.184-0.71-0.402-1.368-0.655c-0.938-0.343-1.628-0.731-2.07-1.169c-0.444-0.437-0.666-1.029-0.666-1.776
		c0-0.823,0.316-1.491,0.95-2.005c0.634-0.513,1.488-0.77,2.565-0.77c1.076,0,2.059,0.247,2.945,0.741l-0.209,2.015
		c-0.482-0.33-0.935-0.583-1.359-0.761c-0.424-0.177-0.871-0.266-1.339-0.266c-0.405,0-0.72,0.082-0.94,0.247
		c-0.223,0.165-0.333,0.398-0.333,0.703c0,0.24,0.066,0.437,0.2,0.589c0.133,0.152,0.319,0.288,0.561,0.408
		c0.24,0.121,0.639,0.288,1.196,0.504c0.925,0.354,1.59,0.744,1.995,1.168c0.405,0.425,0.607,0.991,0.607,1.701
		c0,0.899-0.322,1.596-0.969,2.09c-0.646,0.494-1.564,0.741-2.755,0.741C350.715,19.44,350.161,19.383,349.661,19.269z"/>
	<path fill="#FFFFFF" d="M356.662,5.95h2.355v2.355h-2.355V5.95z M356.662,9.75h2.355v9.5h-2.355V9.75z"/>
	<path fill="#FFFFFF" d="M369.886,5v14.25h-2.223l-0.038-0.608c-0.367,0.267-0.751,0.466-1.149,0.599
		c-0.399,0.133-0.871,0.2-1.416,0.2c-0.925,0-1.72-0.222-2.384-0.665c-0.666-0.443-1.169-1.039-1.511-1.786
		c-0.343-0.747-0.513-1.57-0.513-2.471c0-0.898,0.17-1.722,0.513-2.47c0.342-0.747,0.845-1.343,1.511-1.786
		c0.664-0.443,1.459-0.665,2.384-0.665s1.748,0.254,2.47,0.761V5H369.886z M367.083,16.704c0.374-0.532,0.561-1.261,0.561-2.186
		c0-0.924-0.187-1.652-0.561-2.185c-0.373-0.532-0.934-0.798-1.681-0.798c-0.735,0-1.309,0.272-1.72,0.816
		c-0.412,0.545-0.618,1.268-0.618,2.166c0,0.9,0.206,1.622,0.618,2.166c0.411,0.545,0.984,0.817,1.72,0.817
		C366.149,17.502,366.71,17.236,367.083,16.704z"/>
	<path fill="#FFFFFF" d="M372.071,5.95h2.355v2.355h-2.355V5.95z M372.071,9.75h2.355v9.5h-2.355V9.75z"/>
	<path fill="#FFFFFF" d="M376.717,18.671c-0.526-0.514-0.789-1.207-0.789-2.081c0-0.823,0.298-1.484,0.893-1.985
		c0.596-0.5,1.299-0.855,2.109-1.064s1.59-0.325,2.337-0.351c-0.025-0.558-0.168-0.957-0.427-1.197
		c-0.26-0.24-0.688-0.361-1.283-0.361c-0.418,0-0.826,0.058-1.226,0.171c-0.398,0.114-0.858,0.298-1.377,0.551l-0.209-1.919
		c1.152-0.557,2.305-0.836,3.458-0.836c1.114,0,1.966,0.305,2.555,0.912c0.59,0.608,0.884,1.577,0.884,2.907v2.565
		c0,0.481,0.022,0.826,0.066,1.035s0.12,0.342,0.229,0.398c0.107,0.058,0.288,0.086,0.541,0.086h0.304l-0.209,1.938h-0.854
		c-0.52,0-0.956-0.099-1.312-0.295c-0.354-0.196-0.627-0.466-0.816-0.808c-0.304,0.342-0.719,0.611-1.244,0.808
		c-0.526,0.196-1.08,0.295-1.663,0.295C377.897,19.44,377.242,19.184,376.717,18.671z M380.488,17.454
		c0.304-0.12,0.569-0.287,0.798-0.503v-2.166c-0.761,0.038-1.432,0.202-2.015,0.494c-0.582,0.291-0.874,0.696-0.874,1.216
		c0,0.393,0.102,0.681,0.305,0.864c0.202,0.184,0.525,0.275,0.969,0.275C379.911,17.635,380.184,17.575,380.488,17.454z"/>
	<path fill="#FFFFFF" d="M386.093,9.75h2.204l0.057,1.007c0.278-0.316,0.637-0.595,1.073-0.836c0.438-0.24,0.896-0.361,1.378-0.361
		c0.152,0,0.291,0.014,0.418,0.038l-0.171,2.318c-0.241-0.063-0.513-0.095-0.817-0.095c-0.393,0-0.754,0.092-1.083,0.275
		s-0.563,0.408-0.703,0.675v6.479h-2.355V9.75z"/>
	<path fill="#FFFFFF" d="M395.231,18.623l-3.952-8.873h2.622l2.432,6.118l2.47-6.118h2.623l-5.947,14.098h-2.356L395.231,18.623z"/>
	<path fill="#FFFFFF" d="M408.55,18.775c-0.735-0.443-1.299-1.039-1.69-1.786c-0.394-0.747-0.59-1.57-0.59-2.471
		c0-0.898,0.196-1.729,0.59-2.488c0.392-0.761,0.955-1.361,1.69-1.806c0.734-0.442,1.603-0.665,2.603-0.665
		c1.001,0,1.869,0.223,2.604,0.665c0.734,0.444,1.298,1.045,1.691,1.806c0.393,0.76,0.589,1.59,0.589,2.488
		c0,0.9-0.196,1.724-0.589,2.471c-0.394,0.747-0.957,1.343-1.691,1.786s-1.603,0.665-2.604,0.665
		C410.152,19.44,409.284,19.219,408.55,18.775z M412.967,16.685c0.438-0.544,0.656-1.266,0.656-2.166
		c0-0.911-0.219-1.643-0.656-2.194c-0.437-0.551-1.041-0.826-1.814-0.826c-0.772,0-1.377,0.275-1.814,0.826
		c-0.437,0.552-0.655,1.283-0.655,2.194c0,0.9,0.219,1.622,0.655,2.166c0.438,0.545,1.042,0.817,1.814,0.817
		C411.926,17.502,412.53,17.229,412.967,16.685z"/>
	<path fill="#FFFFFF" d="M418.126,11.688h-1.35l0.209-1.938h1.141V7.736c0-0.849,0.249-1.517,0.75-2.005
		C419.377,5.244,420.089,5,421.014,5c0.52,0,1.032,0.057,1.539,0.171l-0.209,1.9c-0.216-0.063-0.463-0.096-0.741-0.096
		c-0.747,0-1.121,0.394-1.121,1.179V9.75h2.09v1.938h-2.09v7.562h-2.355V11.688z"/>
</g>
<g enable-background="new    ">
	<path fill="#FFFFFF" stroke="#FFFFFF" stroke-miterlimit="10" d="M306.367,44.568c-1.166-0.66-2.057-1.596-2.673-2.806
		s-0.925-2.621-0.925-4.234c0-1.584,0.342-2.981,1.023-4.191s1.631-2.145,2.85-2.805c1.217-0.66,2.609-0.99,4.18-0.99
		c0.792,0,1.562,0.081,2.31,0.242s1.394,0.382,1.937,0.66l-0.309,2.684c-1.275-0.586-2.589-0.88-3.938-0.88
		c-1.643,0-2.883,0.48-3.719,1.441c-0.836,0.96-1.254,2.226-1.254,3.795c0,1.628,0.411,2.93,1.232,3.904
		c0.821,0.976,2.01,1.463,3.564,1.463c0.63,0,1.334-0.08,2.111-0.241v-2.75h-2.111v-2.332h4.928v6.863
		c-0.572,0.338-1.302,0.616-2.189,0.836c-0.887,0.221-1.837,0.33-2.849,0.33C308.922,45.558,307.533,45.228,306.367,44.568z"/>
	<path fill="#FFFFFF" stroke="#FFFFFF" stroke-miterlimit="10" d="M319.809,44.689c-0.901-0.521-1.576-1.218-2.023-2.091
		c-0.447-0.872-0.671-1.844-0.671-2.915c0-1.026,0.212-1.965,0.638-2.815s1.041-1.529,1.848-2.035s1.768-0.759,2.883-0.759
		c1.026,0,1.895,0.213,2.606,0.638c0.712,0.426,1.247,0.998,1.606,1.716c0.359,0.719,0.539,1.525,0.539,2.42
		c0,0.44-0.059,0.939-0.176,1.496h-7.106c0.146,0.968,0.528,1.69,1.144,2.167c0.616,0.477,1.356,0.715,2.223,0.715
		c1.188,0,2.287-0.3,3.3-0.901l0.132,2.31c-0.47,0.25-1.016,0.451-1.639,0.605c-0.624,0.153-1.302,0.23-2.035,0.23
		C321.8,45.47,320.711,45.21,319.809,44.689z M324.462,38.496c0-0.572-0.161-1.078-0.483-1.519
		c-0.323-0.439-0.822-0.659-1.496-0.659c-0.675,0-1.218,0.197-1.629,0.594c-0.41,0.396-0.689,0.924-0.836,1.584H324.462z"/>
	<path fill="#FFFFFF" stroke="#FFFFFF" stroke-miterlimit="10" d="M344.713,35.405c0.711,0.888,1.066,2.13,1.066,3.729v6.116h-2.728
		v-5.918c0-1.041-0.161-1.804-0.483-2.288c-0.323-0.484-0.852-0.726-1.584-0.726c-0.719,0-1.262,0.245-1.629,0.736
		c-0.366,0.492-0.55,1.185-0.55,2.079v6.116h-2.728v-5.918c0-1.041-0.169-1.804-0.506-2.288c-0.338-0.484-0.873-0.726-1.606-0.726
		c-0.865,0-1.577,0.315-2.134,0.945v7.986h-2.729v-11h2.332l0.088,0.88c0.998-0.704,2.076-1.056,3.234-1.056
		c1.408,0,2.457,0.506,3.146,1.518c0.381-0.483,0.88-0.857,1.496-1.122c0.615-0.264,1.298-0.396,2.045-0.396
		C342.912,34.074,344.001,34.518,344.713,35.405z"/>
	<path fill="#FFFFFF" stroke="#FFFFFF" stroke-miterlimit="10" d="M348.32,44.579c-0.608-0.594-0.913-1.397-0.913-2.409
		c0-0.953,0.345-1.72,1.034-2.299s1.504-0.99,2.442-1.232c0.938-0.241,1.84-0.377,2.706-0.406c-0.029-0.646-0.195-1.107-0.495-1.387
		c-0.301-0.278-0.796-0.418-1.485-0.418c-0.484,0-0.957,0.066-1.419,0.198s-0.993,0.345-1.595,0.638l-0.242-2.222
		c1.334-0.646,2.669-0.968,4.004-0.968c1.291,0,2.277,0.352,2.959,1.056s1.023,1.826,1.023,3.366v2.97
		c0,0.558,0.025,0.957,0.076,1.199c0.052,0.242,0.14,0.396,0.265,0.462c0.124,0.066,0.333,0.099,0.627,0.099h0.353l-0.242,2.244
		h-0.99c-0.602,0-1.107-0.113-1.518-0.341c-0.411-0.228-0.727-0.539-0.946-0.935c-0.353,0.396-0.833,0.707-1.441,0.935
		s-1.251,0.341-1.925,0.341C349.688,45.47,348.929,45.173,348.32,44.579z M352.688,43.171c0.352-0.139,0.66-0.333,0.924-0.583V40.08
		c-0.88,0.044-1.657,0.234-2.332,0.572c-0.675,0.337-1.012,0.807-1.012,1.407c0,0.455,0.117,0.789,0.352,1.001
		c0.234,0.213,0.609,0.319,1.122,0.319C352.02,43.38,352.336,43.311,352.688,43.171z"/>
	<path fill="#FFFFFF" stroke="#FFFFFF" stroke-miterlimit="10" d="M369.209,28.75v16.5h-2.574l-0.043-0.704
		c-0.426,0.308-0.869,0.539-1.332,0.693c-0.461,0.153-1.008,0.23-1.639,0.23c-1.07,0-1.99-0.256-2.761-0.77
		s-1.353-1.202-1.749-2.068c-0.396-0.865-0.594-1.818-0.594-2.859c0-1.042,0.197-1.995,0.594-2.86s0.979-1.555,1.749-2.068
		c0.771-0.513,1.69-0.77,2.761-0.77s2.024,0.293,2.86,0.88V28.75H369.209z M365.965,42.302c0.432-0.616,0.648-1.459,0.648-2.529
		c0-1.071-0.217-1.914-0.648-2.53c-0.434-0.616-1.082-0.924-1.947-0.924c-0.852,0-1.515,0.315-1.991,0.945
		c-0.477,0.631-0.715,1.467-0.715,2.509c0,1.041,0.238,1.877,0.715,2.508s1.14,0.945,1.991,0.945
		C364.883,43.226,365.531,42.918,365.965,42.302z"/>
	<path fill="#FFFFFF" stroke="#FFFFFF" stroke-miterlimit="10" d="M373.774,44.689c-0.902-0.521-1.577-1.218-2.024-2.091
		c-0.447-0.872-0.671-1.844-0.671-2.915c0-1.026,0.213-1.965,0.638-2.815c0.426-0.851,1.042-1.529,1.849-2.035
		s1.767-0.759,2.882-0.759c1.026,0,1.896,0.213,2.607,0.638c0.711,0.426,1.246,0.998,1.605,1.716
		c0.359,0.719,0.539,1.525,0.539,2.42c0,0.44-0.059,0.939-0.176,1.496h-7.105c0.146,0.968,0.527,1.69,1.144,2.167
		s1.356,0.715,2.222,0.715c1.188,0,2.288-0.3,3.301-0.901l0.131,2.31c-0.469,0.25-1.016,0.451-1.639,0.605
		c-0.623,0.153-1.302,0.23-2.035,0.23C375.766,45.47,374.676,45.21,373.774,44.689z M378.428,38.496
		c0-0.572-0.162-1.078-0.484-1.519c-0.322-0.439-0.821-0.659-1.496-0.659s-1.218,0.197-1.628,0.594
		c-0.411,0.396-0.689,0.924-0.836,1.584H378.428z"/>
	<path fill="#FFFFFF" stroke="#FFFFFF" stroke-miterlimit="10" d="M391.495,34.844c0.748,0.514,1.312,1.203,1.694,2.068
		c0.381,0.865,0.572,1.818,0.572,2.86c0,1.041-0.191,1.994-0.572,2.859c-0.382,0.866-0.946,1.555-1.694,2.068
		s-1.643,0.77-2.684,0.77c-0.66,0-1.222-0.069-1.684-0.209c-0.462-0.139-0.905-0.362-1.331-0.671v5.984h-2.728V34.25h2.2
		l0.285,1.012c0.47-0.396,0.961-0.692,1.475-0.891s1.107-0.297,1.782-0.297C389.853,34.074,390.747,34.331,391.495,34.844z
		 M390.285,42.28c0.455-0.631,0.682-1.467,0.682-2.508c0-1.042-0.227-1.878-0.682-2.509c-0.455-0.63-1.086-0.945-1.892-0.945
		c-0.91,0-1.592,0.308-2.046,0.924c-0.455,0.616-0.683,1.459-0.683,2.53c0,1.07,0.228,1.913,0.683,2.529
		c0.454,0.616,1.136,0.924,2.046,0.924C389.199,43.226,389.83,42.911,390.285,42.28z"/>
	<path fill="#FFFFFF" stroke="#FFFFFF" stroke-miterlimit="10" d="M396.907,44.623c-0.499-0.564-0.748-1.243-0.748-2.035v-6.094
		h-1.562l0.241-2.244h1.32v-2.42l2.728-0.286v2.706h2.42v2.244h-2.42v4.972c0,0.587,0.033,0.994,0.1,1.221
		c0.065,0.229,0.205,0.374,0.418,0.44c0.212,0.066,0.598,0.099,1.154,0.099h0.748l-0.241,2.244h-1.958
		C398.139,45.47,397.405,45.188,396.907,44.623z"/>
	<path fill="#FFFFFF" stroke="#FFFFFF" stroke-miterlimit="10" d="M411.306,44.568c-1.195-0.66-2.123-1.596-2.782-2.806
		c-0.66-1.21-0.99-2.614-0.99-4.213c0-1.584,0.341-2.98,1.022-4.19c0.683-1.21,1.628-2.148,2.839-2.816
		c1.209-0.667,2.584-1.001,4.125-1.001c1.48,0,2.808,0.301,3.981,0.902l-0.308,2.684c-0.631-0.278-1.236-0.495-1.815-0.649
		c-0.579-0.153-1.206-0.23-1.881-0.23c-1.569,0-2.776,0.484-3.619,1.452c-0.844,0.968-1.265,2.251-1.265,3.85
		s0.414,2.882,1.242,3.851c0.829,0.968,2.021,1.451,3.575,1.451c0.689,0,1.323-0.073,1.903-0.22c0.579-0.146,1.199-0.366,1.859-0.66
		l0.308,2.685c-1.276,0.601-2.633,0.901-4.07,0.901C413.876,45.558,412.501,45.228,411.306,44.568z"/>
	<path fill="#FFFFFF" stroke="#FFFFFF" stroke-miterlimit="10" d="M423.197,44.7c-0.852-0.514-1.504-1.202-1.958-2.068
		c-0.455-0.865-0.683-1.818-0.683-2.859c0-1.042,0.228-2.003,0.683-2.883c0.454-0.88,1.106-1.576,1.958-2.09
		c0.85-0.513,1.855-0.77,3.014-0.77s2.163,0.257,3.014,0.77c0.851,0.514,1.504,1.21,1.958,2.09c0.455,0.88,0.683,1.841,0.683,2.883
		c0,1.041-0.228,1.994-0.683,2.859c-0.454,0.866-1.107,1.555-1.958,2.068s-1.855,0.77-3.014,0.77S424.047,45.214,423.197,44.7z
		 M428.312,42.28c0.506-0.631,0.758-1.467,0.758-2.508c0-1.057-0.252-1.903-0.758-2.541c-0.507-0.639-1.207-0.957-2.102-0.957
		s-1.595,0.318-2.102,0.957c-0.506,0.638-0.759,1.484-0.759,2.541c0,1.041,0.253,1.877,0.759,2.508
		c0.507,0.631,1.207,0.945,2.102,0.945S427.806,42.911,428.312,42.28z"/>
	<path fill="#FFFFFF" stroke="#FFFFFF" stroke-miterlimit="10" d="M433.757,34.25h2.552l0.066,1.166
		c0.322-0.366,0.736-0.689,1.242-0.968c0.507-0.278,1.038-0.418,1.596-0.418c0.176,0,0.337,0.015,0.484,0.044l-0.198,2.684
		c-0.279-0.073-0.595-0.109-0.946-0.109c-0.455,0-0.873,0.106-1.254,0.318c-0.382,0.213-0.652,0.474-0.814,0.781v7.502h-2.728V34.25
		z"/>
	<path fill="#FFFFFF" stroke="#FFFFFF" stroke-miterlimit="10" d="M449.442,34.844c0.748,0.514,1.312,1.203,1.694,2.068
		c0.381,0.865,0.571,1.818,0.571,2.86c0,1.041-0.19,1.994-0.571,2.859c-0.382,0.866-0.946,1.555-1.694,2.068s-1.643,0.77-2.685,0.77
		c-0.66,0-1.221-0.069-1.683-0.209c-0.462-0.139-0.905-0.362-1.331-0.671v5.984h-2.729V34.25h2.201l0.285,1.012
		c0.47-0.396,0.961-0.692,1.475-0.891c0.513-0.198,1.107-0.297,1.781-0.297C447.8,34.074,448.694,34.331,449.442,34.844z
		 M448.232,42.28c0.454-0.631,0.682-1.467,0.682-2.508c0-1.042-0.228-1.878-0.682-2.509c-0.455-0.63-1.086-0.945-1.893-0.945
		c-0.909,0-1.591,0.308-2.046,0.924c-0.454,0.616-0.682,1.459-0.682,2.53c0,1.07,0.228,1.913,0.682,2.529
		c0.455,0.616,1.137,0.924,2.046,0.924C447.146,43.226,447.777,42.911,448.232,42.28z"/>
	<path fill="#FFFFFF" stroke="#FFFFFF" stroke-miterlimit="10" d="M455.58,44.7c-0.851-0.514-1.504-1.202-1.958-2.068
		c-0.454-0.865-0.682-1.818-0.682-2.859c0-1.042,0.228-2.003,0.682-2.883s1.107-1.576,1.958-2.09c0.851-0.513,1.855-0.77,3.014-0.77
		c1.159,0,2.164,0.257,3.015,0.77c0.851,0.514,1.503,1.21,1.958,2.09c0.454,0.88,0.682,1.841,0.682,2.883
		c0,1.041-0.228,1.994-0.682,2.859c-0.455,0.866-1.107,1.555-1.958,2.068s-1.855,0.77-3.015,0.77
		C457.436,45.47,456.431,45.214,455.58,44.7z M460.695,42.28c0.506-0.631,0.759-1.467,0.759-2.508c0-1.057-0.253-1.903-0.759-2.541
		c-0.506-0.639-1.207-0.957-2.102-0.957s-1.595,0.318-2.101,0.957c-0.506,0.638-0.759,1.484-0.759,2.541
		c0,1.041,0.253,1.877,0.759,2.508s1.206,0.945,2.101,0.945S460.189,42.911,460.695,42.28z"/>
	<path fill="#FFFFFF" stroke="#FFFFFF" stroke-miterlimit="10" d="M466.14,34.25h2.552l0.066,1.166
		c0.322-0.366,0.737-0.689,1.243-0.968s1.037-0.418,1.595-0.418c0.176,0,0.338,0.015,0.484,0.044l-0.198,2.684
		c-0.278-0.073-0.594-0.109-0.946-0.109c-0.454,0-0.872,0.106-1.254,0.318c-0.381,0.213-0.652,0.474-0.813,0.781v7.502h-2.729V34.25
		z"/>
	<path fill="#FFFFFF" stroke="#FFFFFF" stroke-miterlimit="10" d="M473.367,44.579c-0.609-0.594-0.914-1.397-0.914-2.409
		c0-0.953,0.345-1.72,1.035-2.299c0.688-0.579,1.503-0.99,2.441-1.232c0.938-0.241,1.84-0.377,2.706-0.406
		c-0.029-0.646-0.194-1.107-0.495-1.387c-0.301-0.278-0.796-0.418-1.484-0.418c-0.484,0-0.957,0.066-1.42,0.198
		c-0.462,0.132-0.993,0.345-1.595,0.638l-0.242-2.222c1.335-0.646,2.669-0.968,4.005-0.968c1.29,0,2.276,0.352,2.959,1.056
		c0.682,0.704,1.022,1.826,1.022,3.366v2.97c0,0.558,0.025,0.957,0.077,1.199c0.051,0.242,0.139,0.396,0.264,0.462
		s0.334,0.099,0.627,0.099h0.353l-0.242,2.244h-0.99c-0.602,0-1.107-0.113-1.518-0.341c-0.411-0.228-0.727-0.539-0.946-0.935
		c-0.352,0.396-0.832,0.707-1.441,0.935c-0.608,0.228-1.25,0.341-1.925,0.341C474.734,45.47,473.975,45.173,473.367,44.579z
		 M477.733,43.171c0.353-0.139,0.66-0.333,0.925-0.583V40.08c-0.881,0.044-1.658,0.234-2.332,0.572
		c-0.676,0.337-1.013,0.807-1.013,1.407c0,0.455,0.117,0.789,0.353,1.001c0.234,0.213,0.608,0.319,1.121,0.319
		C477.066,43.38,477.382,43.311,477.733,43.171z"/>
	<path fill="#FFFFFF" stroke="#FFFFFF" stroke-miterlimit="10" d="M485.434,44.623c-0.499-0.564-0.748-1.243-0.748-2.035v-6.094
		h-1.562l0.242-2.244h1.32v-2.42l2.729-0.286v2.706h2.42v2.244h-2.42v4.972c0,0.587,0.032,0.994,0.099,1.221
		c0.065,0.229,0.205,0.374,0.418,0.44c0.212,0.066,0.597,0.099,1.155,0.099h0.748l-0.242,2.244h-1.958
		C486.666,45.47,485.932,45.188,485.434,44.623z"/>
	<path fill="#FFFFFF" stroke="#FFFFFF" stroke-miterlimit="10" d="M491.615,29.85h2.729v2.729h-2.729V29.85z M491.615,34.25h2.729
		v11h-2.729V34.25z"/>
	<path fill="#FFFFFF" stroke="#FFFFFF" stroke-miterlimit="10" d="M498.875,44.7c-0.851-0.514-1.504-1.202-1.958-2.068
		c-0.454-0.865-0.682-1.818-0.682-2.859c0-1.042,0.228-2.003,0.682-2.883s1.107-1.576,1.958-2.09c0.851-0.513,1.855-0.77,3.014-0.77
		c1.159,0,2.164,0.257,3.015,0.77c0.851,0.514,1.503,1.21,1.958,2.09c0.454,0.88,0.682,1.841,0.682,2.883
		c0,1.041-0.228,1.994-0.682,2.859c-0.455,0.866-1.107,1.555-1.958,2.068s-1.855,0.77-3.015,0.77
		C500.73,45.47,499.726,45.214,498.875,44.7z M503.99,42.28c0.506-0.631,0.759-1.467,0.759-2.508c0-1.057-0.253-1.903-0.759-2.541
		c-0.506-0.639-1.207-0.957-2.102-0.957s-1.595,0.318-2.101,0.957c-0.506,0.638-0.759,1.484-0.759,2.541
		c0,1.041,0.253,1.877,0.759,2.508s1.206,0.945,2.101,0.945S503.484,42.911,503.99,42.28z"/>
	<path fill="#FFFFFF" stroke="#FFFFFF" stroke-miterlimit="10" d="M509.435,34.25h2.552l0.045,0.77
		c0.924-0.63,1.906-0.945,2.947-0.945c1.364,0,2.398,0.454,3.103,1.364c0.704,0.909,1.056,2.134,1.056,3.674v6.138h-2.728v-5.918
		c0-1.026-0.173-1.785-0.518-2.277c-0.345-0.491-0.898-0.736-1.661-0.736c-0.836,0-1.525,0.315-2.067,0.945v7.986h-2.729V34.25z"/>
</g>
</svg>
