<?xml version="1.0" encoding="UTF-8"?>
<svg width="42px" height="42px" viewBox="0 0 42 42" version="1.1" xmlns="http://www.w3.org/2000/svg" xmlns:xlink="http://www.w3.org/1999/xlink">
    <!-- Generator: Sketch 54.1 (76490) - https://sketchapp.com -->
    <title>Icon SoMe / Twitter</title>
    <desc>Created with Sketch.</desc>
    <g id="Icon-SoMe-/-Twitter" stroke="none" stroke-width="1" fill="none" fill-rule="evenodd">
        <path d="M37.0839695,9.38509317 C38.9007634,8.32919255 40.2900763,6.63975155 40.9312977,4.63354037 C39.221374,5.58385093 37.4045802,6.32298137 35.480916,6.74534161 C33.8778626,5.05590062 31.6335878,4 29.1755725,4 C24.3664122,4 20.519084,7.80124224 20.519084,12.552795 C20.519084,13.1863354 20.6259542,13.9254658 20.7328244,14.5590062 C13.5725191,14.242236 7.16030534,10.757764 2.88549618,5.58385093 C2.13740458,6.85093168 1.70992366,8.32919255 1.70992366,9.91304348 C1.70992366,12.8695652 3.20610687,15.5093168 5.55725191,17.0931677 C4.16793893,17.0931677 2.77862595,16.6708075 1.60305344,16.0372671 L1.60305344,16.1428571 C1.60305344,20.2608696 4.59541985,23.7453416 8.54961832,24.5900621 C7.80152672,24.8012422 7.05343511,24.9068323 6.30534351,24.9068323 C5.77099237,24.9068323 5.23664122,24.8012422 4.70229008,24.8012422 C5.77099237,28.1801242 8.97709924,30.7142857 12.8244275,30.8198758 C9.83206107,33.1428571 6.09160305,34.515528 2.03053435,34.515528 C1.28244275,34.515528 0.641221374,34.515528 0,34.4099379 C3.63358779,36.6273292 8.22900763,38 13.1450382,38 C29.0687023,38 37.7251908,24.9068323 37.7251908,13.5031056 L37.7251908,12.3416149 C39.4351145,11.1801242 40.8244275,9.70186335 42,8.01242236 C40.3969466,8.64596273 38.7938931,9.17391304 37.0839695,9.38509317 Z" id="Page-1" fill="#666666"></path>
    </g>
</svg>